<?xml version="1.0" encoding="UTF-8" standalone="no"?>
<!DOCTYPE svg PUBLIC "-//W3C//DTD SVG 1.1//EN"
 "http://www.w3.org/Graphics/SVG/1.1/DTD/svg11.dtd">
<!-- Generated by graphviz version 2.43.0 (0)
 -->
<!-- Title: magnumaf::NonequiExchangeField Pages: 1 -->
<svg width="338pt" height="252pt"
 viewBox="0.00 0.00 337.50 252.00" xmlns="http://www.w3.org/2000/svg" xmlns:xlink="http://www.w3.org/1999/xlink">
<g id="graph0" class="graph" transform="scale(1 1) rotate(0) translate(4 248)">
<title>magnumaf::NonequiExchangeField</title>
<!-- Node1 -->
<g id="node1" class="node">
<title>Node1</title>
<g id="a_node1"><a xlink:title="Nonequispaced Exchange Field.">
<polygon fill="#bfbfbf" stroke="black" points="0,-0.5 0,-30.5 163,-30.5 163,-0.5 0,-0.5"/>
<text text-anchor="start" x="8" y="-18.5" font-family="Helvetica,sans-Serif" font-size="10.00">magnumaf::NonequiExchange</text>
<text text-anchor="middle" x="81.5" y="-7.5" font-family="Helvetica,sans-Serif" font-size="10.00">Field</text>
</a>
</g>
</g>
<!-- Node2 -->
<g id="node2" class="node">
<title>Node2</title>
<g id="a_node2"><a xlink:href="classmagnumaf_1_1NonequiTerm.html" target="_top" xlink:title=" ">
<polygon fill="none" stroke="black" points="11.5,-68.5 11.5,-87.5 151.5,-87.5 151.5,-68.5 11.5,-68.5"/>
<text text-anchor="middle" x="81.5" y="-75.5" font-family="Helvetica,sans-Serif" font-size="10.00">magnumaf::NonequiTerm</text>
</a>
</g>
</g>
<!-- Node2&#45;&gt;Node1 -->
<g id="edge1" class="edge">
<title>Node2&#45;&gt;Node1</title>
<path fill="none" stroke="midnightblue" d="M81.5,-58.22C81.5,-49.36 81.5,-38.96 81.5,-30.76"/>
<polygon fill="midnightblue" stroke="midnightblue" points="78,-58.33 81.5,-68.33 85,-58.33 78,-58.33"/>
</g>
<!-- Node3 -->
<g id="node3" class="node">
<title>Node3</title>
<g id="a_node3"><a xlink:href="classmagnumaf_1_1FieldTerm.html" target="_top" xlink:title=" ">
<polygon fill="none" stroke="black" points="4.5,-135.5 4.5,-154.5 126.5,-154.5 126.5,-135.5 4.5,-135.5"/>
<text text-anchor="middle" x="65.5" y="-142.5" font-family="Helvetica,sans-Serif" font-size="10.00">magnumaf::FieldTerm</text>
</a>
</g>
</g>
<!-- Node3&#45;&gt;Node2 -->
<g id="edge2" class="edge">
<title>Node3&#45;&gt;Node2</title>
<path fill="none" stroke="midnightblue" d="M70.07,-125.41C73.13,-112.99 77.02,-97.22 79.38,-87.63"/>
<polygon fill="midnightblue" stroke="midnightblue" points="66.65,-124.69 67.66,-135.23 73.45,-126.36 66.65,-124.69"/>
</g>
<!-- Node4 -->
<g id="node4" class="node">
<title>Node4</title>
<g id="a_node4"><a xlink:href="structmagnumaf_1_1NonequiMesh.html" target="_top" xlink:title=" ">
<polygon fill="none" stroke="black" points="144.5,-135.5 144.5,-154.5 286.5,-154.5 286.5,-135.5 144.5,-135.5"/>
<text text-anchor="middle" x="215.5" y="-142.5" font-family="Helvetica,sans-Serif" font-size="10.00">magnumaf::NonequiMesh</text>
</a>
</g>
</g>
<!-- Node4&#45;&gt;Node2 -->
<g id="edge3" class="edge">
<title>Node4&#45;&gt;Node2</title>
<path fill="none" stroke="#9a32cd" stroke-dasharray="5,2" d="M188.58,-130.94C162.04,-118.07 122.23,-98.76 99.37,-87.67"/>
<polygon fill="#9a32cd" stroke="#9a32cd" points="187.18,-134.15 197.71,-135.37 190.24,-127.85 187.18,-134.15"/>
<text text-anchor="middle" x="179" y="-109" font-family="Helvetica,sans-Serif" font-size="10.00"> nemesh</text>
</g>
<!-- Node5 -->
<g id="node5" class="node">
<title>Node5</title>
<g id="a_node5"><a xlink:title=" ">
<polygon fill="none" stroke="#bfbfbf" points="142,-224.5 142,-243.5 187,-243.5 187,-224.5 142,-224.5"/>
<text text-anchor="middle" x="164.5" y="-231.5" font-family="Helvetica,sans-Serif" font-size="10.00">size_t</text>
</a>
</g>
</g>
<!-- Node5&#45;&gt;Node4 -->
<g id="edge4" class="edge">
<title>Node5&#45;&gt;Node4</title>
<path fill="none" stroke="#9a32cd" stroke-dasharray="5,2" d="M174.77,-215.49C185.58,-197.03 202.17,-168.74 210.44,-154.62"/>
<polygon fill="#9a32cd" stroke="#9a32cd" points="171.61,-213.94 169.58,-224.34 177.65,-217.48 171.61,-213.94"/>
<text text-anchor="middle" x="207.5" y="-198" font-family="Helvetica,sans-Serif" font-size="10.00"> nx</text>
<text text-anchor="middle" x="207.5" y="-187" font-family="Helvetica,sans-Serif" font-size="10.00">ny</text>
<text text-anchor="middle" x="207.5" y="-176" font-family="Helvetica,sans-Serif" font-size="10.00">nz</text>
</g>
<!-- Node6 -->
<g id="node6" class="node">
<title>Node6</title>
<g id="a_node6"><a xlink:title=" ">
<polygon fill="none" stroke="#bfbfbf" points="205.5,-224.5 205.5,-243.5 329.5,-243.5 329.5,-224.5 205.5,-224.5"/>
<text text-anchor="middle" x="267.5" y="-231.5" font-family="Helvetica,sans-Serif" font-size="10.00">std::vector&lt; double &gt;</text>
</a>
</g>
</g>
<!-- Node6&#45;&gt;Node4 -->
<g id="edge5" class="edge">
<title>Node6&#45;&gt;Node4</title>
<path fill="none" stroke="#9a32cd" stroke-dasharray="5,2" d="M257.18,-215.74C246.16,-197.3 229.13,-168.8 220.66,-154.62"/>
<polygon fill="#9a32cd" stroke="#9a32cd" points="254.19,-217.55 262.32,-224.34 260.2,-213.96 254.19,-217.55"/>
<text text-anchor="middle" x="276.5" y="-187" font-family="Helvetica,sans-Serif" font-size="10.00"> z_spacing</text>
</g>
</g>
</svg>
