<?xml version="1.0" encoding="UTF-8" standalone="no"?>
<!DOCTYPE svg PUBLIC "-//W3C//DTD SVG 1.1//EN"
 "http://www.w3.org/Graphics/SVG/1.1/DTD/svg11.dtd">
<!-- Generated by graphviz version 2.43.0 (0)
 -->
<!-- Title: magnumaf::NonequiTerm Pages: 1 -->
<svg width="515pt" height="176pt"
 viewBox="0.00 0.00 515.00 175.50" xmlns="http://www.w3.org/2000/svg" xmlns:xlink="http://www.w3.org/1999/xlink">
<g id="graph0" class="graph" transform="scale(1 1) rotate(0) translate(4 171.5)">
<title>magnumaf::NonequiTerm</title>
<!-- Node1 -->
<g id="node1" class="node">
<title>Node1</title>
<g id="a_node1"><a xlink:title=" ">
<polygon fill="#bfbfbf" stroke="black" points="158,-79 158,-98 298,-98 298,-79 158,-79"/>
<text text-anchor="middle" x="228" y="-86" font-family="Helvetica,sans-Serif" font-size="10.00">magnumaf::NonequiTerm</text>
</a>
</g>
</g>
<!-- Node3 -->
<g id="node3" class="node">
<title>Node3</title>
<g id="a_node3"><a xlink:href="classmagnumaf_1_1NonequiDemagField.html" target="_top" xlink:title=" ">
<polygon fill="none" stroke="black" points="334,-148 334,-167 507,-167 507,-148 334,-148"/>
<text text-anchor="middle" x="420.5" y="-155" font-family="Helvetica,sans-Serif" font-size="10.00">magnumaf::NonequiDemagField</text>
</a>
</g>
</g>
<!-- Node1&#45;&gt;Node3 -->
<g id="edge2" class="edge">
<title>Node1&#45;&gt;Node3</title>
<path fill="none" stroke="midnightblue" d="M254.82,-102.82C275.67,-113.88 306.02,-128.87 334,-138.5 344.64,-142.16 356.27,-145.3 367.43,-147.9"/>
<polygon fill="midnightblue" stroke="midnightblue" points="256.42,-99.71 245.96,-98.05 253.11,-105.87 256.42,-99.71"/>
</g>
<!-- Node4 -->
<g id="node4" class="node">
<title>Node4</title>
<g id="a_node4"><a xlink:href="classmagnumaf_1_1NonequiExchangeField.html" target="_top" xlink:title="Nonequispaced Exchange Field.">
<polygon fill="none" stroke="black" points="339,-98.5 339,-128.5 502,-128.5 502,-98.5 339,-98.5"/>
<text text-anchor="start" x="347" y="-116.5" font-family="Helvetica,sans-Serif" font-size="10.00">magnumaf::NonequiExchange</text>
<text text-anchor="middle" x="420.5" y="-105.5" font-family="Helvetica,sans-Serif" font-size="10.00">Field</text>
</a>
</g>
</g>
<!-- Node1&#45;&gt;Node4 -->
<g id="edge3" class="edge">
<title>Node1&#45;&gt;Node4</title>
<path fill="none" stroke="midnightblue" d="M308.07,-98.88C318.19,-100.2 328.56,-101.57 338.71,-102.9"/>
<polygon fill="midnightblue" stroke="midnightblue" points="308.41,-95.39 298.04,-97.56 307.5,-102.33 308.41,-95.39"/>
</g>
<!-- Node5 -->
<g id="node5" class="node">
<title>Node5</title>
<g id="a_node5"><a xlink:href="classmagnumaf_1_1NonequiExternalField.html" target="_top" xlink:title=" ">
<polygon fill="none" stroke="black" points="342.5,-49.5 342.5,-79.5 498.5,-79.5 498.5,-49.5 342.5,-49.5"/>
<text text-anchor="start" x="350.5" y="-67.5" font-family="Helvetica,sans-Serif" font-size="10.00">magnumaf::NonequiExternal</text>
<text text-anchor="middle" x="420.5" y="-56.5" font-family="Helvetica,sans-Serif" font-size="10.00">Field</text>
</a>
</g>
</g>
<!-- Node1&#45;&gt;Node5 -->
<g id="edge4" class="edge">
<title>Node1&#45;&gt;Node5</title>
<path fill="none" stroke="midnightblue" d="M308.28,-78.51C319.53,-77.09 331.09,-75.64 342.3,-74.23"/>
<polygon fill="midnightblue" stroke="midnightblue" points="307.53,-75.08 298.04,-79.8 308.4,-82.02 307.53,-75.08"/>
</g>
<!-- Node6 -->
<g id="node6" class="node">
<title>Node6</title>
<g id="a_node6"><a xlink:href="classmagnumaf_1_1NonequiUniaxialAnisotropyField.html" target="_top" xlink:title=" ">
<polygon fill="none" stroke="black" points="342.5,-0.5 342.5,-30.5 498.5,-30.5 498.5,-0.5 342.5,-0.5"/>
<text text-anchor="start" x="350.5" y="-18.5" font-family="Helvetica,sans-Serif" font-size="10.00">magnumaf::NonequiUniaxial</text>
<text text-anchor="middle" x="420.5" y="-7.5" font-family="Helvetica,sans-Serif" font-size="10.00">AnisotropyField</text>
</a>
</g>
</g>
<!-- Node1&#45;&gt;Node6 -->
<g id="edge5" class="edge">
<title>Node1&#45;&gt;Node6</title>
<path fill="none" stroke="midnightblue" d="M256.13,-74.34C277.03,-63.81 306.85,-49.57 334,-39.5 342.67,-36.28 351.98,-33.26 361.14,-30.51"/>
<polygon fill="midnightblue" stroke="midnightblue" points="254.52,-71.24 247.2,-78.9 257.7,-77.47 254.52,-71.24"/>
</g>
<!-- Node2 -->
<g id="node2" class="node">
<title>Node2</title>
<g id="a_node2"><a xlink:href="classmagnumaf_1_1FieldTerm.html" target="_top" xlink:title=" ">
<polygon fill="none" stroke="black" points="0,-79 0,-98 122,-98 122,-79 0,-79"/>
<text text-anchor="middle" x="61" y="-86" font-family="Helvetica,sans-Serif" font-size="10.00">magnumaf::FieldTerm</text>
</a>
</g>
</g>
<!-- Node2&#45;&gt;Node1 -->
<g id="edge1" class="edge">
<title>Node2&#45;&gt;Node1</title>
<path fill="none" stroke="midnightblue" d="M132.24,-88.5C140.7,-88.5 149.33,-88.5 157.77,-88.5"/>
<polygon fill="midnightblue" stroke="midnightblue" points="132.04,-85 122.04,-88.5 132.04,-92 132.04,-85"/>
</g>
</g>
</svg>
