<?xml version="1.0" encoding="UTF-8" standalone="no"?>
<!DOCTYPE svg PUBLIC "-//W3C//DTD SVG 1.1//EN"
 "http://www.w3.org/Graphics/SVG/1.1/DTD/svg11.dtd">
<!-- Generated by graphviz version 2.43.0 (0)
 -->
<!-- Title: magnumaf::CubicAnisotropyField Pages: 1 -->
<svg width="529pt" height="138pt"
 viewBox="0.00 0.00 529.00 137.50" xmlns="http://www.w3.org/2000/svg" xmlns:xlink="http://www.w3.org/1999/xlink">
<g id="graph0" class="graph" transform="scale(1 1) rotate(0) translate(4 133.5)">
<title>magnumaf::CubicAnisotropyField</title>
<!-- Node1 -->
<g id="node1" class="node">
<title>Node1</title>
<g id="a_node1"><a xlink:title=" ">
<polygon fill="#bfbfbf" stroke="black" points="366,-56.5 366,-86.5 521,-86.5 521,-56.5 366,-56.5"/>
<text text-anchor="start" x="374" y="-74.5" font-family="Helvetica,sans-Serif" font-size="10.00">magnumaf::CubicAnisotropy</text>
<text text-anchor="middle" x="443.5" y="-63.5" font-family="Helvetica,sans-Serif" font-size="10.00">Field</text>
</a>
</g>
</g>
<!-- Node2 -->
<g id="node2" class="node">
<title>Node2</title>
<g id="a_node2"><a xlink:href="classmagnumaf_1_1MicroTerm.html" target="_top" xlink:title=" ">
<polygon fill="none" stroke="black" points="170.5,-110 170.5,-129 296.5,-129 296.5,-110 170.5,-110"/>
<text text-anchor="middle" x="233.5" y="-117" font-family="Helvetica,sans-Serif" font-size="10.00">magnumaf::MicroTerm</text>
</a>
</g>
</g>
<!-- Node2&#45;&gt;Node1 -->
<g id="edge1" class="edge">
<title>Node2&#45;&gt;Node1</title>
<path fill="none" stroke="midnightblue" d="M306.5,-113.07C320.37,-111.14 334.71,-108.67 348,-105.5 367.84,-100.77 389.29,-93.26 406.72,-86.5"/>
<polygon fill="midnightblue" stroke="midnightblue" points="305.96,-109.61 296.5,-114.38 306.87,-116.55 305.96,-109.61"/>
</g>
<!-- Node3 -->
<g id="node3" class="node">
<title>Node3</title>
<g id="a_node3"><a xlink:href="classmagnumaf_1_1FieldTerm.html" target="_top" xlink:title=" ">
<polygon fill="none" stroke="black" points="0,-110 0,-129 122,-129 122,-110 0,-110"/>
<text text-anchor="middle" x="61" y="-117" font-family="Helvetica,sans-Serif" font-size="10.00">magnumaf::FieldTerm</text>
</a>
</g>
</g>
<!-- Node3&#45;&gt;Node2 -->
<g id="edge2" class="edge">
<title>Node3&#45;&gt;Node2</title>
<path fill="none" stroke="midnightblue" d="M132.14,-119.5C144.8,-119.5 157.92,-119.5 170.34,-119.5"/>
<polygon fill="midnightblue" stroke="midnightblue" points="132.11,-116 122.11,-119.5 132.11,-123 132.11,-116"/>
</g>
<!-- Node4 -->
<g id="node4" class="node">
<title>Node4</title>
<g id="a_node4"><a xlink:href="classmagnumaf_1_1util_1_1DoubleOrArray.html" target="_top" xlink:title="Class for handling a variable/value which is either a double or an af::array of size [nx,...">
<polygon fill="none" stroke="black" points="162,-56.5 162,-86.5 305,-86.5 305,-56.5 162,-56.5"/>
<text text-anchor="start" x="170" y="-74.5" font-family="Helvetica,sans-Serif" font-size="10.00">magnumaf::util::DoubleOr</text>
<text text-anchor="middle" x="233.5" y="-63.5" font-family="Helvetica,sans-Serif" font-size="10.00">Array</text>
</a>
</g>
</g>
<!-- Node4&#45;&gt;Node1 -->
<g id="edge3" class="edge">
<title>Node4&#45;&gt;Node1</title>
<path fill="none" stroke="#9a32cd" stroke-dasharray="5,2" d="M315.43,-71.5C332.04,-71.5 349.48,-71.5 365.93,-71.5"/>
<polygon fill="#9a32cd" stroke="#9a32cd" points="315.21,-68 305.21,-71.5 315.21,-75 315.21,-68"/>
<text text-anchor="middle" x="337" y="-96.5" font-family="Helvetica,sans-Serif" font-size="10.00"> Kc1</text>
<text text-anchor="middle" x="337" y="-85.5" font-family="Helvetica,sans-Serif" font-size="10.00">Kc2</text>
<text text-anchor="middle" x="337" y="-74.5" font-family="Helvetica,sans-Serif" font-size="10.00">Kc3</text>
</g>
<!-- Node5 -->
<g id="node5" class="node">
<title>Node5</title>
<g id="a_node5"><a xlink:href="structmagnumaf_1_1util_1_1UnitVectorOrArray.html" target="_top" xlink:title="Wrapper for a unit vector either of type std::array&lt;double, 3&gt; or af::array dims [nx,...">
<polygon fill="none" stroke="black" points="159,-0.5 159,-30.5 308,-30.5 308,-0.5 159,-0.5"/>
<text text-anchor="start" x="167" y="-18.5" font-family="Helvetica,sans-Serif" font-size="10.00">magnumaf::util::UnitVector</text>
<text text-anchor="middle" x="233.5" y="-7.5" font-family="Helvetica,sans-Serif" font-size="10.00">OrArray</text>
</a>
</g>
</g>
<!-- Node5&#45;&gt;Node1 -->
<g id="edge4" class="edge">
<title>Node5&#45;&gt;Node1</title>
<path fill="none" stroke="#9a32cd" stroke-dasharray="5,2" d="M318.3,-27.5C328.38,-29.54 338.47,-31.87 348,-34.5 368.72,-40.22 391.15,-48.9 408.96,-56.4"/>
<polygon fill="#9a32cd" stroke="#9a32cd" points="318.74,-24.02 308.25,-25.56 317.41,-30.9 318.74,-24.02"/>
<text text-anchor="middle" x="337" y="-59.5" font-family="Helvetica,sans-Serif" font-size="10.00"> c1</text>
<text text-anchor="middle" x="337" y="-48.5" font-family="Helvetica,sans-Serif" font-size="10.00">c2</text>
<text text-anchor="middle" x="337" y="-37.5" font-family="Helvetica,sans-Serif" font-size="10.00">c3</text>
</g>
</g>
</svg>
