<?xml version="1.0" encoding="UTF-8" standalone="no"?>
<!DOCTYPE svg PUBLIC "-//W3C//DTD SVG 1.1//EN"
 "http://www.w3.org/Graphics/SVG/1.1/DTD/svg11.dtd">
<!-- Generated by graphviz version 2.43.0 (0)
 -->
<!-- Title: magnumaf::LBFGS_Minimizer Pages: 1 -->
<svg width="293pt" height="365pt"
 viewBox="0.00 0.00 293.00 365.00" xmlns="http://www.w3.org/2000/svg" xmlns:xlink="http://www.w3.org/1999/xlink">
<g id="graph0" class="graph" transform="scale(1 1) rotate(0) translate(4 361)">
<title>magnumaf::LBFGS_Minimizer</title>
<!-- Node1 -->
<g id="node1" class="node">
<title>Node1</title>
<g id="a_node1"><a xlink:title=" ">
<polygon fill="#bfbfbf" stroke="black" points="70.5,-0.5 70.5,-19.5 231.5,-19.5 231.5,-0.5 70.5,-0.5"/>
<text text-anchor="middle" x="151" y="-7.5" font-family="Helvetica,sans-Serif" font-size="10.00">magnumaf::LBFGS_Minimizer</text>
</a>
</g>
</g>
<!-- Node2 -->
<g id="node2" class="node">
<title>Node2</title>
<g id="a_node2"><a xlink:title=" ">
<polygon fill="none" stroke="#bfbfbf" points="0,-67.5 0,-86.5 162,-86.5 162,-67.5 0,-67.5"/>
<text text-anchor="middle" x="81" y="-74.5" font-family="Helvetica,sans-Serif" font-size="10.00">std::vector&lt; uptr_FieldTerm &gt;</text>
</a>
</g>
</g>
<!-- Node2&#45;&gt;Node1 -->
<g id="edge1" class="edge">
<title>Node2&#45;&gt;Node1</title>
<path fill="none" stroke="#9a32cd" stroke-dasharray="5,2" d="M97.85,-60.36C111.61,-47.58 130.55,-29.99 141.71,-19.63"/>
<polygon fill="#9a32cd" stroke="#9a32cd" points="95.39,-57.86 90.44,-67.23 100.15,-62.99 95.39,-57.86"/>
<text text-anchor="middle" x="150.5" y="-41" font-family="Helvetica,sans-Serif" font-size="10.00"> fieldterms_</text>
</g>
<!-- Node3 -->
<g id="node3" class="node">
<title>Node3</title>
<g id="a_node3"><a xlink:title=" ">
<polygon fill="none" stroke="#bfbfbf" points="22,-140 22,-159 140,-159 140,-140 22,-140"/>
<text text-anchor="middle" x="81" y="-147" font-family="Helvetica,sans-Serif" font-size="10.00">std::unique_ptr&lt; T &gt;</text>
</a>
</g>
</g>
<!-- Node3&#45;&gt;Node2 -->
<g id="edge2" class="edge">
<title>Node3&#45;&gt;Node2</title>
<path fill="none" stroke="#9a32cd" stroke-dasharray="5,2" d="M81,-129.44C81,-115.53 81,-97.32 81,-86.72"/>
<polygon fill="#9a32cd" stroke="#9a32cd" points="77.5,-129.86 81,-139.86 84.5,-129.86 77.5,-129.86"/>
<text text-anchor="middle" x="105.5" y="-108" font-family="Helvetica,sans-Serif" font-size="10.00"> elements</text>
</g>
<!-- Node4 -->
<g id="node4" class="node">
<title>Node4</title>
<g id="a_node4"><a xlink:title=" ">
<polygon fill="none" stroke="#bfbfbf" points="66.5,-218 66.5,-237 95.5,-237 95.5,-218 66.5,-218"/>
<text text-anchor="middle" x="81" y="-225" font-family="Helvetica,sans-Serif" font-size="10.00">T</text>
</a>
</g>
</g>
<!-- Node4&#45;&gt;Node3 -->
<g id="edge3" class="edge">
<title>Node4&#45;&gt;Node3</title>
<path fill="none" stroke="#9a32cd" stroke-dasharray="5,2" d="M81,-207.72C81,-192.2 81,-170.86 81,-159.12"/>
<polygon fill="#9a32cd" stroke="#9a32cd" points="77.5,-207.78 81,-217.78 84.5,-207.78 77.5,-207.78"/>
<text text-anchor="middle" x="89.5" y="-186" font-family="Helvetica,sans-Serif" font-size="10.00"> ptr</text>
</g>
<!-- Node5 -->
<g id="node5" class="node">
<title>Node5</title>
<g id="a_node5"><a xlink:title=" ">
<polygon fill="none" stroke="#bfbfbf" points="180,-67.5 180,-86.5 262,-86.5 262,-67.5 180,-67.5"/>
<text text-anchor="middle" x="221" y="-74.5" font-family="Helvetica,sans-Serif" font-size="10.00">std::ofstream</text>
</a>
</g>
</g>
<!-- Node5&#45;&gt;Node1 -->
<g id="edge4" class="edge">
<title>Node5&#45;&gt;Node1</title>
<path fill="none" stroke="#9a32cd" stroke-dasharray="5,2" d="M206.03,-59.83C199.44,-52.92 191.51,-44.89 184,-38 177.02,-31.6 168.77,-24.85 162.26,-19.7"/>
<polygon fill="#9a32cd" stroke="#9a32cd" points="203.63,-62.39 213.04,-67.27 208.73,-57.59 203.63,-62.39"/>
<text text-anchor="middle" x="237" y="-41" font-family="Helvetica,sans-Serif" font-size="10.00"> of_convergence_</text>
</g>
<!-- Node6 -->
<g id="node6" class="node">
<title>Node6</title>
<g id="a_node6"><a xlink:title=" ">
<polygon fill="none" stroke="#bfbfbf" points="164.5,-134.5 164.5,-164.5 277.5,-164.5 277.5,-134.5 164.5,-134.5"/>
<text text-anchor="start" x="172.5" y="-152.5" font-family="Helvetica,sans-Serif" font-size="10.00">std::basic_ofstream</text>
<text text-anchor="middle" x="221" y="-141.5" font-family="Helvetica,sans-Serif" font-size="10.00">&lt; Char &gt;</text>
</a>
</g>
</g>
<!-- Node6&#45;&gt;Node5 -->
<g id="edge5" class="edge">
<title>Node6&#45;&gt;Node5</title>
<path fill="none" stroke="midnightblue" d="M221,-124.09C221,-111.21 221,-96.2 221,-86.89"/>
<polygon fill="midnightblue" stroke="midnightblue" points="217.5,-124.23 221,-134.23 224.5,-124.23 217.5,-124.23"/>
</g>
<!-- Node7 -->
<g id="node7" class="node">
<title>Node7</title>
<g id="a_node7"><a xlink:title=" ">
<polygon fill="none" stroke="#bfbfbf" points="166.5,-212.5 166.5,-242.5 275.5,-242.5 275.5,-212.5 166.5,-212.5"/>
<text text-anchor="start" x="174.5" y="-230.5" font-family="Helvetica,sans-Serif" font-size="10.00">std::basic_ostream</text>
<text text-anchor="middle" x="221" y="-219.5" font-family="Helvetica,sans-Serif" font-size="10.00">&lt; Char &gt;</text>
</a>
</g>
</g>
<!-- Node7&#45;&gt;Node6 -->
<g id="edge6" class="edge">
<title>Node7&#45;&gt;Node6</title>
<path fill="none" stroke="midnightblue" d="M221,-202.09C221,-189.76 221,-175.22 221,-164.73"/>
<polygon fill="midnightblue" stroke="midnightblue" points="217.5,-202.2 221,-212.2 224.5,-202.21 217.5,-202.2"/>
</g>
<!-- Node8 -->
<g id="node8" class="node">
<title>Node8</title>
<g id="a_node8"><a xlink:title=" ">
<polygon fill="none" stroke="#bfbfbf" points="157,-280.5 157,-299.5 285,-299.5 285,-280.5 157,-280.5"/>
<text text-anchor="middle" x="221" y="-287.5" font-family="Helvetica,sans-Serif" font-size="10.00">std::basic_ios&lt; Char &gt;</text>
</a>
</g>
</g>
<!-- Node8&#45;&gt;Node7 -->
<g id="edge7" class="edge">
<title>Node8&#45;&gt;Node7</title>
<path fill="none" stroke="midnightblue" d="M221,-270.22C221,-261.36 221,-250.96 221,-242.76"/>
<polygon fill="midnightblue" stroke="midnightblue" points="217.5,-270.33 221,-280.33 224.5,-270.33 217.5,-270.33"/>
</g>
<!-- Node9 -->
<g id="node9" class="node">
<title>Node9</title>
<g id="a_node9"><a xlink:title=" ">
<polygon fill="none" stroke="#bfbfbf" points="181,-337.5 181,-356.5 261,-356.5 261,-337.5 181,-337.5"/>
<text text-anchor="middle" x="221" y="-344.5" font-family="Helvetica,sans-Serif" font-size="10.00">std::ios_base</text>
</a>
</g>
</g>
<!-- Node9&#45;&gt;Node8 -->
<g id="edge8" class="edge">
<title>Node9&#45;&gt;Node8</title>
<path fill="none" stroke="midnightblue" d="M221,-327.12C221,-317.82 221,-307.06 221,-299.71"/>
<polygon fill="midnightblue" stroke="midnightblue" points="217.5,-327.41 221,-337.41 224.5,-327.41 217.5,-327.41"/>
</g>
</g>
</svg>
