<?xml version="1.0" encoding="UTF-8" standalone="no"?>
<!DOCTYPE svg PUBLIC "-//W3C//DTD SVG 1.1//EN"
 "http://www.w3.org/Graphics/SVG/1.1/DTD/svg11.dtd">
<!-- Generated by graphviz version 2.43.0 (0)
 -->
<!-- Title: magnumaf::LLGIntegrator Pages: 1 -->
<svg width="364pt" height="229pt"
 viewBox="0.00 0.00 363.50 229.00" xmlns="http://www.w3.org/2000/svg" xmlns:xlink="http://www.w3.org/1999/xlink">
<g id="graph0" class="graph" transform="scale(1 1) rotate(0) translate(4 225)">
<title>magnumaf::LLGIntegrator</title>
<!-- Node1 -->
<g id="node1" class="node">
<title>Node1</title>
<g id="a_node1"><a xlink:title="The LLGIntegrator class performs time integration of the Landau–Lifshitz–Gilbert (LLG) equation on th...">
<polygon fill="#bfbfbf" stroke="black" points="33,-0.5 33,-19.5 174,-19.5 174,-0.5 33,-0.5"/>
<text text-anchor="middle" x="103.5" y="-7.5" font-family="Helvetica,sans-Serif" font-size="10.00">magnumaf::LLGIntegrator</text>
</a>
</g>
</g>
<!-- Node2 -->
<g id="node2" class="node">
<title>Node2</title>
<g id="a_node2"><a xlink:href="classmagnumaf_1_1AdaptiveRungeKutta.html" target="_top" xlink:title=" ">
<polygon fill="none" stroke="black" points="0,-67.5 0,-86.5 175,-86.5 175,-67.5 0,-67.5"/>
<text text-anchor="middle" x="87.5" y="-74.5" font-family="Helvetica,sans-Serif" font-size="10.00">magnumaf::AdaptiveRungeKutta</text>
</a>
</g>
</g>
<!-- Node2&#45;&gt;Node1 -->
<g id="edge1" class="edge">
<title>Node2&#45;&gt;Node1</title>
<path fill="none" stroke="midnightblue" d="M92.07,-57.41C95.13,-44.99 99.02,-29.22 101.38,-19.63"/>
<polygon fill="midnightblue" stroke="midnightblue" points="88.65,-56.69 89.66,-67.23 95.45,-58.36 88.65,-56.69"/>
</g>
<!-- Node3 -->
<g id="node3" class="node">
<title>Node3</title>
<g id="a_node3"><a xlink:title=" ">
<polygon fill="none" stroke="#bfbfbf" points="193.5,-67.5 193.5,-86.5 355.5,-86.5 355.5,-67.5 193.5,-67.5"/>
<text text-anchor="middle" x="274.5" y="-74.5" font-family="Helvetica,sans-Serif" font-size="10.00">std::vector&lt; uptr_FieldTerm &gt;</text>
</a>
</g>
</g>
<!-- Node3&#45;&gt;Node1 -->
<g id="edge2" class="edge">
<title>Node3&#45;&gt;Node1</title>
<path fill="none" stroke="#9a32cd" stroke-dasharray="5,2" d="M242.33,-63.77C208.39,-50.87 155.79,-30.88 126.03,-19.56"/>
<polygon fill="#9a32cd" stroke="#9a32cd" points="241.2,-67.09 251.79,-67.37 243.69,-60.54 241.2,-67.09"/>
<text text-anchor="middle" x="220.5" y="-41" font-family="Helvetica,sans-Serif" font-size="10.00"> llgterms</text>
</g>
<!-- Node4 -->
<g id="node4" class="node">
<title>Node4</title>
<g id="a_node4"><a xlink:title=" ">
<polygon fill="none" stroke="#bfbfbf" points="215.5,-134.5 215.5,-153.5 333.5,-153.5 333.5,-134.5 215.5,-134.5"/>
<text text-anchor="middle" x="274.5" y="-141.5" font-family="Helvetica,sans-Serif" font-size="10.00">std::unique_ptr&lt; T &gt;</text>
</a>
</g>
</g>
<!-- Node4&#45;&gt;Node3 -->
<g id="edge3" class="edge">
<title>Node4&#45;&gt;Node3</title>
<path fill="none" stroke="#9a32cd" stroke-dasharray="5,2" d="M274.5,-124.04C274.5,-111.67 274.5,-96.12 274.5,-86.63"/>
<polygon fill="#9a32cd" stroke="#9a32cd" points="271,-124.23 274.5,-134.23 278,-124.23 271,-124.23"/>
<text text-anchor="middle" x="299" y="-108" font-family="Helvetica,sans-Serif" font-size="10.00"> elements</text>
</g>
<!-- Node5 -->
<g id="node5" class="node">
<title>Node5</title>
<g id="a_node5"><a xlink:title=" ">
<polygon fill="none" stroke="#bfbfbf" points="260,-201.5 260,-220.5 289,-220.5 289,-201.5 260,-201.5"/>
<text text-anchor="middle" x="274.5" y="-208.5" font-family="Helvetica,sans-Serif" font-size="10.00">T</text>
</a>
</g>
</g>
<!-- Node5&#45;&gt;Node4 -->
<g id="edge4" class="edge">
<title>Node5&#45;&gt;Node4</title>
<path fill="none" stroke="#9a32cd" stroke-dasharray="5,2" d="M274.5,-191.04C274.5,-178.67 274.5,-163.12 274.5,-153.63"/>
<polygon fill="#9a32cd" stroke="#9a32cd" points="271,-191.23 274.5,-201.23 278,-191.23 271,-191.23"/>
<text text-anchor="middle" x="283" y="-175" font-family="Helvetica,sans-Serif" font-size="10.00"> ptr</text>
</g>
</g>
</svg>
