<?xml version="1.0" encoding="UTF-8" standalone="no"?>
<!DOCTYPE svg PUBLIC "-//W3C//DTD SVG 1.1//EN"
 "http://www.w3.org/Graphics/SVG/1.1/DTD/svg11.dtd">
<!-- Generated by graphviz version 2.43.0 (0)
 -->
<!-- Title: magnumaf::Stochastic_LLG Pages: 1 -->
<svg width="182pt" height="252pt"
 viewBox="0.00 0.00 182.00 252.00" xmlns="http://www.w3.org/2000/svg" xmlns:xlink="http://www.w3.org/1999/xlink">
<g id="graph0" class="graph" transform="scale(1 1) rotate(0) translate(4 248)">
<title>magnumaf::Stochastic_LLG</title>
<!-- Node1 -->
<g id="node1" class="node">
<title>Node1</title>
<g id="a_node1"><a xlink:title=" ">
<polygon fill="#bfbfbf" stroke="black" points="12.5,-0.5 12.5,-19.5 161.5,-19.5 161.5,-0.5 12.5,-0.5"/>
<text text-anchor="middle" x="87" y="-7.5" font-family="Helvetica,sans-Serif" font-size="10.00">magnumaf::Stochastic_LLG</text>
</a>
</g>
</g>
<!-- Node2 -->
<g id="node2" class="node">
<title>Node2</title>
<g id="a_node2"><a xlink:href="classmagnumaf_1_1Stochastic__Integrator.html" target="_top" xlink:title=" ">
<polygon fill="none" stroke="black" points="24.5,-57.5 24.5,-87.5 149.5,-87.5 149.5,-57.5 24.5,-57.5"/>
<text text-anchor="start" x="32.5" y="-75.5" font-family="Helvetica,sans-Serif" font-size="10.00">magnumaf::Stochastic</text>
<text text-anchor="middle" x="87" y="-64.5" font-family="Helvetica,sans-Serif" font-size="10.00">_Integrator</text>
</a>
</g>
</g>
<!-- Node2&#45;&gt;Node1 -->
<g id="edge1" class="edge">
<title>Node2&#45;&gt;Node1</title>
<path fill="none" stroke="midnightblue" d="M87,-47.35C87,-37.51 87,-26.78 87,-19.54"/>
<polygon fill="midnightblue" stroke="midnightblue" points="83.5,-47.47 87,-57.47 90.5,-47.47 83.5,-47.47"/>
</g>
<!-- Node3 -->
<g id="node3" class="node">
<title>Node3</title>
<g id="a_node3"><a xlink:title=" ">
<polygon fill="none" stroke="#bfbfbf" points="0,-135.5 0,-165.5 174,-165.5 174,-135.5 0,-135.5"/>
<text text-anchor="start" x="8" y="-153.5" font-family="Helvetica,sans-Serif" font-size="10.00">std::vector&lt; std::unique</text>
<text text-anchor="middle" x="87" y="-142.5" font-family="Helvetica,sans-Serif" font-size="10.00">_ptr&lt; magnumaf::FieldTerm &gt; &gt;</text>
</a>
</g>
</g>
<!-- Node3&#45;&gt;Node2 -->
<g id="edge2" class="edge">
<title>Node3&#45;&gt;Node2</title>
<path fill="none" stroke="#9a32cd" stroke-dasharray="5,2" d="M87,-125.09C87,-112.76 87,-98.22 87,-87.73"/>
<polygon fill="#9a32cd" stroke="#9a32cd" points="83.5,-125.2 87,-135.2 90.5,-125.21 83.5,-125.2"/>
<text text-anchor="middle" x="114" y="-109" font-family="Helvetica,sans-Serif" font-size="10.00"> fieldterms</text>
</g>
<!-- Node4 -->
<g id="node4" class="node">
<title>Node4</title>
<g id="a_node4"><a xlink:title=" ">
<polygon fill="none" stroke="#bfbfbf" points="10,-213.5 10,-243.5 164,-243.5 164,-213.5 10,-213.5"/>
<text text-anchor="start" x="18" y="-231.5" font-family="Helvetica,sans-Serif" font-size="10.00">std::unique_ptr&lt; magnumaf</text>
<text text-anchor="middle" x="87" y="-220.5" font-family="Helvetica,sans-Serif" font-size="10.00">::FieldTerm &gt;</text>
</a>
</g>
</g>
<!-- Node4&#45;&gt;Node3 -->
<g id="edge3" class="edge">
<title>Node4&#45;&gt;Node3</title>
<path fill="none" stroke="#9a32cd" stroke-dasharray="5,2" d="M87,-203.09C87,-190.76 87,-176.22 87,-165.73"/>
<polygon fill="#9a32cd" stroke="#9a32cd" points="83.5,-203.2 87,-213.2 90.5,-203.21 83.5,-203.2"/>
<text text-anchor="middle" x="111.5" y="-187" font-family="Helvetica,sans-Serif" font-size="10.00"> elements</text>
</g>
</g>
</svg>
