<?xml version="1.0" encoding="UTF-8" standalone="no"?>
<!DOCTYPE svg PUBLIC "-//W3C//DTD SVG 1.1//EN"
 "http://www.w3.org/Graphics/SVG/1.1/DTD/svg11.dtd">
<!-- Generated by graphviz version 2.43.0 (0)
 -->
<!-- Title: magnumaf::AtomTerm Pages: 1 -->
<svg width="496pt" height="176pt"
 viewBox="0.00 0.00 496.00 176.00" xmlns="http://www.w3.org/2000/svg" xmlns:xlink="http://www.w3.org/1999/xlink">
<g id="graph0" class="graph" transform="scale(1 1) rotate(0) translate(4 172)">
<title>magnumaf::AtomTerm</title>
<!-- Node1 -->
<g id="node1" class="node">
<title>Node1</title>
<g id="a_node1"><a xlink:title=" ">
<polygon fill="#bfbfbf" stroke="black" points="158,-77 158,-96 283,-96 283,-77 158,-77"/>
<text text-anchor="middle" x="220.5" y="-84" font-family="Helvetica,sans-Serif" font-size="10.00">magnumaf::AtomTerm</text>
</a>
</g>
</g>
<!-- Node3 -->
<g id="node3" class="node">
<title>Node3</title>
<g id="a_node3"><a xlink:href="classmagnumaf_1_1AtomisticDipoleDipoleField.html" target="_top" xlink:title=" ">
<polygon fill="none" stroke="black" points="327,-137.5 327,-167.5 480,-167.5 480,-137.5 327,-137.5"/>
<text text-anchor="start" x="335" y="-155.5" font-family="Helvetica,sans-Serif" font-size="10.00">magnumaf::AtomisticDipole</text>
<text text-anchor="middle" x="403.5" y="-144.5" font-family="Helvetica,sans-Serif" font-size="10.00">DipoleField</text>
</a>
</g>
</g>
<!-- Node1&#45;&gt;Node3 -->
<g id="edge2" class="edge">
<title>Node1&#45;&gt;Node3</title>
<path fill="none" stroke="midnightblue" d="M251.91,-100.28C270.98,-108.67 296.19,-119.31 319,-127.5 328.69,-130.98 339.12,-134.37 349.21,-137.48"/>
<polygon fill="midnightblue" stroke="midnightblue" points="253.1,-96.98 242.54,-96.12 250.26,-103.38 253.1,-96.98"/>
</g>
<!-- Node4 -->
<g id="node4" class="node">
<title>Node4</title>
<g id="a_node4"><a xlink:href="classmagnumaf_1_1AtomisticDmiField.html" target="_top" xlink:title=" ">
<polygon fill="none" stroke="black" points="321.5,-99 321.5,-118 485.5,-118 485.5,-99 321.5,-99"/>
<text text-anchor="middle" x="403.5" y="-106" font-family="Helvetica,sans-Serif" font-size="10.00">magnumaf::AtomisticDmiField</text>
</a>
</g>
</g>
<!-- Node1&#45;&gt;Node4 -->
<g id="edge3" class="edge">
<title>Node1&#45;&gt;Node4</title>
<path fill="none" stroke="midnightblue" d="M293.1,-95.2C303.3,-96.44 313.83,-97.72 324.15,-98.98"/>
<polygon fill="midnightblue" stroke="midnightblue" points="293.38,-91.71 283.03,-93.98 292.54,-98.66 293.38,-91.71"/>
</g>
<!-- Node5 -->
<g id="node5" class="node">
<title>Node5</title>
<g id="a_node5"><a xlink:href="classmagnumaf_1_1AtomisticExchangeField.html" target="_top" xlink:title=" ">
<polygon fill="none" stroke="black" points="319,-49.5 319,-79.5 488,-79.5 488,-49.5 319,-49.5"/>
<text text-anchor="start" x="327" y="-67.5" font-family="Helvetica,sans-Serif" font-size="10.00">magnumaf::AtomisticExchange</text>
<text text-anchor="middle" x="403.5" y="-56.5" font-family="Helvetica,sans-Serif" font-size="10.00">Field</text>
</a>
</g>
</g>
<!-- Node1&#45;&gt;Node5 -->
<g id="edge4" class="edge">
<title>Node1&#45;&gt;Node5</title>
<path fill="none" stroke="midnightblue" d="M293.14,-77.79C301.53,-76.77 310.16,-75.72 318.7,-74.69"/>
<polygon fill="midnightblue" stroke="midnightblue" points="292.54,-74.34 283.03,-79.02 293.38,-81.29 292.54,-74.34"/>
</g>
<!-- Node6 -->
<g id="node6" class="node">
<title>Node6</title>
<g id="a_node6"><a xlink:href="classmagnumaf_1_1AtomisticUniaxialAnisotropyField.html" target="_top" xlink:title=" ">
<polygon fill="none" stroke="black" points="322.5,-0.5 322.5,-30.5 484.5,-30.5 484.5,-0.5 322.5,-0.5"/>
<text text-anchor="start" x="330.5" y="-18.5" font-family="Helvetica,sans-Serif" font-size="10.00">magnumaf::AtomisticUniaxial</text>
<text text-anchor="middle" x="403.5" y="-7.5" font-family="Helvetica,sans-Serif" font-size="10.00">AnisotropyField</text>
</a>
</g>
</g>
<!-- Node1&#45;&gt;Node6 -->
<g id="edge5" class="edge">
<title>Node1&#45;&gt;Node6</title>
<path fill="none" stroke="midnightblue" d="M248.15,-72.14C267.45,-62.11 294.37,-48.9 319,-39.5 327.31,-36.33 336.23,-33.34 345.03,-30.63"/>
<polygon fill="midnightblue" stroke="midnightblue" points="246.29,-69.16 239.07,-76.91 249.55,-75.35 246.29,-69.16"/>
</g>
<!-- Node2 -->
<g id="node2" class="node">
<title>Node2</title>
<g id="a_node2"><a xlink:href="classmagnumaf_1_1FieldTerm.html" target="_top" xlink:title=" ">
<polygon fill="none" stroke="black" points="0,-77 0,-96 122,-96 122,-77 0,-77"/>
<text text-anchor="middle" x="61" y="-84" font-family="Helvetica,sans-Serif" font-size="10.00">magnumaf::FieldTerm</text>
</a>
</g>
</g>
<!-- Node2&#45;&gt;Node1 -->
<g id="edge1" class="edge">
<title>Node2&#45;&gt;Node1</title>
<path fill="none" stroke="midnightblue" d="M132.64,-86.5C141.07,-86.5 149.63,-86.5 157.92,-86.5"/>
<polygon fill="midnightblue" stroke="midnightblue" points="132.44,-83 122.44,-86.5 132.44,-90 132.44,-83"/>
</g>
</g>
</svg>
