<?xml version="1.0" encoding="UTF-8" standalone="no"?>
<!DOCTYPE svg PUBLIC "-//W3C//DTD SVG 1.1//EN"
 "http://www.w3.org/Graphics/SVG/1.1/DTD/svg11.dtd">
<!-- Generated by graphviz version 2.43.0 (0)
 -->
<!-- Title: magnumaf::ExternalField Pages: 1 -->
<svg width="170pt" height="151pt"
 viewBox="0.00 0.00 170.00 151.00" xmlns="http://www.w3.org/2000/svg" xmlns:xlink="http://www.w3.org/1999/xlink">
<g id="graph0" class="graph" transform="scale(1 1) rotate(0) translate(4 147)">
<title>magnumaf::ExternalField</title>
<!-- Node1 -->
<g id="node1" class="node">
<title>Node1</title>
<g id="a_node1"><a xlink:title=" ">
<polygon fill="#bfbfbf" stroke="black" points="12,-67.5 12,-86.5 150,-86.5 150,-67.5 12,-67.5"/>
<text text-anchor="middle" x="81" y="-74.5" font-family="Helvetica,sans-Serif" font-size="10.00">magnumaf::ExternalField</text>
</a>
</g>
</g>
<!-- Node3 -->
<g id="node3" class="node">
<title>Node3</title>
<g id="a_node3"><a xlink:href="classmagnumaf_1_1AtomisticExternalField.html" target="_top" xlink:title=" ">
<polygon fill="none" stroke="black" points="0,-0.5 0,-30.5 162,-30.5 162,-0.5 0,-0.5"/>
<text text-anchor="start" x="8" y="-18.5" font-family="Helvetica,sans-Serif" font-size="10.00">magnumaf::AtomisticExternal</text>
<text text-anchor="middle" x="81" y="-7.5" font-family="Helvetica,sans-Serif" font-size="10.00">Field</text>
</a>
</g>
</g>
<!-- Node1&#45;&gt;Node3 -->
<g id="edge2" class="edge">
<title>Node1&#45;&gt;Node3</title>
<path fill="none" stroke="midnightblue" d="M81,-57.23C81,-48.59 81,-38.5 81,-30.52"/>
<polygon fill="midnightblue" stroke="midnightblue" points="77.5,-57.48 81,-67.48 84.5,-57.48 77.5,-57.48"/>
</g>
<!-- Node2 -->
<g id="node2" class="node">
<title>Node2</title>
<g id="a_node2"><a xlink:href="classmagnumaf_1_1FieldTerm.html" target="_top" xlink:title=" ">
<polygon fill="none" stroke="black" points="20,-123.5 20,-142.5 142,-142.5 142,-123.5 20,-123.5"/>
<text text-anchor="middle" x="81" y="-130.5" font-family="Helvetica,sans-Serif" font-size="10.00">magnumaf::FieldTerm</text>
</a>
</g>
</g>
<!-- Node2&#45;&gt;Node1 -->
<g id="edge1" class="edge">
<title>Node2&#45;&gt;Node1</title>
<path fill="none" stroke="midnightblue" d="M81,-112.8C81,-103.91 81,-93.78 81,-86.75"/>
<polygon fill="midnightblue" stroke="midnightblue" points="77.5,-113.08 81,-123.08 84.5,-113.08 77.5,-113.08"/>
</g>
</g>
</svg>
