<?xml version="1.0" encoding="UTF-8" standalone="no"?>
<!DOCTYPE svg PUBLIC "-//W3C//DTD SVG 1.1//EN"
 "http://www.w3.org/Graphics/SVG/1.1/DTD/svg11.dtd">
<!-- Generated by graphviz version 2.43.0 (0)
 -->
<!-- Title: magnumaf::FieldTerm Pages: 1 -->
<svg width="515pt" height="885pt"
 viewBox="0.00 0.00 515.00 885.00" xmlns="http://www.w3.org/2000/svg" xmlns:xlink="http://www.w3.org/1999/xlink">
<g id="graph0" class="graph" transform="scale(1 1) rotate(0) translate(4 881)">
<title>magnumaf::FieldTerm</title>
<!-- Node1 -->
<g id="node1" class="node">
<title>Node1</title>
<g id="a_node1"><a xlink:title=" ">
<polygon fill="#bfbfbf" stroke="black" points="0,-557 0,-576 122,-576 122,-557 0,-557"/>
<text text-anchor="middle" x="61" y="-564" font-family="Helvetica,sans-Serif" font-size="10.00">magnumaf::FieldTerm</text>
</a>
</g>
</g>
<!-- Node2 -->
<g id="node2" class="node">
<title>Node2</title>
<g id="a_node2"><a xlink:href="classmagnumaf_1_1AtomTerm.html" target="_top" xlink:title=" ">
<polygon fill="none" stroke="black" points="165.5,-764 165.5,-783 290.5,-783 290.5,-764 165.5,-764"/>
<text text-anchor="middle" x="228" y="-771" font-family="Helvetica,sans-Serif" font-size="10.00">magnumaf::AtomTerm</text>
</a>
</g>
</g>
<!-- Node1&#45;&gt;Node2 -->
<g id="edge1" class="edge">
<title>Node1&#45;&gt;Node2</title>
<path fill="none" stroke="midnightblue" d="M76.08,-584.17C109.55,-626.16 193.01,-730.86 219.09,-763.57"/>
<polygon fill="midnightblue" stroke="midnightblue" points="78.71,-581.84 69.74,-576.21 73.23,-586.21 78.71,-581.84"/>
</g>
<!-- Node7 -->
<g id="node7" class="node">
<title>Node7</title>
<g id="a_node7"><a xlink:href="classmagnumaf_1_1ExternalField.html" target="_top" xlink:title=" ">
<polygon fill="none" stroke="black" points="159,-602 159,-621 297,-621 297,-602 159,-602"/>
<text text-anchor="middle" x="228" y="-609" font-family="Helvetica,sans-Serif" font-size="10.00">magnumaf::ExternalField</text>
</a>
</g>
</g>
<!-- Node1&#45;&gt;Node7 -->
<g id="edge6" class="edge">
<title>Node1&#45;&gt;Node7</title>
<path fill="none" stroke="midnightblue" d="M106.9,-578.75C133.7,-586.06 167.24,-595.2 192.06,-601.97"/>
<polygon fill="midnightblue" stroke="midnightblue" points="107.56,-575.3 96.99,-576.04 105.72,-582.05 107.56,-575.3"/>
</g>
<!-- Node9 -->
<g id="node9" class="node">
<title>Node9</title>
<g id="a_node9"><a xlink:href="classmagnumaf_1_1MicroTerm.html" target="_top" xlink:title=" ">
<polygon fill="none" stroke="black" points="165,-429 165,-448 291,-448 291,-429 165,-429"/>
<text text-anchor="middle" x="228" y="-436" font-family="Helvetica,sans-Serif" font-size="10.00">magnumaf::MicroTerm</text>
</a>
</g>
</g>
<!-- Node1&#45;&gt;Node9 -->
<g id="edge8" class="edge">
<title>Node1&#45;&gt;Node9</title>
<path fill="none" stroke="midnightblue" d="M82.4,-550.67C116.99,-523.84 186.13,-470.21 214.45,-448.23"/>
<polygon fill="midnightblue" stroke="midnightblue" points="80.16,-547.98 74.4,-556.88 84.45,-553.52 80.16,-547.98"/>
</g>
<!-- Node21 -->
<g id="node21" class="node">
<title>Node21</title>
<g id="a_node21"><a xlink:href="classmagnumaf_1_1NonequiTerm.html" target="_top" xlink:title=" ">
<polygon fill="none" stroke="black" points="158,-104 158,-123 298,-123 298,-104 158,-104"/>
<text text-anchor="middle" x="228" y="-111" font-family="Helvetica,sans-Serif" font-size="10.00">magnumaf::NonequiTerm</text>
</a>
</g>
</g>
<!-- Node1&#45;&gt;Node21 -->
<g id="edge20" class="edge">
<title>Node1&#45;&gt;Node21</title>
<path fill="none" stroke="midnightblue" d="M69.08,-547.05C97.51,-469.02 202.74,-180.12 223.45,-123.25"/>
<polygon fill="midnightblue" stroke="midnightblue" points="65.73,-546.02 65.6,-556.62 72.31,-548.42 65.73,-546.02"/>
</g>
<!-- Node3 -->
<g id="node3" class="node">
<title>Node3</title>
<g id="a_node3"><a xlink:href="classmagnumaf_1_1AtomisticDipoleDipoleField.html" target="_top" xlink:title=" ">
<polygon fill="none" stroke="black" points="344,-846.5 344,-876.5 497,-876.5 497,-846.5 344,-846.5"/>
<text text-anchor="start" x="352" y="-864.5" font-family="Helvetica,sans-Serif" font-size="10.00">magnumaf::AtomisticDipole</text>
<text text-anchor="middle" x="420.5" y="-853.5" font-family="Helvetica,sans-Serif" font-size="10.00">DipoleField</text>
</a>
</g>
</g>
<!-- Node2&#45;&gt;Node3 -->
<g id="edge2" class="edge">
<title>Node2&#45;&gt;Node3</title>
<path fill="none" stroke="midnightblue" d="M250.67,-788.76C271.3,-802.74 303.63,-823.21 334,-836.5 342.36,-840.16 351.41,-843.46 360.38,-846.37"/>
<polygon fill="midnightblue" stroke="midnightblue" points="252.55,-785.81 242.32,-783.03 248.58,-791.58 252.55,-785.81"/>
</g>
<!-- Node4 -->
<g id="node4" class="node">
<title>Node4</title>
<g id="a_node4"><a xlink:href="classmagnumaf_1_1AtomisticDmiField.html" target="_top" xlink:title=" ">
<polygon fill="none" stroke="black" points="338.5,-808 338.5,-827 502.5,-827 502.5,-808 338.5,-808"/>
<text text-anchor="middle" x="420.5" y="-815" font-family="Helvetica,sans-Serif" font-size="10.00">magnumaf::AtomisticDmiField</text>
</a>
</g>
</g>
<!-- Node2&#45;&gt;Node4 -->
<g id="edge3" class="edge">
<title>Node2&#45;&gt;Node4</title>
<path fill="none" stroke="midnightblue" d="M278.39,-785.42C295.93,-789.61 315.83,-794.32 334,-798.5 347.63,-801.64 362.51,-804.97 375.98,-807.96"/>
<polygon fill="midnightblue" stroke="midnightblue" points="278.9,-781.94 268.36,-783.02 277.27,-788.75 278.9,-781.94"/>
</g>
<!-- Node5 -->
<g id="node5" class="node">
<title>Node5</title>
<g id="a_node5"><a xlink:href="classmagnumaf_1_1AtomisticExchangeField.html" target="_top" xlink:title=" ">
<polygon fill="none" stroke="black" points="336,-758.5 336,-788.5 505,-788.5 505,-758.5 336,-758.5"/>
<text text-anchor="start" x="344" y="-776.5" font-family="Helvetica,sans-Serif" font-size="10.00">magnumaf::AtomisticExchange</text>
<text text-anchor="middle" x="420.5" y="-765.5" font-family="Helvetica,sans-Serif" font-size="10.00">Field</text>
</a>
</g>
</g>
<!-- Node2&#45;&gt;Node5 -->
<g id="edge4" class="edge">
<title>Node2&#45;&gt;Node5</title>
<path fill="none" stroke="midnightblue" d="M300.93,-773.5C312.36,-773.5 324.26,-773.5 335.93,-773.5"/>
<polygon fill="midnightblue" stroke="midnightblue" points="300.59,-770 290.59,-773.5 300.59,-777 300.59,-770"/>
</g>
<!-- Node6 -->
<g id="node6" class="node">
<title>Node6</title>
<g id="a_node6"><a xlink:href="classmagnumaf_1_1AtomisticUniaxialAnisotropyField.html" target="_top" xlink:title=" ">
<polygon fill="none" stroke="black" points="339.5,-709.5 339.5,-739.5 501.5,-739.5 501.5,-709.5 339.5,-709.5"/>
<text text-anchor="start" x="347.5" y="-727.5" font-family="Helvetica,sans-Serif" font-size="10.00">magnumaf::AtomisticUniaxial</text>
<text text-anchor="middle" x="420.5" y="-716.5" font-family="Helvetica,sans-Serif" font-size="10.00">AnisotropyField</text>
</a>
</g>
</g>
<!-- Node2&#45;&gt;Node6 -->
<g id="edge5" class="edge">
<title>Node2&#45;&gt;Node6</title>
<path fill="none" stroke="midnightblue" d="M276.05,-761.4C301.73,-754.79 333.76,-746.55 361.04,-739.54"/>
<polygon fill="midnightblue" stroke="midnightblue" points="275,-758.06 266.18,-763.94 276.74,-764.83 275,-758.06"/>
</g>
<!-- Node8 -->
<g id="node8" class="node">
<title>Node8</title>
<g id="a_node8"><a xlink:href="classmagnumaf_1_1AtomisticExternalField.html" target="_top" xlink:title=" ">
<polygon fill="none" stroke="black" points="339.5,-660.5 339.5,-690.5 501.5,-690.5 501.5,-660.5 339.5,-660.5"/>
<text text-anchor="start" x="347.5" y="-678.5" font-family="Helvetica,sans-Serif" font-size="10.00">magnumaf::AtomisticExternal</text>
<text text-anchor="middle" x="420.5" y="-667.5" font-family="Helvetica,sans-Serif" font-size="10.00">Field</text>
</a>
</g>
</g>
<!-- Node7&#45;&gt;Node8 -->
<g id="edge7" class="edge">
<title>Node7&#45;&gt;Node8</title>
<path fill="none" stroke="midnightblue" d="M261.67,-624.82C282.25,-632.99 309.48,-643.41 334,-651.5 343.37,-654.59 353.4,-657.64 363.17,-660.47"/>
<polygon fill="midnightblue" stroke="midnightblue" points="262.72,-621.47 252.14,-621.01 260.12,-627.97 262.72,-621.47"/>
</g>
<!-- Node10 -->
<g id="node10" class="node">
<title>Node10</title>
<g id="a_node10"><a xlink:href="classmagnumaf_1_1BulkDMIExchangeField.html" target="_top" xlink:title="Combined bulk DMI and exchange Field.">
<polygon fill="none" stroke="black" points="338.5,-611.5 338.5,-641.5 502.5,-641.5 502.5,-611.5 338.5,-611.5"/>
<text text-anchor="start" x="346.5" y="-629.5" font-family="Helvetica,sans-Serif" font-size="10.00">magnumaf::BulkDMIExchange</text>
<text text-anchor="middle" x="420.5" y="-618.5" font-family="Helvetica,sans-Serif" font-size="10.00">Field</text>
</a>
</g>
</g>
<!-- Node9&#45;&gt;Node10 -->
<g id="edge9" class="edge">
<title>Node9&#45;&gt;Node10</title>
<path fill="none" stroke="midnightblue" d="M235.98,-457.79C249.44,-492.21 282.3,-564.21 334,-602.5 338.58,-605.9 343.63,-608.81 348.91,-611.31"/>
<polygon fill="midnightblue" stroke="midnightblue" points="239.24,-456.51 232.43,-448.39 232.69,-458.98 239.24,-456.51"/>
</g>
<!-- Node11 -->
<g id="node11" class="node">
<title>Node11</title>
<g id="a_node11"><a xlink:href="classmagnumaf_1_1CubicAnisotropyField.html" target="_top" xlink:title=" ">
<polygon fill="none" stroke="black" points="343,-562.5 343,-592.5 498,-592.5 498,-562.5 343,-562.5"/>
<text text-anchor="start" x="351" y="-580.5" font-family="Helvetica,sans-Serif" font-size="10.00">magnumaf::CubicAnisotropy</text>
<text text-anchor="middle" x="420.5" y="-569.5" font-family="Helvetica,sans-Serif" font-size="10.00">Field</text>
</a>
</g>
</g>
<!-- Node9&#45;&gt;Node11 -->
<g id="edge10" class="edge">
<title>Node9&#45;&gt;Node11</title>
<path fill="none" stroke="midnightblue" d="M240.9,-456.67C258.35,-481.88 293.25,-527.21 334,-552.5 340.18,-556.33 346.97,-559.6 353.94,-562.38"/>
<polygon fill="midnightblue" stroke="midnightblue" points="243.59,-454.4 235.09,-448.08 237.79,-458.32 243.59,-454.4"/>
</g>
<!-- Node12 -->
<g id="node12" class="node">
<title>Node12</title>
<g id="a_node12"><a xlink:href="classmagnumaf_1_1DemagField.html" target="_top" xlink:title=" ">
<polygon fill="none" stroke="black" points="354,-524 354,-543 487,-543 487,-524 354,-524"/>
<text text-anchor="middle" x="420.5" y="-531" font-family="Helvetica,sans-Serif" font-size="10.00">magnumaf::DemagField</text>
</a>
</g>
</g>
<!-- Node9&#45;&gt;Node12 -->
<g id="edge11" class="edge">
<title>Node9&#45;&gt;Node12</title>
<path fill="none" stroke="midnightblue" d="M246.71,-454.87C266.51,-472.27 300.24,-499.32 334,-514.5 342.6,-518.37 352.05,-521.47 361.43,-523.96"/>
<polygon fill="midnightblue" stroke="midnightblue" points="248.91,-452.13 239.12,-448.07 244.23,-457.35 248.91,-452.13"/>
</g>
<!-- Node13 -->
<g id="node13" class="node">
<title>Node13</title>
<g id="a_node13"><a xlink:href="classmagnumaf_1_1DemagFieldPBC.html" target="_top" xlink:title=" ">
<polygon fill="none" stroke="black" points="344.5,-486 344.5,-505 496.5,-505 496.5,-486 344.5,-486"/>
<text text-anchor="middle" x="420.5" y="-493" font-family="Helvetica,sans-Serif" font-size="10.00">magnumaf::DemagFieldPBC</text>
</a>
</g>
</g>
<!-- Node9&#45;&gt;Node13 -->
<g id="edge12" class="edge">
<title>Node9&#45;&gt;Node13</title>
<path fill="none" stroke="midnightblue" d="M262.39,-451.83C282.84,-459.68 309.68,-469.43 334,-476.5 345.97,-479.98 359.05,-483.18 371.29,-485.92"/>
<polygon fill="midnightblue" stroke="midnightblue" points="263.49,-448.5 252.9,-448.15 260.95,-455.03 263.49,-448.5"/>
</g>
<!-- Node14 -->
<g id="node14" class="node">
<title>Node14</title>
<g id="a_node14"><a xlink:href="classmagnumaf_1_1DmiField.html" target="_top" xlink:title=" ">
<polygon fill="none" stroke="black" points="361.5,-448 361.5,-467 479.5,-467 479.5,-448 361.5,-448"/>
<text text-anchor="middle" x="420.5" y="-455" font-family="Helvetica,sans-Serif" font-size="10.00">magnumaf::DmiField</text>
</a>
</g>
</g>
<!-- Node9&#45;&gt;Node14 -->
<g id="edge13" class="edge">
<title>Node9&#45;&gt;Node14</title>
<path fill="none" stroke="midnightblue" d="M301.07,-445.69C320.98,-447.67 342.33,-449.8 361.35,-451.7"/>
<polygon fill="midnightblue" stroke="midnightblue" points="301.41,-442.2 291.11,-444.7 300.72,-449.17 301.41,-442.2"/>
</g>
<!-- Node15 -->
<g id="node15" class="node">
<title>Node15</title>
<g id="a_node15"><a xlink:href="classmagnumaf_1_1ExchangeField.html" target="_top" xlink:title=" ">
<polygon fill="none" stroke="black" points="348,-410 348,-429 493,-429 493,-410 348,-410"/>
<text text-anchor="middle" x="420.5" y="-417" font-family="Helvetica,sans-Serif" font-size="10.00">magnumaf::ExchangeField</text>
</a>
</g>
</g>
<!-- Node9&#45;&gt;Node15 -->
<g id="edge14" class="edge">
<title>Node9&#45;&gt;Node15</title>
<path fill="none" stroke="midnightblue" d="M301.49,-431.27C316.69,-429.75 332.71,-428.16 347.88,-426.64"/>
<polygon fill="midnightblue" stroke="midnightblue" points="300.72,-427.83 291.11,-432.3 301.41,-434.8 300.72,-427.83"/>
</g>
<!-- Node16 -->
<g id="node16" class="node">
<title>Node16</title>
<g id="a_node16"><a xlink:href="classmagnumaf_1_1ExchangeFieldPBC.html" target="_top" xlink:title=" ">
<polygon fill="none" stroke="black" points="338.5,-372 338.5,-391 502.5,-391 502.5,-372 338.5,-372"/>
<text text-anchor="middle" x="420.5" y="-379" font-family="Helvetica,sans-Serif" font-size="10.00">magnumaf::ExchangeFieldPBC</text>
</a>
</g>
</g>
<!-- Node9&#45;&gt;Node16 -->
<g id="edge15" class="edge">
<title>Node9&#45;&gt;Node16</title>
<path fill="none" stroke="midnightblue" d="M262.39,-425.17C282.84,-417.32 309.68,-407.57 334,-400.5 345.97,-397.02 359.05,-393.82 371.29,-391.08"/>
<polygon fill="midnightblue" stroke="midnightblue" points="260.95,-421.97 252.9,-428.85 263.49,-428.5 260.95,-421.97"/>
</g>
<!-- Node17 -->
<g id="node17" class="node">
<title>Node17</title>
<g id="a_node17"><a xlink:href="classmagnumaf_1_1RKKYExchangeField.html" target="_top" xlink:title="Combined Field for RKKY interaction between z&#45;neighbour&#45;cells and exchange interaction between not&#45;RK...">
<polygon fill="none" stroke="black" points="335,-334 335,-353 506,-353 506,-334 335,-334"/>
<text text-anchor="middle" x="420.5" y="-341" font-family="Helvetica,sans-Serif" font-size="10.00">magnumaf::RKKYExchangeField</text>
</a>
</g>
</g>
<!-- Node9&#45;&gt;Node17 -->
<g id="edge16" class="edge">
<title>Node9&#45;&gt;Node17</title>
<path fill="none" stroke="midnightblue" d="M246.71,-422.13C266.51,-404.73 300.24,-377.68 334,-362.5 342.6,-358.63 352.05,-355.53 361.43,-353.04"/>
<polygon fill="midnightblue" stroke="midnightblue" points="244.23,-419.65 239.12,-428.93 248.91,-424.87 244.23,-419.65"/>
</g>
<!-- Node18 -->
<g id="node18" class="node">
<title>Node18</title>
<g id="a_node18"><a xlink:href="classmagnumaf_1_1SparseExchangeField.html" target="_top" xlink:title=" ">
<polygon fill="none" stroke="black" points="343,-284.5 343,-314.5 498,-314.5 498,-284.5 343,-284.5"/>
<text text-anchor="start" x="351" y="-302.5" font-family="Helvetica,sans-Serif" font-size="10.00">magnumaf::SparseExchange</text>
<text text-anchor="middle" x="420.5" y="-291.5" font-family="Helvetica,sans-Serif" font-size="10.00">Field</text>
</a>
</g>
</g>
<!-- Node9&#45;&gt;Node18 -->
<g id="edge17" class="edge">
<title>Node9&#45;&gt;Node18</title>
<path fill="none" stroke="midnightblue" d="M240.9,-420.33C258.35,-395.12 293.25,-349.79 334,-324.5 340.18,-320.67 346.97,-317.4 353.94,-314.62"/>
<polygon fill="midnightblue" stroke="midnightblue" points="237.79,-418.68 235.09,-428.92 243.59,-422.6 237.79,-418.68"/>
</g>
<!-- Node19 -->
<g id="node19" class="node">
<title>Node19</title>
<g id="a_node19"><a xlink:href="classmagnumaf_1_1SpinTransferTorqueField.html" target="_top" xlink:title="Slonczewski Spin Transfer Torque model.">
<polygon fill="none" stroke="black" points="336.5,-235.5 336.5,-265.5 504.5,-265.5 504.5,-235.5 336.5,-235.5"/>
<text text-anchor="start" x="344.5" y="-253.5" font-family="Helvetica,sans-Serif" font-size="10.00">magnumaf::SpinTransferTorque</text>
<text text-anchor="middle" x="420.5" y="-242.5" font-family="Helvetica,sans-Serif" font-size="10.00">Field</text>
</a>
</g>
</g>
<!-- Node9&#45;&gt;Node19 -->
<g id="edge18" class="edge">
<title>Node9&#45;&gt;Node19</title>
<path fill="none" stroke="midnightblue" d="M236.23,-418.94C249.92,-384.64 282.89,-313.67 334,-275.5 339.2,-271.61 345,-268.33 351.06,-265.55"/>
<polygon fill="midnightblue" stroke="midnightblue" points="232.8,-418.11 232.47,-428.7 239.33,-420.63 232.8,-418.11"/>
</g>
<!-- Node20 -->
<g id="node20" class="node">
<title>Node20</title>
<g id="a_node20"><a xlink:href="classmagnumaf_1_1UniaxialAnisotropyField.html" target="_top" xlink:title=" ">
<polygon fill="none" stroke="black" points="336.5,-186.5 336.5,-216.5 504.5,-216.5 504.5,-186.5 336.5,-186.5"/>
<text text-anchor="start" x="344.5" y="-204.5" font-family="Helvetica,sans-Serif" font-size="10.00">magnumaf::UniaxialAnisotropy</text>
<text text-anchor="middle" x="420.5" y="-193.5" font-family="Helvetica,sans-Serif" font-size="10.00">Field</text>
</a>
</g>
</g>
<!-- Node9&#45;&gt;Node20 -->
<g id="edge19" class="edge">
<title>Node9&#45;&gt;Node20</title>
<path fill="none" stroke="midnightblue" d="M233.15,-418.74C242.99,-376.85 271.72,-278.71 334,-226.5 338.62,-222.63 343.82,-219.35 349.31,-216.58"/>
<polygon fill="midnightblue" stroke="midnightblue" points="229.68,-418.24 230.91,-428.76 236.51,-419.77 229.68,-418.24"/>
</g>
<!-- Node22 -->
<g id="node22" class="node">
<title>Node22</title>
<g id="a_node22"><a xlink:href="classmagnumaf_1_1NonequiDemagField.html" target="_top" xlink:title=" ">
<polygon fill="none" stroke="black" points="334,-148 334,-167 507,-167 507,-148 334,-148"/>
<text text-anchor="middle" x="420.5" y="-155" font-family="Helvetica,sans-Serif" font-size="10.00">magnumaf::NonequiDemagField</text>
</a>
</g>
</g>
<!-- Node21&#45;&gt;Node22 -->
<g id="edge21" class="edge">
<title>Node21&#45;&gt;Node22</title>
<path fill="none" stroke="midnightblue" d="M278.39,-125.42C295.93,-129.61 315.83,-134.32 334,-138.5 347.63,-141.64 362.51,-144.97 375.98,-147.96"/>
<polygon fill="midnightblue" stroke="midnightblue" points="278.9,-121.94 268.36,-123.02 277.27,-128.75 278.9,-121.94"/>
</g>
<!-- Node23 -->
<g id="node23" class="node">
<title>Node23</title>
<g id="a_node23"><a xlink:href="classmagnumaf_1_1NonequiExchangeField.html" target="_top" xlink:title="Nonequispaced Exchange Field.">
<polygon fill="none" stroke="black" points="339,-98.5 339,-128.5 502,-128.5 502,-98.5 339,-98.5"/>
<text text-anchor="start" x="347" y="-116.5" font-family="Helvetica,sans-Serif" font-size="10.00">magnumaf::NonequiExchange</text>
<text text-anchor="middle" x="420.5" y="-105.5" font-family="Helvetica,sans-Serif" font-size="10.00">Field</text>
</a>
</g>
</g>
<!-- Node21&#45;&gt;Node23 -->
<g id="edge22" class="edge">
<title>Node21&#45;&gt;Node23</title>
<path fill="none" stroke="midnightblue" d="M308.07,-113.5C318.19,-113.5 328.56,-113.5 338.71,-113.5"/>
<polygon fill="midnightblue" stroke="midnightblue" points="308.04,-110 298.04,-113.5 308.04,-117 308.04,-110"/>
</g>
<!-- Node24 -->
<g id="node24" class="node">
<title>Node24</title>
<g id="a_node24"><a xlink:href="classmagnumaf_1_1NonequiExternalField.html" target="_top" xlink:title=" ">
<polygon fill="none" stroke="black" points="342.5,-49.5 342.5,-79.5 498.5,-79.5 498.5,-49.5 342.5,-49.5"/>
<text text-anchor="start" x="350.5" y="-67.5" font-family="Helvetica,sans-Serif" font-size="10.00">magnumaf::NonequiExternal</text>
<text text-anchor="middle" x="420.5" y="-56.5" font-family="Helvetica,sans-Serif" font-size="10.00">Field</text>
</a>
</g>
</g>
<!-- Node21&#45;&gt;Node24 -->
<g id="edge23" class="edge">
<title>Node21&#45;&gt;Node24</title>
<path fill="none" stroke="midnightblue" d="M276.05,-101.4C301.73,-94.79 333.76,-86.55 361.04,-79.54"/>
<polygon fill="midnightblue" stroke="midnightblue" points="275,-98.06 266.18,-103.94 276.74,-104.83 275,-98.06"/>
</g>
<!-- Node25 -->
<g id="node25" class="node">
<title>Node25</title>
<g id="a_node25"><a xlink:href="classmagnumaf_1_1NonequiUniaxialAnisotropyField.html" target="_top" xlink:title=" ">
<polygon fill="none" stroke="black" points="342.5,-0.5 342.5,-30.5 498.5,-30.5 498.5,-0.5 342.5,-0.5"/>
<text text-anchor="start" x="350.5" y="-18.5" font-family="Helvetica,sans-Serif" font-size="10.00">magnumaf::NonequiUniaxial</text>
<text text-anchor="middle" x="420.5" y="-7.5" font-family="Helvetica,sans-Serif" font-size="10.00">AnisotropyField</text>
</a>
</g>
</g>
<!-- Node21&#45;&gt;Node25 -->
<g id="edge24" class="edge">
<title>Node21&#45;&gt;Node25</title>
<path fill="none" stroke="midnightblue" d="M248,-97.44C268.17,-81.09 301.58,-56 334,-40.5 341.81,-36.76 350.3,-33.47 358.79,-30.59"/>
<polygon fill="midnightblue" stroke="midnightblue" points="245.69,-94.8 240.2,-103.86 250.14,-100.2 245.69,-94.8"/>
</g>
</g>
</svg>
