<?xml version="1.0" encoding="UTF-8" standalone="no"?>
<!DOCTYPE svg PUBLIC "-//W3C//DTD SVG 1.1//EN"
 "http://www.w3.org/Graphics/SVG/1.1/DTD/svg11.dtd">
<!-- Generated by graphviz version 2.43.0 (0)
 -->
<!-- Title: magnumaf::State Pages: 1 -->
<svg width="109pt" height="184pt"
 viewBox="0.00 0.00 109.00 184.00" xmlns="http://www.w3.org/2000/svg" xmlns:xlink="http://www.w3.org/1999/xlink">
<g id="graph0" class="graph" transform="scale(1 1) rotate(0) translate(4 180)">
<title>magnumaf::State</title>
<!-- Node1 -->
<g id="node1" class="node">
<title>Node1</title>
<g id="a_node1"><a xlink:title=" ">
<polygon fill="#bfbfbf" stroke="black" points="0,-0.5 0,-19.5 101,-19.5 101,-0.5 0,-0.5"/>
<text text-anchor="middle" x="50.5" y="-7.5" font-family="Helvetica,sans-Serif" font-size="10.00">magnumaf::State</text>
</a>
</g>
</g>
<!-- Node2 -->
<g id="node2" class="node">
<title>Node2</title>
<g id="a_node2"><a xlink:href="structmagnumaf_1_1Mesh.html" target="_top" xlink:title=" ">
<polygon fill="none" stroke="black" points="0,-67.5 0,-86.5 101,-86.5 101,-67.5 0,-67.5"/>
<text text-anchor="middle" x="50.5" y="-74.5" font-family="Helvetica,sans-Serif" font-size="10.00">magnumaf::Mesh</text>
</a>
</g>
</g>
<!-- Node2&#45;&gt;Node1 -->
<g id="edge1" class="edge">
<title>Node2&#45;&gt;Node1</title>
<path fill="none" stroke="#9a32cd" stroke-dasharray="5,2" d="M50.5,-57.04C50.5,-44.67 50.5,-29.12 50.5,-19.63"/>
<polygon fill="#9a32cd" stroke="#9a32cd" points="47,-57.23 50.5,-67.23 54,-57.23 47,-57.23"/>
<text text-anchor="middle" x="66" y="-41" font-family="Helvetica,sans-Serif" font-size="10.00"> mesh</text>
</g>
<!-- Node3 -->
<g id="node3" class="node">
<title>Node3</title>
<g id="a_node3"><a xlink:title=" ">
<polygon fill="none" stroke="#bfbfbf" points="28,-156.5 28,-175.5 73,-175.5 73,-156.5 28,-156.5"/>
<text text-anchor="middle" x="50.5" y="-163.5" font-family="Helvetica,sans-Serif" font-size="10.00">size_t</text>
</a>
</g>
</g>
<!-- Node3&#45;&gt;Node2 -->
<g id="edge2" class="edge">
<title>Node3&#45;&gt;Node2</title>
<path fill="none" stroke="#9a32cd" stroke-dasharray="5,2" d="M50.5,-146.19C50.5,-127.74 50.5,-100.41 50.5,-86.62"/>
<polygon fill="#9a32cd" stroke="#9a32cd" points="47,-146.34 50.5,-156.34 54,-146.34 47,-146.34"/>
<text text-anchor="middle" x="58.5" y="-130" font-family="Helvetica,sans-Serif" font-size="10.00"> nx</text>
<text text-anchor="middle" x="58.5" y="-119" font-family="Helvetica,sans-Serif" font-size="10.00">ny</text>
<text text-anchor="middle" x="58.5" y="-108" font-family="Helvetica,sans-Serif" font-size="10.00">nz</text>
</g>
</g>
</svg>
