<?xml version="1.0" encoding="UTF-8" standalone="no"?>
<!DOCTYPE svg PUBLIC "-//W3C//DTD SVG 1.1//EN"
 "http://www.w3.org/Graphics/SVG/1.1/DTD/svg11.dtd">
<!-- Generated by graphviz version 2.43.0 (0)
 -->
<!-- Title: magnumaf::NonequiTerm Pages: 1 -->
<svg width="333pt" height="184pt"
 viewBox="0.00 0.00 333.00 184.00" xmlns="http://www.w3.org/2000/svg" xmlns:xlink="http://www.w3.org/1999/xlink">
<g id="graph0" class="graph" transform="scale(1 1) rotate(0) translate(4 180)">
<title>magnumaf::NonequiTerm</title>
<!-- Node1 -->
<g id="node1" class="node">
<title>Node1</title>
<g id="a_node1"><a xlink:title=" ">
<polygon fill="#bfbfbf" stroke="black" points="7,-0.5 7,-19.5 147,-19.5 147,-0.5 7,-0.5"/>
<text text-anchor="middle" x="77" y="-7.5" font-family="Helvetica,sans-Serif" font-size="10.00">magnumaf::NonequiTerm</text>
</a>
</g>
</g>
<!-- Node2 -->
<g id="node2" class="node">
<title>Node2</title>
<g id="a_node2"><a xlink:href="classmagnumaf_1_1FieldTerm.html" target="_top" xlink:title=" ">
<polygon fill="none" stroke="black" points="0,-67.5 0,-86.5 122,-86.5 122,-67.5 0,-67.5"/>
<text text-anchor="middle" x="61" y="-74.5" font-family="Helvetica,sans-Serif" font-size="10.00">magnumaf::FieldTerm</text>
</a>
</g>
</g>
<!-- Node2&#45;&gt;Node1 -->
<g id="edge1" class="edge">
<title>Node2&#45;&gt;Node1</title>
<path fill="none" stroke="midnightblue" d="M65.57,-57.41C68.63,-44.99 72.52,-29.22 74.88,-19.63"/>
<polygon fill="midnightblue" stroke="midnightblue" points="62.15,-56.69 63.16,-67.23 68.95,-58.36 62.15,-56.69"/>
</g>
<!-- Node3 -->
<g id="node3" class="node">
<title>Node3</title>
<g id="a_node3"><a xlink:href="structmagnumaf_1_1NonequiMesh.html" target="_top" xlink:title=" ">
<polygon fill="none" stroke="black" points="140,-67.5 140,-86.5 282,-86.5 282,-67.5 140,-67.5"/>
<text text-anchor="middle" x="211" y="-74.5" font-family="Helvetica,sans-Serif" font-size="10.00">magnumaf::NonequiMesh</text>
</a>
</g>
</g>
<!-- Node3&#45;&gt;Node1 -->
<g id="edge2" class="edge">
<title>Node3&#45;&gt;Node1</title>
<path fill="none" stroke="#9a32cd" stroke-dasharray="5,2" d="M184.08,-62.94C157.54,-50.07 117.73,-30.76 94.87,-19.67"/>
<polygon fill="#9a32cd" stroke="#9a32cd" points="182.68,-66.15 193.21,-67.37 185.74,-59.85 182.68,-66.15"/>
<text text-anchor="middle" x="174.5" y="-41" font-family="Helvetica,sans-Serif" font-size="10.00"> nemesh</text>
</g>
<!-- Node4 -->
<g id="node4" class="node">
<title>Node4</title>
<g id="a_node4"><a xlink:title=" ">
<polygon fill="none" stroke="#bfbfbf" points="137.5,-156.5 137.5,-175.5 182.5,-175.5 182.5,-156.5 137.5,-156.5"/>
<text text-anchor="middle" x="160" y="-163.5" font-family="Helvetica,sans-Serif" font-size="10.00">size_t</text>
</a>
</g>
</g>
<!-- Node4&#45;&gt;Node3 -->
<g id="edge3" class="edge">
<title>Node4&#45;&gt;Node3</title>
<path fill="none" stroke="#9a32cd" stroke-dasharray="5,2" d="M170.27,-147.49C181.08,-129.03 197.67,-100.74 205.94,-86.62"/>
<polygon fill="#9a32cd" stroke="#9a32cd" points="167.11,-145.94 165.08,-156.34 173.15,-149.48 167.11,-145.94"/>
<text text-anchor="middle" x="203" y="-130" font-family="Helvetica,sans-Serif" font-size="10.00"> nx</text>
<text text-anchor="middle" x="203" y="-119" font-family="Helvetica,sans-Serif" font-size="10.00">ny</text>
<text text-anchor="middle" x="203" y="-108" font-family="Helvetica,sans-Serif" font-size="10.00">nz</text>
</g>
<!-- Node5 -->
<g id="node5" class="node">
<title>Node5</title>
<g id="a_node5"><a xlink:title=" ">
<polygon fill="none" stroke="#bfbfbf" points="201,-156.5 201,-175.5 325,-175.5 325,-156.5 201,-156.5"/>
<text text-anchor="middle" x="263" y="-163.5" font-family="Helvetica,sans-Serif" font-size="10.00">std::vector&lt; double &gt;</text>
</a>
</g>
</g>
<!-- Node5&#45;&gt;Node3 -->
<g id="edge4" class="edge">
<title>Node5&#45;&gt;Node3</title>
<path fill="none" stroke="#9a32cd" stroke-dasharray="5,2" d="M252.68,-147.74C241.66,-129.3 224.63,-100.8 216.16,-86.62"/>
<polygon fill="#9a32cd" stroke="#9a32cd" points="249.69,-149.55 257.82,-156.34 255.7,-145.96 249.69,-149.55"/>
<text text-anchor="middle" x="272" y="-119" font-family="Helvetica,sans-Serif" font-size="10.00"> z_spacing</text>
</g>
</g>
</svg>
