<?xml version="1.0" encoding="UTF-8" standalone="no"?>
<!DOCTYPE svg PUBLIC "-//W3C//DTD SVG 1.1//EN"
 "http://www.w3.org/Graphics/SVG/1.1/DTD/svg11.dtd">
<!-- Generated by graphviz version 2.43.0 (0)
 -->
<!-- Title: magnumaf::MicroTerm Pages: 1 -->
<svg width="499pt" height="502pt"
 viewBox="0.00 0.00 499.00 502.00" xmlns="http://www.w3.org/2000/svg" xmlns:xlink="http://www.w3.org/1999/xlink">
<g id="graph0" class="graph" transform="scale(1 1) rotate(0) translate(4 498)">
<title>magnumaf::MicroTerm</title>
<!-- Node1 -->
<g id="node1" class="node">
<title>Node1</title>
<g id="a_node1"><a xlink:title=" ">
<polygon fill="#bfbfbf" stroke="black" points="158,-243 158,-262 284,-262 284,-243 158,-243"/>
<text text-anchor="middle" x="221" y="-250" font-family="Helvetica,sans-Serif" font-size="10.00">magnumaf::MicroTerm</text>
</a>
</g>
</g>
<!-- Node3 -->
<g id="node3" class="node">
<title>Node3</title>
<g id="a_node3"><a xlink:href="classmagnumaf_1_1BulkDMIExchangeField.html" target="_top" xlink:title="Combined bulk DMI and exchange Field.">
<polygon fill="none" stroke="black" points="323.5,-463.5 323.5,-493.5 487.5,-493.5 487.5,-463.5 323.5,-463.5"/>
<text text-anchor="start" x="331.5" y="-481.5" font-family="Helvetica,sans-Serif" font-size="10.00">magnumaf::BulkDMIExchange</text>
<text text-anchor="middle" x="405.5" y="-470.5" font-family="Helvetica,sans-Serif" font-size="10.00">Field</text>
</a>
</g>
</g>
<!-- Node1&#45;&gt;Node3 -->
<g id="edge2" class="edge">
<title>Node1&#45;&gt;Node3</title>
<path fill="none" stroke="midnightblue" d="M225.91,-272.17C234.98,-312.58 261.31,-405.27 320,-454.5 324.09,-457.93 328.64,-460.87 333.45,-463.39"/>
<polygon fill="midnightblue" stroke="midnightblue" points="229.3,-271.29 223.8,-262.24 222.45,-272.75 229.3,-271.29"/>
</g>
<!-- Node4 -->
<g id="node4" class="node">
<title>Node4</title>
<g id="a_node4"><a xlink:href="classmagnumaf_1_1CubicAnisotropyField.html" target="_top" xlink:title=" ">
<polygon fill="none" stroke="black" points="328,-414.5 328,-444.5 483,-444.5 483,-414.5 328,-414.5"/>
<text text-anchor="start" x="336" y="-432.5" font-family="Helvetica,sans-Serif" font-size="10.00">magnumaf::CubicAnisotropy</text>
<text text-anchor="middle" x="405.5" y="-421.5" font-family="Helvetica,sans-Serif" font-size="10.00">Field</text>
</a>
</g>
</g>
<!-- Node1&#45;&gt;Node4 -->
<g id="edge3" class="edge">
<title>Node1&#45;&gt;Node4</title>
<path fill="none" stroke="midnightblue" d="M229.12,-271.6C242.12,-303.88 272.81,-369.15 320,-404.5 325.14,-408.35 330.87,-411.61 336.86,-414.37"/>
<polygon fill="midnightblue" stroke="midnightblue" points="232.27,-270.06 225.39,-262.01 225.75,-272.6 232.27,-270.06"/>
</g>
<!-- Node5 -->
<g id="node5" class="node">
<title>Node5</title>
<g id="a_node5"><a xlink:href="classmagnumaf_1_1DMI__D2d__Field.html" target="_top" xlink:title=" ">
<polygon fill="none" stroke="black" points="332,-376 332,-395 479,-395 479,-376 332,-376"/>
<text text-anchor="middle" x="405.5" y="-383" font-family="Helvetica,sans-Serif" font-size="10.00">magnumaf::DMI_D2d_Field</text>
</a>
</g>
</g>
<!-- Node1&#45;&gt;Node5 -->
<g id="edge4" class="edge">
<title>Node1&#45;&gt;Node5</title>
<path fill="none" stroke="midnightblue" d="M232.6,-271.04C248.27,-296.69 280.12,-342.55 320,-366.5 326.44,-370.37 333.6,-373.46 340.93,-375.91"/>
<polygon fill="midnightblue" stroke="midnightblue" points="235.51,-269.1 227.4,-262.28 229.5,-272.67 235.51,-269.1"/>
</g>
<!-- Node6 -->
<g id="node6" class="node">
<title>Node6</title>
<g id="a_node6"><a xlink:href="classmagnumaf_1_1DemagField.html" target="_top" xlink:title=" ">
<polygon fill="none" stroke="black" points="339,-338 339,-357 472,-357 472,-338 339,-338"/>
<text text-anchor="middle" x="405.5" y="-345" font-family="Helvetica,sans-Serif" font-size="10.00">magnumaf::DemagField</text>
</a>
</g>
</g>
<!-- Node1&#45;&gt;Node6 -->
<g id="edge5" class="edge">
<title>Node1&#45;&gt;Node6</title>
<path fill="none" stroke="midnightblue" d="M238.82,-269.37C257.19,-286.81 288.25,-313.54 320,-328.5 328.16,-332.35 337.14,-335.43 346.1,-337.91"/>
<polygon fill="midnightblue" stroke="midnightblue" points="240.93,-266.54 231.32,-262.09 236.06,-271.56 240.93,-266.54"/>
</g>
<!-- Node7 -->
<g id="node7" class="node">
<title>Node7</title>
<g id="a_node7"><a xlink:href="classmagnumaf_1_1DemagFieldPBC.html" target="_top" xlink:title=" ">
<polygon fill="none" stroke="black" points="329.5,-300 329.5,-319 481.5,-319 481.5,-300 329.5,-300"/>
<text text-anchor="middle" x="405.5" y="-307" font-family="Helvetica,sans-Serif" font-size="10.00">magnumaf::DemagFieldPBC</text>
</a>
</g>
</g>
<!-- Node1&#45;&gt;Node7 -->
<g id="edge6" class="edge">
<title>Node1&#45;&gt;Node7</title>
<path fill="none" stroke="midnightblue" d="M253.23,-265.98C272.28,-273.86 297.26,-283.58 320,-290.5 331.65,-294.05 344.39,-297.25 356.36,-299.98"/>
<polygon fill="midnightblue" stroke="midnightblue" points="254.43,-262.69 243.86,-262.06 251.73,-269.15 254.43,-262.69"/>
</g>
<!-- Node8 -->
<g id="node8" class="node">
<title>Node8</title>
<g id="a_node8"><a xlink:href="classmagnumaf_1_1DmiField.html" target="_top" xlink:title=" ">
<polygon fill="none" stroke="black" points="346.5,-262 346.5,-281 464.5,-281 464.5,-262 346.5,-262"/>
<text text-anchor="middle" x="405.5" y="-269" font-family="Helvetica,sans-Serif" font-size="10.00">magnumaf::DmiField</text>
</a>
</g>
</g>
<!-- Node1&#45;&gt;Node8 -->
<g id="edge7" class="edge">
<title>Node1&#45;&gt;Node8</title>
<path fill="none" stroke="midnightblue" d="M294.11,-260.01C311.43,-261.81 329.72,-263.72 346.32,-265.44"/>
<polygon fill="midnightblue" stroke="midnightblue" points="294.35,-256.51 284.04,-258.96 293.62,-263.48 294.35,-256.51"/>
</g>
<!-- Node9 -->
<g id="node9" class="node">
<title>Node9</title>
<g id="a_node9"><a xlink:href="classmagnumaf_1_1ExchangeField.html" target="_top" xlink:title=" ">
<polygon fill="none" stroke="black" points="333,-224 333,-243 478,-243 478,-224 333,-224"/>
<text text-anchor="middle" x="405.5" y="-231" font-family="Helvetica,sans-Serif" font-size="10.00">magnumaf::ExchangeField</text>
</a>
</g>
</g>
<!-- Node1&#45;&gt;Node9 -->
<g id="edge8" class="edge">
<title>Node1&#45;&gt;Node9</title>
<path fill="none" stroke="midnightblue" d="M294.13,-244.99C306.88,-243.66 320.15,-242.28 332.88,-240.96"/>
<polygon fill="midnightblue" stroke="midnightblue" points="293.62,-241.52 284.04,-246.04 294.35,-248.49 293.62,-241.52"/>
</g>
<!-- Node10 -->
<g id="node10" class="node">
<title>Node10</title>
<g id="a_node10"><a xlink:href="classmagnumaf_1_1ExchangeFieldPBC.html" target="_top" xlink:title=" ">
<polygon fill="none" stroke="black" points="323.5,-186 323.5,-205 487.5,-205 487.5,-186 323.5,-186"/>
<text text-anchor="middle" x="405.5" y="-193" font-family="Helvetica,sans-Serif" font-size="10.00">magnumaf::ExchangeFieldPBC</text>
</a>
</g>
</g>
<!-- Node1&#45;&gt;Node10 -->
<g id="edge9" class="edge">
<title>Node1&#45;&gt;Node10</title>
<path fill="none" stroke="midnightblue" d="M253.23,-239.02C272.28,-231.14 297.26,-221.42 320,-214.5 331.65,-210.95 344.39,-207.75 356.36,-205.02"/>
<polygon fill="midnightblue" stroke="midnightblue" points="251.73,-235.85 243.86,-242.94 254.43,-242.31 251.73,-235.85"/>
</g>
<!-- Node11 -->
<g id="node11" class="node">
<title>Node11</title>
<g id="a_node11"><a xlink:href="classmagnumaf_1_1RKKYExchangeField.html" target="_top" xlink:title="Combined Field for RKKY interaction between z&#45;neighbour&#45;cells and exchange interaction between not&#45;RK...">
<polygon fill="none" stroke="black" points="320,-148 320,-167 491,-167 491,-148 320,-148"/>
<text text-anchor="middle" x="405.5" y="-155" font-family="Helvetica,sans-Serif" font-size="10.00">magnumaf::RKKYExchangeField</text>
</a>
</g>
</g>
<!-- Node1&#45;&gt;Node11 -->
<g id="edge10" class="edge">
<title>Node1&#45;&gt;Node11</title>
<path fill="none" stroke="midnightblue" d="M238.82,-235.63C257.19,-218.19 288.25,-191.46 320,-176.5 328.16,-172.65 337.14,-169.57 346.1,-167.09"/>
<polygon fill="midnightblue" stroke="midnightblue" points="236.06,-233.44 231.32,-242.91 240.93,-238.46 236.06,-233.44"/>
</g>
<!-- Node12 -->
<g id="node12" class="node">
<title>Node12</title>
<g id="a_node12"><a xlink:href="classmagnumaf_1_1SparseExchangeField.html" target="_top" xlink:title=" ">
<polygon fill="none" stroke="black" points="328,-98.5 328,-128.5 483,-128.5 483,-98.5 328,-98.5"/>
<text text-anchor="start" x="336" y="-116.5" font-family="Helvetica,sans-Serif" font-size="10.00">magnumaf::SparseExchange</text>
<text text-anchor="middle" x="405.5" y="-105.5" font-family="Helvetica,sans-Serif" font-size="10.00">Field</text>
</a>
</g>
</g>
<!-- Node1&#45;&gt;Node12 -->
<g id="edge11" class="edge">
<title>Node1&#45;&gt;Node12</title>
<path fill="none" stroke="midnightblue" d="M232.82,-234.33C248.77,-209.11 280.94,-163.77 320,-138.5 325.91,-134.68 332.42,-131.42 339.13,-128.65"/>
<polygon fill="midnightblue" stroke="midnightblue" points="229.79,-232.57 227.53,-242.92 235.75,-236.24 229.79,-232.57"/>
</g>
<!-- Node13 -->
<g id="node13" class="node">
<title>Node13</title>
<g id="a_node13"><a xlink:href="classmagnumaf_1_1SpinTransferTorqueField.html" target="_top" xlink:title="Slonczewski Spin Transfer Torque model.">
<polygon fill="none" stroke="black" points="321.5,-49.5 321.5,-79.5 489.5,-79.5 489.5,-49.5 321.5,-49.5"/>
<text text-anchor="start" x="329.5" y="-67.5" font-family="Helvetica,sans-Serif" font-size="10.00">magnumaf::SpinTransferTorque</text>
<text text-anchor="middle" x="405.5" y="-56.5" font-family="Helvetica,sans-Serif" font-size="10.00">Field</text>
</a>
</g>
</g>
<!-- Node1&#45;&gt;Node13 -->
<g id="edge12" class="edge">
<title>Node1&#45;&gt;Node13</title>
<path fill="none" stroke="midnightblue" d="M228.31,-232.79C240.4,-198.24 270.13,-126.76 320,-88.5 324.48,-85.07 329.42,-82.12 334.61,-79.6"/>
<polygon fill="midnightblue" stroke="midnightblue" points="224.87,-232.03 225,-242.62 231.51,-234.26 224.87,-232.03"/>
</g>
<!-- Node14 -->
<g id="node14" class="node">
<title>Node14</title>
<g id="a_node14"><a xlink:href="classmagnumaf_1_1UniaxialAnisotropyField.html" target="_top" xlink:title=" ">
<polygon fill="none" stroke="black" points="321.5,-0.5 321.5,-30.5 489.5,-30.5 489.5,-0.5 321.5,-0.5"/>
<text text-anchor="start" x="329.5" y="-18.5" font-family="Helvetica,sans-Serif" font-size="10.00">magnumaf::UniaxialAnisotropy</text>
<text text-anchor="middle" x="405.5" y="-7.5" font-family="Helvetica,sans-Serif" font-size="10.00">Field</text>
</a>
</g>
</g>
<!-- Node1&#45;&gt;Node14 -->
<g id="edge13" class="edge">
<title>Node1&#45;&gt;Node14</title>
<path fill="none" stroke="midnightblue" d="M225.4,-232.64C233.67,-190.53 258.83,-91.89 320,-39.5 324.05,-36.03 328.58,-33.06 333.37,-30.51"/>
<polygon fill="midnightblue" stroke="midnightblue" points="221.92,-232.24 223.54,-242.71 228.8,-233.52 221.92,-232.24"/>
</g>
<!-- Node2 -->
<g id="node2" class="node">
<title>Node2</title>
<g id="a_node2"><a xlink:href="classmagnumaf_1_1FieldTerm.html" target="_top" xlink:title=" ">
<polygon fill="none" stroke="black" points="0,-243 0,-262 122,-262 122,-243 0,-243"/>
<text text-anchor="middle" x="61" y="-250" font-family="Helvetica,sans-Serif" font-size="10.00">magnumaf::FieldTerm</text>
</a>
</g>
</g>
<!-- Node2&#45;&gt;Node1 -->
<g id="edge1" class="edge">
<title>Node2&#45;&gt;Node1</title>
<path fill="none" stroke="midnightblue" d="M132.44,-252.5C140.92,-252.5 149.53,-252.5 157.89,-252.5"/>
<polygon fill="midnightblue" stroke="midnightblue" points="132.18,-249 122.18,-252.5 132.18,-256 132.18,-249"/>
</g>
</g>
</svg>
