<?xml version="1.0" encoding="UTF-8" standalone="no"?>
<!DOCTYPE svg PUBLIC "-//W3C//DTD SVG 1.1//EN"
 "http://www.w3.org/Graphics/SVG/1.1/DTD/svg11.dtd">
<!-- Generated by graphviz version 2.43.0 (0)
 -->
<!-- Title: magnumaf::NonequiUniaxialAnisotropyField Pages: 1 -->
<svg width="334pt" height="252pt"
 viewBox="0.00 0.00 334.00 252.00" xmlns="http://www.w3.org/2000/svg" xmlns:xlink="http://www.w3.org/1999/xlink">
<g id="graph0" class="graph" transform="scale(1 1) rotate(0) translate(4 248)">
<title>magnumaf::NonequiUniaxialAnisotropyField</title>
<!-- Node1 -->
<g id="node1" class="node">
<title>Node1</title>
<g id="a_node1"><a xlink:title=" ">
<polygon fill="#bfbfbf" stroke="black" points="0,-0.5 0,-30.5 156,-30.5 156,-0.5 0,-0.5"/>
<text text-anchor="start" x="8" y="-18.5" font-family="Helvetica,sans-Serif" font-size="10.00">magnumaf::NonequiUniaxial</text>
<text text-anchor="middle" x="78" y="-7.5" font-family="Helvetica,sans-Serif" font-size="10.00">AnisotropyField</text>
</a>
</g>
</g>
<!-- Node2 -->
<g id="node2" class="node">
<title>Node2</title>
<g id="a_node2"><a xlink:href="classmagnumaf_1_1NonequiTerm.html" target="_top" xlink:title=" ">
<polygon fill="none" stroke="black" points="8,-68.5 8,-87.5 148,-87.5 148,-68.5 8,-68.5"/>
<text text-anchor="middle" x="78" y="-75.5" font-family="Helvetica,sans-Serif" font-size="10.00">magnumaf::NonequiTerm</text>
</a>
</g>
</g>
<!-- Node2&#45;&gt;Node1 -->
<g id="edge1" class="edge">
<title>Node2&#45;&gt;Node1</title>
<path fill="none" stroke="midnightblue" d="M78,-58.22C78,-49.36 78,-38.96 78,-30.76"/>
<polygon fill="midnightblue" stroke="midnightblue" points="74.5,-58.33 78,-68.33 81.5,-58.33 74.5,-58.33"/>
</g>
<!-- Node3 -->
<g id="node3" class="node">
<title>Node3</title>
<g id="a_node3"><a xlink:href="classmagnumaf_1_1FieldTerm.html" target="_top" xlink:title=" ">
<polygon fill="none" stroke="black" points="1,-135.5 1,-154.5 123,-154.5 123,-135.5 1,-135.5"/>
<text text-anchor="middle" x="62" y="-142.5" font-family="Helvetica,sans-Serif" font-size="10.00">magnumaf::FieldTerm</text>
</a>
</g>
</g>
<!-- Node3&#45;&gt;Node2 -->
<g id="edge2" class="edge">
<title>Node3&#45;&gt;Node2</title>
<path fill="none" stroke="midnightblue" d="M66.57,-125.41C69.63,-112.99 73.52,-97.22 75.88,-87.63"/>
<polygon fill="midnightblue" stroke="midnightblue" points="63.15,-124.69 64.16,-135.23 69.95,-126.36 63.15,-124.69"/>
</g>
<!-- Node4 -->
<g id="node4" class="node">
<title>Node4</title>
<g id="a_node4"><a xlink:href="structmagnumaf_1_1NonequiMesh.html" target="_top" xlink:title=" ">
<polygon fill="none" stroke="black" points="141,-135.5 141,-154.5 283,-154.5 283,-135.5 141,-135.5"/>
<text text-anchor="middle" x="212" y="-142.5" font-family="Helvetica,sans-Serif" font-size="10.00">magnumaf::NonequiMesh</text>
</a>
</g>
</g>
<!-- Node4&#45;&gt;Node2 -->
<g id="edge3" class="edge">
<title>Node4&#45;&gt;Node2</title>
<path fill="none" stroke="#9a32cd" stroke-dasharray="5,2" d="M185.08,-130.94C158.54,-118.07 118.73,-98.76 95.87,-87.67"/>
<polygon fill="#9a32cd" stroke="#9a32cd" points="183.68,-134.15 194.21,-135.37 186.74,-127.85 183.68,-134.15"/>
<text text-anchor="middle" x="175.5" y="-109" font-family="Helvetica,sans-Serif" font-size="10.00"> nemesh</text>
</g>
<!-- Node5 -->
<g id="node5" class="node">
<title>Node5</title>
<g id="a_node5"><a xlink:title=" ">
<polygon fill="none" stroke="#bfbfbf" points="138.5,-224.5 138.5,-243.5 183.5,-243.5 183.5,-224.5 138.5,-224.5"/>
<text text-anchor="middle" x="161" y="-231.5" font-family="Helvetica,sans-Serif" font-size="10.00">size_t</text>
</a>
</g>
</g>
<!-- Node5&#45;&gt;Node4 -->
<g id="edge4" class="edge">
<title>Node5&#45;&gt;Node4</title>
<path fill="none" stroke="#9a32cd" stroke-dasharray="5,2" d="M171.27,-215.49C182.08,-197.03 198.67,-168.74 206.94,-154.62"/>
<polygon fill="#9a32cd" stroke="#9a32cd" points="168.11,-213.94 166.08,-224.34 174.15,-217.48 168.11,-213.94"/>
<text text-anchor="middle" x="204" y="-198" font-family="Helvetica,sans-Serif" font-size="10.00"> nx</text>
<text text-anchor="middle" x="204" y="-187" font-family="Helvetica,sans-Serif" font-size="10.00">ny</text>
<text text-anchor="middle" x="204" y="-176" font-family="Helvetica,sans-Serif" font-size="10.00">nz</text>
</g>
<!-- Node6 -->
<g id="node6" class="node">
<title>Node6</title>
<g id="a_node6"><a xlink:title=" ">
<polygon fill="none" stroke="#bfbfbf" points="202,-224.5 202,-243.5 326,-243.5 326,-224.5 202,-224.5"/>
<text text-anchor="middle" x="264" y="-231.5" font-family="Helvetica,sans-Serif" font-size="10.00">std::vector&lt; double &gt;</text>
</a>
</g>
</g>
<!-- Node6&#45;&gt;Node4 -->
<g id="edge5" class="edge">
<title>Node6&#45;&gt;Node4</title>
<path fill="none" stroke="#9a32cd" stroke-dasharray="5,2" d="M253.68,-215.74C242.66,-197.3 225.63,-168.8 217.16,-154.62"/>
<polygon fill="#9a32cd" stroke="#9a32cd" points="250.69,-217.55 258.82,-224.34 256.7,-213.96 250.69,-217.55"/>
<text text-anchor="middle" x="273" y="-187" font-family="Helvetica,sans-Serif" font-size="10.00"> z_spacing</text>
</g>
</g>
</svg>
