<?xml version="1.0" encoding="UTF-8" standalone="no"?>
<!DOCTYPE svg PUBLIC "-//W3C//DTD SVG 1.1//EN"
 "http://www.w3.org/Graphics/SVG/1.1/DTD/svg11.dtd">
<!-- Generated by graphviz version 2.43.0 (0)
 -->
<!-- Title: magnumafpy.FieldTerm Pages: 1 -->
<svg width="356pt" height="972pt"
 viewBox="0.00 0.00 356.00 972.00" xmlns="http://www.w3.org/2000/svg" xmlns:xlink="http://www.w3.org/1999/xlink">
<g id="graph0" class="graph" transform="scale(1 1) rotate(0) translate(4 968)">
<title>magnumafpy.FieldTerm</title>
<!-- Node1 -->
<g id="node1" class="node">
<title>Node1</title>
<g id="a_node1"><a xlink:title=" ">
<polygon fill="#bfbfbf" stroke="black" points="0,-467 0,-486 130,-486 130,-467 0,-467"/>
<text text-anchor="middle" x="65" y="-474" font-family="Helvetica,sans-Serif" font-size="10.00">magnumafpy.FieldTerm</text>
</a>
</g>
</g>
<!-- Node2 -->
<g id="node2" class="node">
<title>Node2</title>
<g id="a_node2"><a xlink:href="classmagnumafpy_1_1AtomisticDipoleDipoleField.html" target="_top" xlink:title=" ">
<polygon fill="none" stroke="black" points="176.5,-933.5 176.5,-963.5 337.5,-963.5 337.5,-933.5 176.5,-933.5"/>
<text text-anchor="start" x="184.5" y="-951.5" font-family="Helvetica,sans-Serif" font-size="10.00">magnumafpy.AtomisticDipole</text>
<text text-anchor="middle" x="257" y="-940.5" font-family="Helvetica,sans-Serif" font-size="10.00">DipoleField</text>
</a>
</g>
</g>
<!-- Node1&#45;&gt;Node2 -->
<g id="edge1" class="edge">
<title>Node1&#45;&gt;Node2</title>
<path fill="none" stroke="midnightblue" d="M67.78,-496.56C75.14,-575.04 105.68,-860.04 166,-923.5 169.69,-927.38 173.92,-930.67 178.49,-933.47"/>
<polygon fill="midnightblue" stroke="midnightblue" points="71.23,-495.8 66.83,-486.17 64.26,-496.44 71.23,-495.8"/>
</g>
<!-- Node3 -->
<g id="node3" class="node">
<title>Node3</title>
<g id="a_node3"><a xlink:href="classmagnumafpy_1_1AtomisticDmiField.html" target="_top" xlink:title=" ">
<polygon fill="none" stroke="black" points="170.5,-895 170.5,-914 343.5,-914 343.5,-895 170.5,-895"/>
<text text-anchor="middle" x="257" y="-902" font-family="Helvetica,sans-Serif" font-size="10.00">magnumafpy.AtomisticDmiField</text>
</a>
</g>
</g>
<!-- Node1&#45;&gt;Node3 -->
<g id="edge2" class="edge">
<title>Node1&#45;&gt;Node3</title>
<path fill="none" stroke="midnightblue" d="M68.08,-496.38C76.26,-570.57 108.56,-829.86 166,-885.5 169.9,-889.28 174.35,-892.39 179.14,-894.94"/>
<polygon fill="midnightblue" stroke="midnightblue" points="71.53,-495.69 66.98,-486.12 64.57,-496.44 71.53,-495.69"/>
</g>
<!-- Node4 -->
<g id="node4" class="node">
<title>Node4</title>
<g id="a_node4"><a xlink:href="classmagnumafpy_1_1AtomisticExchangeField.html" target="_top" xlink:title=" ">
<polygon fill="none" stroke="black" points="168.5,-845.5 168.5,-875.5 345.5,-875.5 345.5,-845.5 168.5,-845.5"/>
<text text-anchor="start" x="176.5" y="-863.5" font-family="Helvetica,sans-Serif" font-size="10.00">magnumafpy.AtomisticExchange</text>
<text text-anchor="middle" x="257" y="-852.5" font-family="Helvetica,sans-Serif" font-size="10.00">Field</text>
</a>
</g>
</g>
<!-- Node1&#45;&gt;Node4 -->
<g id="edge3" class="edge">
<title>Node1&#45;&gt;Node4</title>
<path fill="none" stroke="midnightblue" d="M65.18,-496.31C63.83,-556.63 68.33,-739.84 166,-836.5 169.45,-839.91 173.32,-842.85 177.48,-845.39"/>
<polygon fill="midnightblue" stroke="midnightblue" points="68.68,-496.33 65.49,-486.23 61.69,-496.12 68.68,-496.33"/>
</g>
<!-- Node5 -->
<g id="node5" class="node">
<title>Node5</title>
<g id="a_node5"><a xlink:href="classmagnumafpy_1_1AtomisticExternalField.html" target="_top" xlink:title=" ">
<polygon fill="none" stroke="black" points="172,-796.5 172,-826.5 342,-826.5 342,-796.5 172,-796.5"/>
<text text-anchor="start" x="180" y="-814.5" font-family="Helvetica,sans-Serif" font-size="10.00">magnumafpy.AtomisticExternal</text>
<text text-anchor="middle" x="257" y="-803.5" font-family="Helvetica,sans-Serif" font-size="10.00">Field</text>
</a>
</g>
</g>
<!-- Node1&#45;&gt;Node5 -->
<g id="edge4" class="edge">
<title>Node1&#45;&gt;Node5</title>
<path fill="none" stroke="midnightblue" d="M66.2,-496.11C67.84,-550.73 80.23,-705.96 166,-787.5 169.63,-790.95 173.71,-793.92 178.06,-796.48"/>
<polygon fill="midnightblue" stroke="midnightblue" points="69.69,-495.97 65.98,-486.04 62.69,-496.11 69.69,-495.97"/>
</g>
<!-- Node6 -->
<g id="node6" class="node">
<title>Node6</title>
<g id="a_node6"><a xlink:href="classmagnumafpy_1_1AtomisticUniaxialAnisotropyField.html" target="_top" xlink:title=" ">
<polygon fill="none" stroke="black" points="172,-747.5 172,-777.5 342,-777.5 342,-747.5 172,-747.5"/>
<text text-anchor="start" x="180" y="-765.5" font-family="Helvetica,sans-Serif" font-size="10.00">magnumafpy.AtomisticUniaxial</text>
<text text-anchor="middle" x="257" y="-754.5" font-family="Helvetica,sans-Serif" font-size="10.00">AnisotropyField</text>
</a>
</g>
</g>
<!-- Node1&#45;&gt;Node6 -->
<g id="edge5" class="edge">
<title>Node1&#45;&gt;Node6</title>
<path fill="none" stroke="midnightblue" d="M67.56,-496.21C72.5,-544.95 92.17,-671.97 166,-738.5 169.84,-741.96 174.13,-744.94 178.7,-747.49"/>
<polygon fill="midnightblue" stroke="midnightblue" points="71.03,-495.71 66.63,-486.07 64.06,-496.35 71.03,-495.71"/>
</g>
<!-- Node7 -->
<g id="node7" class="node">
<title>Node7</title>
<g id="a_node7"><a xlink:href="classmagnumafpy_1_1BulkDMIExchangeField.html" target="_top" xlink:title=" ">
<polygon fill="none" stroke="black" points="171,-698.5 171,-728.5 343,-728.5 343,-698.5 171,-698.5"/>
<text text-anchor="start" x="179" y="-716.5" font-family="Helvetica,sans-Serif" font-size="10.00">magnumafpy.BulkDMIExchange</text>
<text text-anchor="middle" x="257" y="-705.5" font-family="Helvetica,sans-Serif" font-size="10.00">Field</text>
</a>
</g>
</g>
<!-- Node1&#45;&gt;Node7 -->
<g id="edge6" class="edge">
<title>Node1&#45;&gt;Node7</title>
<path fill="none" stroke="midnightblue" d="M69.48,-496.18C77.98,-538.29 103.85,-637.55 166,-689.5 170.09,-692.92 174.63,-695.86 179.42,-698.38"/>
<polygon fill="midnightblue" stroke="midnightblue" points="72.91,-495.5 67.6,-486.33 66.04,-496.81 72.91,-495.5"/>
</g>
<!-- Node8 -->
<g id="node8" class="node">
<title>Node8</title>
<g id="a_node8"><a xlink:href="classmagnumafpy_1_1CubicAnisotropyField.html" target="_top" xlink:title=" ">
<polygon fill="none" stroke="black" points="175.5,-649.5 175.5,-679.5 338.5,-679.5 338.5,-649.5 175.5,-649.5"/>
<text text-anchor="start" x="183.5" y="-667.5" font-family="Helvetica,sans-Serif" font-size="10.00">magnumafpy.CubicAnisotropy</text>
<text text-anchor="middle" x="257" y="-656.5" font-family="Helvetica,sans-Serif" font-size="10.00">Field</text>
</a>
</g>
</g>
<!-- Node1&#45;&gt;Node8 -->
<g id="edge7" class="edge">
<title>Node1&#45;&gt;Node8</title>
<path fill="none" stroke="midnightblue" d="M72.32,-495.8C84.62,-530.3 115.15,-602.49 166,-640.5 170.53,-643.89 175.51,-646.8 180.72,-649.3"/>
<polygon fill="midnightblue" stroke="midnightblue" points="75.52,-494.34 68.96,-486.02 68.89,-496.61 75.52,-494.34"/>
</g>
<!-- Node9 -->
<g id="node9" class="node">
<title>Node9</title>
<g id="a_node9"><a xlink:href="classmagnumafpy_1_1DMI__D2d__Field.html" target="_top" xlink:title=" ">
<polygon fill="none" stroke="black" points="193,-600.5 193,-630.5 321,-630.5 321,-600.5 193,-600.5"/>
<text text-anchor="start" x="201" y="-618.5" font-family="Helvetica,sans-Serif" font-size="10.00">magnumafpy.DMI_D2d</text>
<text text-anchor="middle" x="257" y="-607.5" font-family="Helvetica,sans-Serif" font-size="10.00">_Field</text>
</a>
</g>
</g>
<!-- Node1&#45;&gt;Node9 -->
<g id="edge8" class="edge">
<title>Node1&#45;&gt;Node9</title>
<path fill="none" stroke="midnightblue" d="M77.08,-494.76C93.39,-520.08 126.27,-565.54 166,-590.5 174.1,-595.59 183.25,-599.66 192.53,-602.91"/>
<polygon fill="midnightblue" stroke="midnightblue" points="79.94,-492.74 71.66,-486.13 74.01,-496.46 79.94,-492.74"/>
</g>
<!-- Node10 -->
<g id="node10" class="node">
<title>Node10</title>
<g id="a_node10"><a xlink:href="classmagnumafpy_1_1DemagField.html" target="_top" xlink:title=" ">
<polygon fill="none" stroke="black" points="186.5,-562 186.5,-581 327.5,-581 327.5,-562 186.5,-562"/>
<text text-anchor="middle" x="257" y="-569" font-family="Helvetica,sans-Serif" font-size="10.00">magnumafpy.DemagField</text>
</a>
</g>
</g>
<!-- Node1&#45;&gt;Node10 -->
<g id="edge9" class="edge">
<title>Node1&#45;&gt;Node10</title>
<path fill="none" stroke="midnightblue" d="M82.94,-493.2C101.68,-510.7 133.52,-537.65 166,-552.5 174.42,-556.35 183.65,-559.43 192.88,-561.9"/>
<polygon fill="midnightblue" stroke="midnightblue" points="85.18,-490.5 75.53,-486.13 80.35,-495.56 85.18,-490.5"/>
</g>
<!-- Node11 -->
<g id="node11" class="node">
<title>Node11</title>
<g id="a_node11"><a xlink:href="classmagnumafpy_1_1DemagFieldPBC.html" target="_top" xlink:title=" ">
<polygon fill="none" stroke="black" points="176.5,-524 176.5,-543 337.5,-543 337.5,-524 176.5,-524"/>
<text text-anchor="middle" x="257" y="-531" font-family="Helvetica,sans-Serif" font-size="10.00">magnumafpy.DemagFieldPBC</text>
</a>
</g>
</g>
<!-- Node1&#45;&gt;Node11 -->
<g id="edge10" class="edge">
<title>Node1&#45;&gt;Node11</title>
<path fill="none" stroke="midnightblue" d="M97.6,-489.95C117.06,-497.87 142.68,-507.65 166,-514.5 178.1,-518.05 191.31,-521.22 203.78,-523.91"/>
<polygon fill="midnightblue" stroke="midnightblue" points="98.88,-486.69 88.3,-486.12 96.21,-493.16 98.88,-486.69"/>
</g>
<!-- Node12 -->
<g id="node12" class="node">
<title>Node12</title>
<g id="a_node12"><a xlink:href="classmagnumafpy_1_1DmiField.html" target="_top" xlink:title=" ">
<polygon fill="none" stroke="black" points="194,-486 194,-505 320,-505 320,-486 194,-486"/>
<text text-anchor="middle" x="257" y="-493" font-family="Helvetica,sans-Serif" font-size="10.00">magnumafpy.DmiField</text>
</a>
</g>
</g>
<!-- Node1&#45;&gt;Node12 -->
<g id="edge11" class="edge">
<title>Node1&#45;&gt;Node12</title>
<path fill="none" stroke="midnightblue" d="M140.34,-483.93C158.04,-485.7 176.74,-487.57 193.83,-489.28"/>
<polygon fill="midnightblue" stroke="midnightblue" points="140.36,-480.42 130.06,-482.91 139.66,-487.38 140.36,-480.42"/>
</g>
<!-- Node13 -->
<g id="node13" class="node">
<title>Node13</title>
<g id="a_node13"><a xlink:href="classmagnumafpy_1_1ExchangeField.html" target="_top" xlink:title=" ">
<polygon fill="none" stroke="black" points="180.5,-448 180.5,-467 333.5,-467 333.5,-448 180.5,-448"/>
<text text-anchor="middle" x="257" y="-455" font-family="Helvetica,sans-Serif" font-size="10.00">magnumafpy.ExchangeField</text>
</a>
</g>
</g>
<!-- Node1&#45;&gt;Node13 -->
<g id="edge12" class="edge">
<title>Node1&#45;&gt;Node13</title>
<path fill="none" stroke="midnightblue" d="M140.06,-469.09C153.3,-467.77 167.11,-466.39 180.39,-465.06"/>
<polygon fill="midnightblue" stroke="midnightblue" points="139.66,-465.62 130.06,-470.09 140.36,-472.58 139.66,-465.62"/>
</g>
<!-- Node14 -->
<g id="node14" class="node">
<title>Node14</title>
<g id="a_node14"><a xlink:href="classmagnumafpy_1_1ExchangeFieldPBC.html" target="_top" xlink:title=" ">
<polygon fill="none" stroke="black" points="170.5,-410 170.5,-429 343.5,-429 343.5,-410 170.5,-410"/>
<text text-anchor="middle" x="257" y="-417" font-family="Helvetica,sans-Serif" font-size="10.00">magnumafpy.ExchangeFieldPBC</text>
</a>
</g>
</g>
<!-- Node1&#45;&gt;Node14 -->
<g id="edge13" class="edge">
<title>Node1&#45;&gt;Node14</title>
<path fill="none" stroke="midnightblue" d="M97.6,-463.05C117.06,-455.13 142.68,-445.35 166,-438.5 178.1,-434.95 191.31,-431.78 203.78,-429.09"/>
<polygon fill="midnightblue" stroke="midnightblue" points="96.21,-459.84 88.3,-466.88 98.88,-466.31 96.21,-459.84"/>
</g>
<!-- Node15 -->
<g id="node15" class="node">
<title>Node15</title>
<g id="a_node15"><a xlink:href="classmagnumafpy_1_1ExternalField.html" target="_top" xlink:title=" ">
<polygon fill="none" stroke="black" points="184,-372 184,-391 330,-391 330,-372 184,-372"/>
<text text-anchor="middle" x="257" y="-379" font-family="Helvetica,sans-Serif" font-size="10.00">magnumafpy.ExternalField</text>
</a>
</g>
</g>
<!-- Node1&#45;&gt;Node15 -->
<g id="edge14" class="edge">
<title>Node1&#45;&gt;Node15</title>
<path fill="none" stroke="midnightblue" d="M82.94,-459.8C101.68,-442.3 133.52,-415.35 166,-400.5 174.42,-396.65 183.65,-393.57 192.88,-391.1"/>
<polygon fill="midnightblue" stroke="midnightblue" points="80.35,-457.44 75.53,-466.87 85.18,-462.5 80.35,-457.44"/>
</g>
<!-- Node16 -->
<g id="node16" class="node">
<title>Node16</title>
<g id="a_node16"><a xlink:href="classmagnumafpy_1_1NonequiDemagField.html" target="_top" xlink:title=" ">
<polygon fill="none" stroke="black" points="166,-334 166,-353 348,-353 348,-334 166,-334"/>
<text text-anchor="middle" x="257" y="-341" font-family="Helvetica,sans-Serif" font-size="10.00">magnumafpy.NonequiDemagField</text>
</a>
</g>
</g>
<!-- Node1&#45;&gt;Node16 -->
<g id="edge15" class="edge">
<title>Node1&#45;&gt;Node16</title>
<path fill="none" stroke="midnightblue" d="M76.87,-457.89C92.92,-432.15 125.5,-386.2 166,-362.5 172.62,-358.63 179.92,-355.54 187.41,-353.08"/>
<polygon fill="midnightblue" stroke="midnightblue" points="73.73,-456.31 71.54,-466.68 79.72,-459.94 73.73,-456.31"/>
</g>
<!-- Node17 -->
<g id="node17" class="node">
<title>Node17</title>
<g id="a_node17"><a xlink:href="classmagnumafpy_1_1NonequiExchangeField.html" target="_top" xlink:title=" ">
<polygon fill="none" stroke="black" points="171.5,-284.5 171.5,-314.5 342.5,-314.5 342.5,-284.5 171.5,-284.5"/>
<text text-anchor="start" x="179.5" y="-302.5" font-family="Helvetica,sans-Serif" font-size="10.00">magnumafpy.NonequiExchange</text>
<text text-anchor="middle" x="257" y="-291.5" font-family="Helvetica,sans-Serif" font-size="10.00">Field</text>
</a>
</g>
</g>
<!-- Node1&#45;&gt;Node17 -->
<g id="edge16" class="edge">
<title>Node1&#45;&gt;Node17</title>
<path fill="none" stroke="midnightblue" d="M73.31,-457.31C86.65,-424.9 118.07,-359.44 166,-324.5 171.24,-320.68 177.04,-317.44 183.1,-314.7"/>
<polygon fill="midnightblue" stroke="midnightblue" points="69.92,-456.36 69.48,-466.94 76.43,-458.94 69.92,-456.36"/>
</g>
<!-- Node18 -->
<g id="node18" class="node">
<title>Node18</title>
<g id="a_node18"><a xlink:href="classmagnumafpy_1_1NonequiExternalField.html" target="_top" xlink:title=" ">
<polygon fill="none" stroke="black" points="175,-235.5 175,-265.5 339,-265.5 339,-235.5 175,-235.5"/>
<text text-anchor="start" x="183" y="-253.5" font-family="Helvetica,sans-Serif" font-size="10.00">magnumafpy.NonequiExternal</text>
<text text-anchor="middle" x="257" y="-242.5" font-family="Helvetica,sans-Serif" font-size="10.00">Field</text>
</a>
</g>
</g>
<!-- Node1&#45;&gt;Node18 -->
<g id="edge17" class="edge">
<title>Node1&#45;&gt;Node18</title>
<path fill="none" stroke="midnightblue" d="M70.12,-456.89C79.62,-416.61 106.93,-324.26 166,-275.5 170.63,-271.68 175.8,-268.44 181.26,-265.7"/>
<polygon fill="midnightblue" stroke="midnightblue" points="66.67,-456.27 67.9,-466.79 73.5,-457.8 66.67,-456.27"/>
</g>
<!-- Node19 -->
<g id="node19" class="node">
<title>Node19</title>
<g id="a_node19"><a xlink:href="classmagnumafpy_1_1NonequiUniaxialAnisotropyField.html" target="_top" xlink:title=" ">
<polygon fill="none" stroke="black" points="175,-186.5 175,-216.5 339,-216.5 339,-186.5 175,-186.5"/>
<text text-anchor="start" x="183" y="-204.5" font-family="Helvetica,sans-Serif" font-size="10.00">magnumafpy.NonequiUniaxial</text>
<text text-anchor="middle" x="257" y="-193.5" font-family="Helvetica,sans-Serif" font-size="10.00">AnisotropyField</text>
</a>
</g>
</g>
<!-- Node1&#45;&gt;Node19 -->
<g id="edge18" class="edge">
<title>Node1&#45;&gt;Node19</title>
<path fill="none" stroke="midnightblue" d="M68.02,-456.78C73.9,-409.66 95.4,-289.76 166,-226.5 170.35,-222.6 175.25,-219.31 180.47,-216.52"/>
<polygon fill="midnightblue" stroke="midnightblue" points="64.52,-456.55 66.86,-466.88 71.47,-457.34 64.52,-456.55"/>
</g>
<!-- Node20 -->
<g id="node20" class="node">
<title>Node20</title>
<g id="a_node20"><a xlink:href="classmagnumafpy_1_1RKKYExchangeField.html" target="_top" xlink:title=" ">
<polygon fill="none" stroke="black" points="167.5,-148 167.5,-167 346.5,-167 346.5,-148 167.5,-148"/>
<text text-anchor="middle" x="257" y="-155" font-family="Helvetica,sans-Serif" font-size="10.00">magnumafpy.RKKYExchangeField</text>
</a>
</g>
</g>
<!-- Node1&#45;&gt;Node20 -->
<g id="edge19" class="edge">
<title>Node1&#45;&gt;Node20</title>
<path fill="none" stroke="midnightblue" d="M66.31,-456.76C68.3,-403.11 81.52,-253.62 166,-177.5 170.76,-173.21 176.22,-169.78 182.06,-167.03"/>
<polygon fill="midnightblue" stroke="midnightblue" points="62.81,-456.86 66.04,-466.95 69.81,-457.05 62.81,-456.86"/>
</g>
<!-- Node21 -->
<g id="node21" class="node">
<title>Node21</title>
<g id="a_node21"><a xlink:href="classmagnumafpy_1_1SparseExchangeField.html" target="_top" xlink:title=" ">
<polygon fill="none" stroke="black" points="175,-98.5 175,-128.5 339,-128.5 339,-98.5 175,-98.5"/>
<text text-anchor="start" x="183" y="-116.5" font-family="Helvetica,sans-Serif" font-size="10.00">magnumafpy.SparseExchange</text>
<text text-anchor="middle" x="257" y="-105.5" font-family="Helvetica,sans-Serif" font-size="10.00">Field</text>
</a>
</g>
</g>
<!-- Node1&#45;&gt;Node21 -->
<g id="edge20" class="edge">
<title>Node1&#45;&gt;Node21</title>
<path fill="none" stroke="midnightblue" d="M65.65,-456.44C65.78,-398.38 74.36,-228.62 166,-138.5 169.93,-134.63 174.41,-131.35 179.21,-128.57"/>
<polygon fill="midnightblue" stroke="midnightblue" points="62.15,-456.81 65.72,-466.78 69.15,-456.76 62.15,-456.81"/>
</g>
<!-- Node22 -->
<g id="node22" class="node">
<title>Node22</title>
<g id="a_node22"><a xlink:href="classmagnumafpy_1_1SpinTransferTorqueField.html" target="_top" xlink:title=" ">
<polygon fill="none" stroke="black" points="169,-49.5 169,-79.5 345,-79.5 345,-49.5 169,-49.5"/>
<text text-anchor="start" x="177" y="-67.5" font-family="Helvetica,sans-Serif" font-size="10.00">magnumafpy.SpinTransferTorque</text>
<text text-anchor="middle" x="257" y="-56.5" font-family="Helvetica,sans-Serif" font-size="10.00">Field</text>
</a>
</g>
</g>
<!-- Node1&#45;&gt;Node22 -->
<g id="edge21" class="edge">
<title>Node1&#45;&gt;Node22</title>
<path fill="none" stroke="midnightblue" d="M68.53,-456.43C77.94,-384.82 113.15,-143.32 166,-89.5 169.75,-85.68 174.03,-82.43 178.64,-79.67"/>
<polygon fill="midnightblue" stroke="midnightblue" points="65.01,-456.38 67.2,-466.74 71.95,-457.27 65.01,-456.38"/>
</g>
<!-- Node23 -->
<g id="node23" class="node">
<title>Node23</title>
<g id="a_node23"><a xlink:href="classmagnumafpy_1_1UniaxialAnisotropyField.html" target="_top" xlink:title=" ">
<polygon fill="none" stroke="black" points="169,-0.5 169,-30.5 345,-30.5 345,-0.5 169,-0.5"/>
<text text-anchor="start" x="177" y="-18.5" font-family="Helvetica,sans-Serif" font-size="10.00">magnumafpy.UniaxialAnisotropy</text>
<text text-anchor="middle" x="257" y="-7.5" font-family="Helvetica,sans-Serif" font-size="10.00">Field</text>
</a>
</g>
</g>
<!-- Node1&#45;&gt;Node23 -->
<g id="edge22" class="edge">
<title>Node1&#45;&gt;Node23</title>
<path fill="none" stroke="midnightblue" d="M67.9,-456.43C75.63,-379.16 107.06,-102.18 166,-40.5 169.7,-36.63 173.94,-33.34 178.52,-30.55"/>
<polygon fill="midnightblue" stroke="midnightblue" points="64.39,-456.4 66.9,-466.69 71.36,-457.08 64.39,-456.4"/>
</g>
</g>
</svg>
