<?xml version="1.0" encoding="UTF-8" standalone="no"?>
<!DOCTYPE svg PUBLIC "-//W3C//DTD SVG 1.1//EN"
 "http://www.w3.org/Graphics/SVG/1.1/DTD/svg11.dtd">
<!-- Generated by graphviz version 2.43.0 (0)
 -->
<!-- Title: magnumaf::MicroTerm Pages: 1 -->
<svg width="499pt" height="464pt"
 viewBox="0.00 0.00 499.00 464.00" xmlns="http://www.w3.org/2000/svg" xmlns:xlink="http://www.w3.org/1999/xlink">
<g id="graph0" class="graph" transform="scale(1 1) rotate(0) translate(4 460)">
<title>magnumaf::MicroTerm</title>
<!-- Node1 -->
<g id="node1" class="node">
<title>Node1</title>
<g id="a_node1"><a xlink:title=" ">
<polygon fill="#bfbfbf" stroke="black" points="158,-224 158,-243 284,-243 284,-224 158,-224"/>
<text text-anchor="middle" x="221" y="-231" font-family="Helvetica,sans-Serif" font-size="10.00">magnumaf::MicroTerm</text>
</a>
</g>
</g>
<!-- Node3 -->
<g id="node3" class="node">
<title>Node3</title>
<g id="a_node3"><a xlink:href="classmagnumaf_1_1BulkDMIExchangeField.html" target="_top" xlink:title="Combined bulk DMI and exchange Field.">
<polygon fill="none" stroke="black" points="323.5,-425.5 323.5,-455.5 487.5,-455.5 487.5,-425.5 323.5,-425.5"/>
<text text-anchor="start" x="331.5" y="-443.5" font-family="Helvetica,sans-Serif" font-size="10.00">magnumaf::BulkDMIExchange</text>
<text text-anchor="middle" x="405.5" y="-432.5" font-family="Helvetica,sans-Serif" font-size="10.00">Field</text>
</a>
</g>
</g>
<!-- Node1&#45;&gt;Node3 -->
<g id="edge2" class="edge">
<title>Node1&#45;&gt;Node3</title>
<path fill="none" stroke="midnightblue" d="M226.9,-252.87C237.38,-290.28 265.58,-372.68 320,-416.5 324.28,-419.94 329.02,-422.89 334.02,-425.42"/>
<polygon fill="midnightblue" stroke="midnightblue" points="230.27,-251.93 224.31,-243.18 223.51,-253.74 230.27,-251.93"/>
</g>
<!-- Node4 -->
<g id="node4" class="node">
<title>Node4</title>
<g id="a_node4"><a xlink:href="classmagnumaf_1_1CubicAnisotropyField.html" target="_top" xlink:title=" ">
<polygon fill="none" stroke="black" points="328,-376.5 328,-406.5 483,-406.5 483,-376.5 328,-376.5"/>
<text text-anchor="start" x="336" y="-394.5" font-family="Helvetica,sans-Serif" font-size="10.00">magnumaf::CubicAnisotropy</text>
<text text-anchor="middle" x="405.5" y="-383.5" font-family="Helvetica,sans-Serif" font-size="10.00">Field</text>
</a>
</g>
</g>
<!-- Node1&#45;&gt;Node4 -->
<g id="edge3" class="edge">
<title>Node1&#45;&gt;Node4</title>
<path fill="none" stroke="midnightblue" d="M230.79,-252.24C245.28,-281.12 276.94,-336.3 320,-366.5 325.51,-370.37 331.62,-373.64 337.97,-376.41"/>
<polygon fill="midnightblue" stroke="midnightblue" points="233.91,-250.67 226.39,-243.21 227.62,-253.73 233.91,-250.67"/>
</g>
<!-- Node5 -->
<g id="node5" class="node">
<title>Node5</title>
<g id="a_node5"><a xlink:href="classmagnumaf_1_1DemagField.html" target="_top" xlink:title=" ">
<polygon fill="none" stroke="black" points="339,-338 339,-357 472,-357 472,-338 339,-338"/>
<text text-anchor="middle" x="405.5" y="-345" font-family="Helvetica,sans-Serif" font-size="10.00">magnumaf::DemagField</text>
</a>
</g>
</g>
<!-- Node1&#45;&gt;Node5 -->
<g id="edge4" class="edge">
<title>Node1&#45;&gt;Node5</title>
<path fill="none" stroke="midnightblue" d="M235.07,-251.11C252.13,-272.79 284.09,-309.09 320,-328.5 327.14,-332.36 335.03,-335.44 343.04,-337.89"/>
<polygon fill="midnightblue" stroke="midnightblue" points="237.76,-248.87 228.89,-243.07 232.21,-253.13 237.76,-248.87"/>
</g>
<!-- Node6 -->
<g id="node6" class="node">
<title>Node6</title>
<g id="a_node6"><a xlink:href="classmagnumaf_1_1DemagFieldPBC.html" target="_top" xlink:title=" ">
<polygon fill="none" stroke="black" points="329.5,-300 329.5,-319 481.5,-319 481.5,-300 329.5,-300"/>
<text text-anchor="middle" x="405.5" y="-307" font-family="Helvetica,sans-Serif" font-size="10.00">magnumaf::DemagFieldPBC</text>
</a>
</g>
</g>
<!-- Node1&#45;&gt;Node6 -->
<g id="edge5" class="edge">
<title>Node1&#45;&gt;Node6</title>
<path fill="none" stroke="midnightblue" d="M243.62,-248.68C262.85,-261.54 292.16,-279.57 320,-290.5 329.66,-294.29 340.25,-297.42 350.57,-299.96"/>
<polygon fill="midnightblue" stroke="midnightblue" points="245.52,-245.74 235.28,-243.01 241.58,-251.53 245.52,-245.74"/>
</g>
<!-- Node7 -->
<g id="node7" class="node">
<title>Node7</title>
<g id="a_node7"><a xlink:href="classmagnumaf_1_1DmiField.html" target="_top" xlink:title=" ">
<polygon fill="none" stroke="black" points="346.5,-262 346.5,-281 464.5,-281 464.5,-262 346.5,-262"/>
<text text-anchor="middle" x="405.5" y="-269" font-family="Helvetica,sans-Serif" font-size="10.00">magnumaf::DmiField</text>
</a>
</g>
</g>
<!-- Node1&#45;&gt;Node7 -->
<g id="edge6" class="edge">
<title>Node1&#45;&gt;Node7</title>
<path fill="none" stroke="midnightblue" d="M278.1,-245.18C303.98,-250.57 334.31,-256.89 358.78,-261.98"/>
<polygon fill="midnightblue" stroke="midnightblue" points="278.56,-241.7 268.05,-243.09 277.13,-248.55 278.56,-241.7"/>
</g>
<!-- Node8 -->
<g id="node8" class="node">
<title>Node8</title>
<g id="a_node8"><a xlink:href="classmagnumaf_1_1ExchangeField.html" target="_top" xlink:title=" ">
<polygon fill="none" stroke="black" points="333,-224 333,-243 478,-243 478,-224 333,-224"/>
<text text-anchor="middle" x="405.5" y="-231" font-family="Helvetica,sans-Serif" font-size="10.00">magnumaf::ExchangeField</text>
</a>
</g>
</g>
<!-- Node1&#45;&gt;Node8 -->
<g id="edge7" class="edge">
<title>Node1&#45;&gt;Node8</title>
<path fill="none" stroke="midnightblue" d="M294.13,-233.5C306.88,-233.5 320.15,-233.5 332.88,-233.5"/>
<polygon fill="midnightblue" stroke="midnightblue" points="294.04,-230 284.04,-233.5 294.04,-237 294.04,-230"/>
</g>
<!-- Node9 -->
<g id="node9" class="node">
<title>Node9</title>
<g id="a_node9"><a xlink:href="classmagnumaf_1_1ExchangeFieldPBC.html" target="_top" xlink:title=" ">
<polygon fill="none" stroke="black" points="323.5,-186 323.5,-205 487.5,-205 487.5,-186 323.5,-186"/>
<text text-anchor="middle" x="405.5" y="-193" font-family="Helvetica,sans-Serif" font-size="10.00">magnumaf::ExchangeFieldPBC</text>
</a>
</g>
</g>
<!-- Node1&#45;&gt;Node9 -->
<g id="edge8" class="edge">
<title>Node1&#45;&gt;Node9</title>
<path fill="none" stroke="midnightblue" d="M278.1,-221.82C303.98,-216.43 334.31,-210.11 358.78,-205.02"/>
<polygon fill="midnightblue" stroke="midnightblue" points="277.13,-218.45 268.05,-223.91 278.56,-225.3 277.13,-218.45"/>
</g>
<!-- Node10 -->
<g id="node10" class="node">
<title>Node10</title>
<g id="a_node10"><a xlink:href="classmagnumaf_1_1RKKYExchangeField.html" target="_top" xlink:title="Combined Field for RKKY interaction between z&#45;neighbour&#45;cells and exchange interaction between not&#45;RK...">
<polygon fill="none" stroke="black" points="320,-148 320,-167 491,-167 491,-148 320,-148"/>
<text text-anchor="middle" x="405.5" y="-155" font-family="Helvetica,sans-Serif" font-size="10.00">magnumaf::RKKYExchangeField</text>
</a>
</g>
</g>
<!-- Node1&#45;&gt;Node10 -->
<g id="edge9" class="edge">
<title>Node1&#45;&gt;Node10</title>
<path fill="none" stroke="midnightblue" d="M243.62,-218.32C262.85,-205.46 292.16,-187.43 320,-176.5 329.66,-172.71 340.25,-169.58 350.57,-167.04"/>
<polygon fill="midnightblue" stroke="midnightblue" points="241.58,-215.47 235.28,-223.99 245.52,-221.26 241.58,-215.47"/>
</g>
<!-- Node11 -->
<g id="node11" class="node">
<title>Node11</title>
<g id="a_node11"><a xlink:href="classmagnumaf_1_1SparseExchangeField.html" target="_top" xlink:title=" ">
<polygon fill="none" stroke="black" points="328,-98.5 328,-128.5 483,-128.5 483,-98.5 328,-98.5"/>
<text text-anchor="start" x="336" y="-116.5" font-family="Helvetica,sans-Serif" font-size="10.00">magnumaf::SparseExchange</text>
<text text-anchor="middle" x="405.5" y="-105.5" font-family="Helvetica,sans-Serif" font-size="10.00">Field</text>
</a>
</g>
</g>
<!-- Node1&#45;&gt;Node11 -->
<g id="edge10" class="edge">
<title>Node1&#45;&gt;Node11</title>
<path fill="none" stroke="midnightblue" d="M235.55,-215.94C252.9,-194.62 284.93,-158.99 320,-138.5 326.6,-134.64 333.85,-131.34 341.24,-128.52"/>
<polygon fill="midnightblue" stroke="midnightblue" points="232.73,-213.86 229.25,-223.86 238.21,-218.21 232.73,-213.86"/>
</g>
<!-- Node12 -->
<g id="node12" class="node">
<title>Node12</title>
<g id="a_node12"><a xlink:href="classmagnumaf_1_1SpinTransferTorqueField.html" target="_top" xlink:title="Slonczewski Spin Transfer Torque model.">
<polygon fill="none" stroke="black" points="321.5,-49.5 321.5,-79.5 489.5,-79.5 489.5,-49.5 321.5,-49.5"/>
<text text-anchor="start" x="329.5" y="-67.5" font-family="Helvetica,sans-Serif" font-size="10.00">magnumaf::SpinTransferTorque</text>
<text text-anchor="middle" x="405.5" y="-56.5" font-family="Helvetica,sans-Serif" font-size="10.00">Field</text>
</a>
</g>
</g>
<!-- Node1&#45;&gt;Node12 -->
<g id="edge11" class="edge">
<title>Node1&#45;&gt;Node12</title>
<path fill="none" stroke="midnightblue" d="M229.71,-214.33C243.24,-183.15 274.23,-121.64 320,-88.5 324.69,-85.1 329.86,-82.18 335.24,-79.68"/>
<polygon fill="midnightblue" stroke="midnightblue" points="226.44,-213.08 225.8,-223.65 232.9,-215.78 226.44,-213.08"/>
</g>
<!-- Node13 -->
<g id="node13" class="node">
<title>Node13</title>
<g id="a_node13"><a xlink:href="classmagnumaf_1_1UniaxialAnisotropyField.html" target="_top" xlink:title=" ">
<polygon fill="none" stroke="black" points="321.5,-0.5 321.5,-30.5 489.5,-30.5 489.5,-0.5 321.5,-0.5"/>
<text text-anchor="start" x="329.5" y="-18.5" font-family="Helvetica,sans-Serif" font-size="10.00">magnumaf::UniaxialAnisotropy</text>
<text text-anchor="middle" x="405.5" y="-7.5" font-family="Helvetica,sans-Serif" font-size="10.00">Field</text>
</a>
</g>
</g>
<!-- Node1&#45;&gt;Node13 -->
<g id="edge12" class="edge">
<title>Node1&#45;&gt;Node13</title>
<path fill="none" stroke="midnightblue" d="M226.35,-213.8C236.04,-174.55 263.19,-86.38 320,-39.5 324.12,-36.1 328.69,-33.19 333.51,-30.68"/>
<polygon fill="midnightblue" stroke="midnightblue" points="222.9,-213.16 224.02,-223.7 229.71,-214.76 222.9,-213.16"/>
</g>
<!-- Node2 -->
<g id="node2" class="node">
<title>Node2</title>
<g id="a_node2"><a xlink:href="classmagnumaf_1_1FieldTerm.html" target="_top" xlink:title=" ">
<polygon fill="none" stroke="black" points="0,-224 0,-243 122,-243 122,-224 0,-224"/>
<text text-anchor="middle" x="61" y="-231" font-family="Helvetica,sans-Serif" font-size="10.00">magnumaf::FieldTerm</text>
</a>
</g>
</g>
<!-- Node2&#45;&gt;Node1 -->
<g id="edge1" class="edge">
<title>Node2&#45;&gt;Node1</title>
<path fill="none" stroke="midnightblue" d="M132.44,-233.5C140.92,-233.5 149.53,-233.5 157.89,-233.5"/>
<polygon fill="midnightblue" stroke="midnightblue" points="132.18,-230 122.18,-233.5 132.18,-237 132.18,-230"/>
</g>
</g>
</svg>
