<?xml version="1.0" encoding="UTF-8" standalone="no"?>
<!DOCTYPE svg PUBLIC "-//W3C//DTD SVG 1.1//EN"
 "http://www.w3.org/Graphics/SVG/1.1/DTD/svg11.dtd">
<!-- Generated by graphviz version 2.43.0 (0)
 -->
<!-- Title: magnumaf::NonequiDemagField Pages: 1 -->
<svg width="343pt" height="241pt"
 viewBox="0.00 0.00 342.50 241.00" xmlns="http://www.w3.org/2000/svg" xmlns:xlink="http://www.w3.org/1999/xlink">
<g id="graph0" class="graph" transform="scale(1 1) rotate(0) translate(4 237)">
<title>magnumaf::NonequiDemagField</title>
<!-- Node1 -->
<g id="node1" class="node">
<title>Node1</title>
<g id="a_node1"><a xlink:title=" ">
<polygon fill="#bfbfbf" stroke="black" points="0,-0.5 0,-19.5 173,-19.5 173,-0.5 0,-0.5"/>
<text text-anchor="middle" x="86.5" y="-7.5" font-family="Helvetica,sans-Serif" font-size="10.00">magnumaf::NonequiDemagField</text>
</a>
</g>
</g>
<!-- Node2 -->
<g id="node2" class="node">
<title>Node2</title>
<g id="a_node2"><a xlink:href="classmagnumaf_1_1NonequiTerm.html" target="_top" xlink:title=" ">
<polygon fill="none" stroke="black" points="16.5,-57.5 16.5,-76.5 156.5,-76.5 156.5,-57.5 16.5,-57.5"/>
<text text-anchor="middle" x="86.5" y="-64.5" font-family="Helvetica,sans-Serif" font-size="10.00">magnumaf::NonequiTerm</text>
</a>
</g>
</g>
<!-- Node2&#45;&gt;Node1 -->
<g id="edge1" class="edge">
<title>Node2&#45;&gt;Node1</title>
<path fill="none" stroke="midnightblue" d="M86.5,-47.12C86.5,-37.82 86.5,-27.06 86.5,-19.71"/>
<polygon fill="midnightblue" stroke="midnightblue" points="83,-47.41 86.5,-57.41 90,-47.41 83,-47.41"/>
</g>
<!-- Node3 -->
<g id="node3" class="node">
<title>Node3</title>
<g id="a_node3"><a xlink:href="classmagnumaf_1_1FieldTerm.html" target="_top" xlink:title=" ">
<polygon fill="none" stroke="black" points="9.5,-124.5 9.5,-143.5 131.5,-143.5 131.5,-124.5 9.5,-124.5"/>
<text text-anchor="middle" x="70.5" y="-131.5" font-family="Helvetica,sans-Serif" font-size="10.00">magnumaf::FieldTerm</text>
</a>
</g>
</g>
<!-- Node3&#45;&gt;Node2 -->
<g id="edge2" class="edge">
<title>Node3&#45;&gt;Node2</title>
<path fill="none" stroke="midnightblue" d="M75.07,-114.41C78.13,-101.99 82.02,-86.22 84.38,-76.63"/>
<polygon fill="midnightblue" stroke="midnightblue" points="71.65,-113.69 72.66,-124.23 78.45,-115.36 71.65,-113.69"/>
</g>
<!-- Node4 -->
<g id="node4" class="node">
<title>Node4</title>
<g id="a_node4"><a xlink:href="structmagnumaf_1_1NonequiMesh.html" target="_top" xlink:title=" ">
<polygon fill="none" stroke="black" points="149.5,-124.5 149.5,-143.5 291.5,-143.5 291.5,-124.5 149.5,-124.5"/>
<text text-anchor="middle" x="220.5" y="-131.5" font-family="Helvetica,sans-Serif" font-size="10.00">magnumaf::NonequiMesh</text>
</a>
</g>
</g>
<!-- Node4&#45;&gt;Node2 -->
<g id="edge3" class="edge">
<title>Node4&#45;&gt;Node2</title>
<path fill="none" stroke="#9a32cd" stroke-dasharray="5,2" d="M193.58,-119.94C167.04,-107.07 127.23,-87.76 104.37,-76.67"/>
<polygon fill="#9a32cd" stroke="#9a32cd" points="192.18,-123.15 202.71,-124.37 195.24,-116.85 192.18,-123.15"/>
<text text-anchor="middle" x="184" y="-98" font-family="Helvetica,sans-Serif" font-size="10.00"> nemesh</text>
</g>
<!-- Node5 -->
<g id="node5" class="node">
<title>Node5</title>
<g id="a_node5"><a xlink:title=" ">
<polygon fill="none" stroke="#bfbfbf" points="147,-213.5 147,-232.5 192,-232.5 192,-213.5 147,-213.5"/>
<text text-anchor="middle" x="169.5" y="-220.5" font-family="Helvetica,sans-Serif" font-size="10.00">size_t</text>
</a>
</g>
</g>
<!-- Node5&#45;&gt;Node4 -->
<g id="edge4" class="edge">
<title>Node5&#45;&gt;Node4</title>
<path fill="none" stroke="#9a32cd" stroke-dasharray="5,2" d="M179.77,-204.49C190.58,-186.03 207.17,-157.74 215.44,-143.62"/>
<polygon fill="#9a32cd" stroke="#9a32cd" points="176.61,-202.94 174.58,-213.34 182.65,-206.48 176.61,-202.94"/>
<text text-anchor="middle" x="212.5" y="-187" font-family="Helvetica,sans-Serif" font-size="10.00"> nx</text>
<text text-anchor="middle" x="212.5" y="-176" font-family="Helvetica,sans-Serif" font-size="10.00">ny</text>
<text text-anchor="middle" x="212.5" y="-165" font-family="Helvetica,sans-Serif" font-size="10.00">nz</text>
</g>
<!-- Node6 -->
<g id="node6" class="node">
<title>Node6</title>
<g id="a_node6"><a xlink:title=" ">
<polygon fill="none" stroke="#bfbfbf" points="210.5,-213.5 210.5,-232.5 334.5,-232.5 334.5,-213.5 210.5,-213.5"/>
<text text-anchor="middle" x="272.5" y="-220.5" font-family="Helvetica,sans-Serif" font-size="10.00">std::vector&lt; double &gt;</text>
</a>
</g>
</g>
<!-- Node6&#45;&gt;Node4 -->
<g id="edge5" class="edge">
<title>Node6&#45;&gt;Node4</title>
<path fill="none" stroke="#9a32cd" stroke-dasharray="5,2" d="M262.18,-204.74C251.16,-186.3 234.13,-157.8 225.66,-143.62"/>
<polygon fill="#9a32cd" stroke="#9a32cd" points="259.19,-206.55 267.32,-213.34 265.2,-202.96 259.19,-206.55"/>
<text text-anchor="middle" x="281.5" y="-176" font-family="Helvetica,sans-Serif" font-size="10.00"> z_spacing</text>
</g>
</g>
</svg>
