<?xml version="1.0" encoding="UTF-8" standalone="no"?>
<!DOCTYPE svg PUBLIC "-//W3C//DTD SVG 1.1//EN"
 "http://www.w3.org/Graphics/SVG/1.1/DTD/svg11.dtd">
<!-- Generated by graphviz version 2.43.0 (0)
 -->
<!-- Title: Graphical Class Hierarchy Pages: 1 -->
<svg width="515pt" height="923pt"
 viewBox="0.00 0.00 515.00 923.00" xmlns="http://www.w3.org/2000/svg" xmlns:xlink="http://www.w3.org/1999/xlink">
<g id="graph0" class="graph" transform="scale(1 1) rotate(0) translate(4 919)">
<title>Graphical Class Hierarchy</title>
<!-- Node0 -->
<g id="node1" class="node">
<title>Node0</title>
<g id="a_node1"><a xlink:href="classmagnumaf_1_1FieldTerm.html" target="_top" xlink:title=" ">
<polygon fill="none" stroke="black" points="0,-576 0,-595 122,-595 122,-576 0,-576"/>
<text text-anchor="middle" x="61" y="-583" font-family="Helvetica,sans-Serif" font-size="10.00">magnumaf::FieldTerm</text>
</a>
</g>
</g>
<!-- Node1 -->
<g id="node2" class="node">
<title>Node1</title>
<g id="a_node2"><a xlink:href="classmagnumaf_1_1AtomTerm.html" target="_top" xlink:title=" ">
<polygon fill="none" stroke="black" points="165.5,-802 165.5,-821 290.5,-821 290.5,-802 165.5,-802"/>
<text text-anchor="middle" x="228" y="-809" font-family="Helvetica,sans-Serif" font-size="10.00">magnumaf::AtomTerm</text>
</a>
</g>
</g>
<!-- Node0&#45;&gt;Node1 -->
<g id="edge1" class="edge">
<title>Node0&#45;&gt;Node1</title>
<path fill="none" stroke="midnightblue" d="M75.16,-603.52C108.35,-648.98 194.65,-767.18 219.94,-801.83"/>
<polygon fill="midnightblue" stroke="midnightblue" points="77.81,-601.22 69.09,-595.21 72.16,-605.35 77.81,-601.22"/>
</g>
<!-- Node6 -->
<g id="node7" class="node">
<title>Node6</title>
<g id="a_node7"><a xlink:href="classmagnumaf_1_1ExternalField.html" target="_top" xlink:title=" ">
<polygon fill="none" stroke="black" points="159,-640 159,-659 297,-659 297,-640 159,-640"/>
<text text-anchor="middle" x="228" y="-647" font-family="Helvetica,sans-Serif" font-size="10.00">magnumaf::ExternalField</text>
</a>
</g>
</g>
<!-- Node0&#45;&gt;Node6 -->
<g id="edge6" class="edge">
<title>Node0&#45;&gt;Node6</title>
<path fill="none" stroke="midnightblue" d="M96.43,-598.86C128.11,-611.14 174.29,-629.06 202.4,-639.96"/>
<polygon fill="midnightblue" stroke="midnightblue" points="97.29,-595.43 86.7,-595.08 94.76,-601.96 97.29,-595.43"/>
</g>
<!-- Node8 -->
<g id="node9" class="node">
<title>Node8</title>
<g id="a_node9"><a xlink:href="classmagnumaf_1_1MicroTerm.html" target="_top" xlink:title=" ">
<polygon fill="none" stroke="black" points="165,-448 165,-467 291,-467 291,-448 165,-448"/>
<text text-anchor="middle" x="228" y="-455" font-family="Helvetica,sans-Serif" font-size="10.00">magnumaf::MicroTerm</text>
</a>
</g>
</g>
<!-- Node0&#45;&gt;Node8 -->
<g id="edge8" class="edge">
<title>Node0&#45;&gt;Node8</title>
<path fill="none" stroke="midnightblue" d="M82.4,-569.67C116.99,-542.84 186.13,-489.21 214.45,-467.23"/>
<polygon fill="midnightblue" stroke="midnightblue" points="80.16,-566.98 74.4,-575.88 84.45,-572.52 80.16,-566.98"/>
</g>
<!-- Node21 -->
<g id="node22" class="node">
<title>Node21</title>
<g id="a_node22"><a xlink:href="classmagnumaf_1_1NonequiTerm.html" target="_top" xlink:title=" ">
<polygon fill="none" stroke="black" points="158,-104 158,-123 298,-123 298,-104 158,-104"/>
<text text-anchor="middle" x="228" y="-111" font-family="Helvetica,sans-Serif" font-size="10.00">magnumaf::NonequiTerm</text>
</a>
</g>
</g>
<!-- Node0&#45;&gt;Node21 -->
<g id="edge21" class="edge">
<title>Node0&#45;&gt;Node21</title>
<path fill="none" stroke="midnightblue" d="M68.89,-565.79C97.08,-485.14 203.12,-181.82 223.57,-123.3"/>
<polygon fill="midnightblue" stroke="midnightblue" points="65.44,-565.05 65.45,-575.64 72.05,-567.36 65.44,-565.05"/>
</g>
<!-- Node2 -->
<g id="node3" class="node">
<title>Node2</title>
<g id="a_node3"><a xlink:href="classmagnumaf_1_1AtomisticDipoleDipoleField.html" target="_top" xlink:title=" ">
<polygon fill="none" stroke="black" points="344,-884.5 344,-914.5 497,-914.5 497,-884.5 344,-884.5"/>
<text text-anchor="start" x="352" y="-902.5" font-family="Helvetica,sans-Serif" font-size="10.00">magnumaf::AtomisticDipole</text>
<text text-anchor="middle" x="420.5" y="-891.5" font-family="Helvetica,sans-Serif" font-size="10.00">DipoleField</text>
</a>
</g>
</g>
<!-- Node1&#45;&gt;Node2 -->
<g id="edge2" class="edge">
<title>Node1&#45;&gt;Node2</title>
<path fill="none" stroke="midnightblue" d="M250.67,-826.76C271.3,-840.74 303.63,-861.21 334,-874.5 342.36,-878.16 351.41,-881.46 360.38,-884.37"/>
<polygon fill="midnightblue" stroke="midnightblue" points="252.55,-823.81 242.32,-821.03 248.58,-829.58 252.55,-823.81"/>
</g>
<!-- Node3 -->
<g id="node4" class="node">
<title>Node3</title>
<g id="a_node4"><a xlink:href="classmagnumaf_1_1AtomisticDmiField.html" target="_top" xlink:title=" ">
<polygon fill="none" stroke="black" points="338.5,-846 338.5,-865 502.5,-865 502.5,-846 338.5,-846"/>
<text text-anchor="middle" x="420.5" y="-853" font-family="Helvetica,sans-Serif" font-size="10.00">magnumaf::AtomisticDmiField</text>
</a>
</g>
</g>
<!-- Node1&#45;&gt;Node3 -->
<g id="edge3" class="edge">
<title>Node1&#45;&gt;Node3</title>
<path fill="none" stroke="midnightblue" d="M278.39,-823.42C295.93,-827.61 315.83,-832.32 334,-836.5 347.63,-839.64 362.51,-842.97 375.98,-845.96"/>
<polygon fill="midnightblue" stroke="midnightblue" points="278.9,-819.94 268.36,-821.02 277.27,-826.75 278.9,-819.94"/>
</g>
<!-- Node4 -->
<g id="node5" class="node">
<title>Node4</title>
<g id="a_node5"><a xlink:href="classmagnumaf_1_1AtomisticExchangeField.html" target="_top" xlink:title=" ">
<polygon fill="none" stroke="black" points="336,-796.5 336,-826.5 505,-826.5 505,-796.5 336,-796.5"/>
<text text-anchor="start" x="344" y="-814.5" font-family="Helvetica,sans-Serif" font-size="10.00">magnumaf::AtomisticExchange</text>
<text text-anchor="middle" x="420.5" y="-803.5" font-family="Helvetica,sans-Serif" font-size="10.00">Field</text>
</a>
</g>
</g>
<!-- Node1&#45;&gt;Node4 -->
<g id="edge4" class="edge">
<title>Node1&#45;&gt;Node4</title>
<path fill="none" stroke="midnightblue" d="M300.93,-811.5C312.36,-811.5 324.26,-811.5 335.93,-811.5"/>
<polygon fill="midnightblue" stroke="midnightblue" points="300.59,-808 290.59,-811.5 300.59,-815 300.59,-808"/>
</g>
<!-- Node5 -->
<g id="node6" class="node">
<title>Node5</title>
<g id="a_node6"><a xlink:href="classmagnumaf_1_1AtomisticUniaxialAnisotropyField.html" target="_top" xlink:title=" ">
<polygon fill="none" stroke="black" points="339.5,-747.5 339.5,-777.5 501.5,-777.5 501.5,-747.5 339.5,-747.5"/>
<text text-anchor="start" x="347.5" y="-765.5" font-family="Helvetica,sans-Serif" font-size="10.00">magnumaf::AtomisticUniaxial</text>
<text text-anchor="middle" x="420.5" y="-754.5" font-family="Helvetica,sans-Serif" font-size="10.00">AnisotropyField</text>
</a>
</g>
</g>
<!-- Node1&#45;&gt;Node5 -->
<g id="edge5" class="edge">
<title>Node1&#45;&gt;Node5</title>
<path fill="none" stroke="midnightblue" d="M276.05,-799.4C301.73,-792.79 333.76,-784.55 361.04,-777.54"/>
<polygon fill="midnightblue" stroke="midnightblue" points="275,-796.06 266.18,-801.94 276.74,-802.83 275,-796.06"/>
</g>
<!-- Node7 -->
<g id="node8" class="node">
<title>Node7</title>
<g id="a_node8"><a xlink:href="classmagnumaf_1_1AtomisticExternalField.html" target="_top" xlink:title=" ">
<polygon fill="none" stroke="black" points="339.5,-698.5 339.5,-728.5 501.5,-728.5 501.5,-698.5 339.5,-698.5"/>
<text text-anchor="start" x="347.5" y="-716.5" font-family="Helvetica,sans-Serif" font-size="10.00">magnumaf::AtomisticExternal</text>
<text text-anchor="middle" x="420.5" y="-705.5" font-family="Helvetica,sans-Serif" font-size="10.00">Field</text>
</a>
</g>
</g>
<!-- Node6&#45;&gt;Node7 -->
<g id="edge7" class="edge">
<title>Node6&#45;&gt;Node7</title>
<path fill="none" stroke="midnightblue" d="M261.67,-662.82C282.25,-670.99 309.48,-681.41 334,-689.5 343.37,-692.59 353.4,-695.64 363.17,-698.47"/>
<polygon fill="midnightblue" stroke="midnightblue" points="262.72,-659.47 252.14,-659.01 260.12,-665.97 262.72,-659.47"/>
</g>
<!-- Node9 -->
<g id="node10" class="node">
<title>Node9</title>
<g id="a_node10"><a xlink:href="classmagnumaf_1_1BulkDMIExchangeField.html" target="_top" xlink:title="Combined bulk DMI and exchange Field.">
<polygon fill="none" stroke="black" points="338.5,-649.5 338.5,-679.5 502.5,-679.5 502.5,-649.5 338.5,-649.5"/>
<text text-anchor="start" x="346.5" y="-667.5" font-family="Helvetica,sans-Serif" font-size="10.00">magnumaf::BulkDMIExchange</text>
<text text-anchor="middle" x="420.5" y="-656.5" font-family="Helvetica,sans-Serif" font-size="10.00">Field</text>
</a>
</g>
</g>
<!-- Node8&#45;&gt;Node9 -->
<g id="edge9" class="edge">
<title>Node8&#45;&gt;Node9</title>
<path fill="none" stroke="midnightblue" d="M234.65,-476.9C246.59,-514.37 277.98,-596.86 334,-640.5 338.38,-643.91 343.22,-646.84 348.3,-649.35"/>
<polygon fill="midnightblue" stroke="midnightblue" points="237.96,-475.73 231.68,-467.2 231.26,-477.78 237.96,-475.73"/>
</g>
<!-- Node10 -->
<g id="node11" class="node">
<title>Node10</title>
<g id="a_node11"><a xlink:href="classmagnumaf_1_1CubicAnisotropyField.html" target="_top" xlink:title=" ">
<polygon fill="none" stroke="black" points="343,-600.5 343,-630.5 498,-630.5 498,-600.5 343,-600.5"/>
<text text-anchor="start" x="351" y="-618.5" font-family="Helvetica,sans-Serif" font-size="10.00">magnumaf::CubicAnisotropy</text>
<text text-anchor="middle" x="420.5" y="-607.5" font-family="Helvetica,sans-Serif" font-size="10.00">Field</text>
</a>
</g>
</g>
<!-- Node8&#45;&gt;Node10 -->
<g id="edge10" class="edge">
<title>Node8&#45;&gt;Node10</title>
<path fill="none" stroke="midnightblue" d="M238.76,-476.25C254.75,-505.14 289.28,-560.33 334,-590.5 339.77,-594.39 346.15,-597.69 352.75,-600.48"/>
<polygon fill="midnightblue" stroke="midnightblue" points="241.71,-474.36 233.89,-467.22 235.55,-477.68 241.71,-474.36"/>
</g>
<!-- Node11 -->
<g id="node12" class="node">
<title>Node11</title>
<g id="a_node12"><a xlink:href="classmagnumaf_1_1DMI__D2d__Field.html" target="_top" xlink:title=" ">
<polygon fill="none" stroke="black" points="347,-562 347,-581 494,-581 494,-562 347,-562"/>
<text text-anchor="middle" x="420.5" y="-569" font-family="Helvetica,sans-Serif" font-size="10.00">magnumaf::DMI_D2d_Field</text>
</a>
</g>
</g>
<!-- Node8&#45;&gt;Node11 -->
<g id="edge11" class="edge">
<title>Node8&#45;&gt;Node11</title>
<path fill="none" stroke="midnightblue" d="M243.03,-474.81C261.54,-496.44 296.21,-532.97 334,-552.5 341.56,-556.41 349.91,-559.52 358.34,-561.99"/>
<polygon fill="midnightblue" stroke="midnightblue" points="245.65,-472.49 236.55,-467.06 240.28,-476.98 245.65,-472.49"/>
</g>
<!-- Node12 -->
<g id="node13" class="node">
<title>Node12</title>
<g id="a_node13"><a xlink:href="classmagnumaf_1_1DemagField.html" target="_top" xlink:title=" ">
<polygon fill="none" stroke="black" points="354,-524 354,-543 487,-543 487,-524 354,-524"/>
<text text-anchor="middle" x="420.5" y="-531" font-family="Helvetica,sans-Serif" font-size="10.00">magnumaf::DemagField</text>
</a>
</g>
</g>
<!-- Node8&#45;&gt;Node12 -->
<g id="edge12" class="edge">
<title>Node8&#45;&gt;Node12</title>
<path fill="none" stroke="midnightblue" d="M252.39,-472.67C273.09,-485.49 304.52,-503.47 334,-514.5 343.97,-518.23 354.88,-521.34 365.47,-523.89"/>
<polygon fill="midnightblue" stroke="midnightblue" points="254,-469.55 243.67,-467.19 250.27,-475.48 254,-469.55"/>
</g>
<!-- Node13 -->
<g id="node14" class="node">
<title>Node13</title>
<g id="a_node14"><a xlink:href="classmagnumaf_1_1DemagFieldPBC.html" target="_top" xlink:title=" ">
<polygon fill="none" stroke="black" points="344.5,-486 344.5,-505 496.5,-505 496.5,-486 344.5,-486"/>
<text text-anchor="middle" x="420.5" y="-493" font-family="Helvetica,sans-Serif" font-size="10.00">magnumaf::DemagFieldPBC</text>
</a>
</g>
</g>
<!-- Node8&#45;&gt;Node13 -->
<g id="edge13" class="edge">
<title>Node8&#45;&gt;Node13</title>
<path fill="none" stroke="midnightblue" d="M287.2,-469.11C314.29,-474.51 346.13,-480.86 371.77,-485.98"/>
<polygon fill="midnightblue" stroke="midnightblue" points="287.56,-465.61 277.07,-467.09 286.19,-472.48 287.56,-465.61"/>
</g>
<!-- Node14 -->
<g id="node15" class="node">
<title>Node14</title>
<g id="a_node15"><a xlink:href="classmagnumaf_1_1DmiField.html" target="_top" xlink:title=" ">
<polygon fill="none" stroke="black" points="361.5,-448 361.5,-467 479.5,-467 479.5,-448 361.5,-448"/>
<text text-anchor="middle" x="420.5" y="-455" font-family="Helvetica,sans-Serif" font-size="10.00">magnumaf::DmiField</text>
</a>
</g>
</g>
<!-- Node8&#45;&gt;Node14 -->
<g id="edge14" class="edge">
<title>Node8&#45;&gt;Node14</title>
<path fill="none" stroke="midnightblue" d="M301.34,-457.5C321.17,-457.5 342.42,-457.5 361.35,-457.5"/>
<polygon fill="midnightblue" stroke="midnightblue" points="301.11,-454 291.11,-457.5 301.11,-461 301.11,-454"/>
</g>
<!-- Node15 -->
<g id="node16" class="node">
<title>Node15</title>
<g id="a_node16"><a xlink:href="classmagnumaf_1_1ExchangeField.html" target="_top" xlink:title=" ">
<polygon fill="none" stroke="black" points="348,-410 348,-429 493,-429 493,-410 348,-410"/>
<text text-anchor="middle" x="420.5" y="-417" font-family="Helvetica,sans-Serif" font-size="10.00">magnumaf::ExchangeField</text>
</a>
</g>
</g>
<!-- Node8&#45;&gt;Node15 -->
<g id="edge15" class="edge">
<title>Node8&#45;&gt;Node15</title>
<path fill="none" stroke="midnightblue" d="M287.2,-445.89C314.29,-440.49 346.13,-434.14 371.77,-429.02"/>
<polygon fill="midnightblue" stroke="midnightblue" points="286.19,-442.52 277.07,-447.91 287.56,-449.39 286.19,-442.52"/>
</g>
<!-- Node16 -->
<g id="node17" class="node">
<title>Node16</title>
<g id="a_node17"><a xlink:href="classmagnumaf_1_1ExchangeFieldPBC.html" target="_top" xlink:title=" ">
<polygon fill="none" stroke="black" points="338.5,-372 338.5,-391 502.5,-391 502.5,-372 338.5,-372"/>
<text text-anchor="middle" x="420.5" y="-379" font-family="Helvetica,sans-Serif" font-size="10.00">magnumaf::ExchangeFieldPBC</text>
</a>
</g>
</g>
<!-- Node8&#45;&gt;Node16 -->
<g id="edge16" class="edge">
<title>Node8&#45;&gt;Node16</title>
<path fill="none" stroke="midnightblue" d="M252.39,-442.33C273.09,-429.51 304.52,-411.53 334,-400.5 343.97,-396.77 354.88,-393.66 365.47,-391.11"/>
<polygon fill="midnightblue" stroke="midnightblue" points="250.27,-439.52 243.67,-447.81 254,-445.45 250.27,-439.52"/>
</g>
<!-- Node17 -->
<g id="node18" class="node">
<title>Node17</title>
<g id="a_node18"><a xlink:href="classmagnumaf_1_1RKKYExchangeField.html" target="_top" xlink:title="Combined Field for RKKY interaction between z&#45;neighbour&#45;cells and exchange interaction between not&#45;RK...">
<polygon fill="none" stroke="black" points="335,-334 335,-353 506,-353 506,-334 335,-334"/>
<text text-anchor="middle" x="420.5" y="-341" font-family="Helvetica,sans-Serif" font-size="10.00">magnumaf::RKKYExchangeField</text>
</a>
</g>
</g>
<!-- Node8&#45;&gt;Node17 -->
<g id="edge17" class="edge">
<title>Node8&#45;&gt;Node17</title>
<path fill="none" stroke="midnightblue" d="M243.03,-440.19C261.54,-418.56 296.21,-382.03 334,-362.5 341.56,-358.59 349.91,-355.48 358.34,-353.01"/>
<polygon fill="midnightblue" stroke="midnightblue" points="240.28,-438.02 236.55,-447.94 245.65,-442.51 240.28,-438.02"/>
</g>
<!-- Node18 -->
<g id="node19" class="node">
<title>Node18</title>
<g id="a_node19"><a xlink:href="classmagnumaf_1_1SparseExchangeField.html" target="_top" xlink:title=" ">
<polygon fill="none" stroke="black" points="343,-284.5 343,-314.5 498,-314.5 498,-284.5 343,-284.5"/>
<text text-anchor="start" x="351" y="-302.5" font-family="Helvetica,sans-Serif" font-size="10.00">magnumaf::SparseExchange</text>
<text text-anchor="middle" x="420.5" y="-291.5" font-family="Helvetica,sans-Serif" font-size="10.00">Field</text>
</a>
</g>
</g>
<!-- Node8&#45;&gt;Node18 -->
<g id="edge18" class="edge">
<title>Node8&#45;&gt;Node18</title>
<path fill="none" stroke="midnightblue" d="M238.76,-438.75C254.75,-409.86 289.28,-354.67 334,-324.5 339.77,-320.61 346.15,-317.31 352.75,-314.52"/>
<polygon fill="midnightblue" stroke="midnightblue" points="235.55,-437.32 233.89,-447.78 241.71,-440.64 235.55,-437.32"/>
</g>
<!-- Node19 -->
<g id="node20" class="node">
<title>Node19</title>
<g id="a_node20"><a xlink:href="classmagnumaf_1_1SpinTransferTorqueField.html" target="_top" xlink:title="Slonczewski Spin Transfer Torque model.">
<polygon fill="none" stroke="black" points="336.5,-235.5 336.5,-265.5 504.5,-265.5 504.5,-235.5 336.5,-235.5"/>
<text text-anchor="start" x="344.5" y="-253.5" font-family="Helvetica,sans-Serif" font-size="10.00">magnumaf::SpinTransferTorque</text>
<text text-anchor="middle" x="420.5" y="-242.5" font-family="Helvetica,sans-Serif" font-size="10.00">Field</text>
</a>
</g>
</g>
<!-- Node8&#45;&gt;Node19 -->
<g id="edge19" class="edge">
<title>Node8&#45;&gt;Node19</title>
<path fill="none" stroke="midnightblue" d="M234.73,-438.26C246.79,-401.08 278.39,-319.19 334,-275.5 338.86,-271.68 344.3,-268.44 350,-265.7"/>
<polygon fill="midnightblue" stroke="midnightblue" points="231.36,-437.29 231.72,-447.88 238.04,-439.38 231.36,-437.29"/>
</g>
<!-- Node20 -->
<g id="node21" class="node">
<title>Node20</title>
<g id="a_node21"><a xlink:href="classmagnumaf_1_1UniaxialAnisotropyField.html" target="_top" xlink:title=" ">
<polygon fill="none" stroke="black" points="336.5,-186.5 336.5,-216.5 504.5,-216.5 504.5,-186.5 336.5,-186.5"/>
<text text-anchor="start" x="344.5" y="-204.5" font-family="Helvetica,sans-Serif" font-size="10.00">magnumaf::UniaxialAnisotropy</text>
<text text-anchor="middle" x="420.5" y="-193.5" font-family="Helvetica,sans-Serif" font-size="10.00">Field</text>
</a>
</g>
</g>
<!-- Node8&#45;&gt;Node20 -->
<g id="edge20" class="edge">
<title>Node8&#45;&gt;Node20</title>
<path fill="none" stroke="midnightblue" d="M232.25,-437.82C240.65,-393.33 267.25,-284.37 334,-226.5 338.44,-222.65 343.45,-219.39 348.75,-216.64"/>
<polygon fill="midnightblue" stroke="midnightblue" points="228.76,-437.44 230.46,-447.9 235.66,-438.67 228.76,-437.44"/>
</g>
<!-- Node22 -->
<g id="node23" class="node">
<title>Node22</title>
<g id="a_node23"><a xlink:href="classmagnumaf_1_1NonequiDemagField.html" target="_top" xlink:title=" ">
<polygon fill="none" stroke="black" points="334,-148 334,-167 507,-167 507,-148 334,-148"/>
<text text-anchor="middle" x="420.5" y="-155" font-family="Helvetica,sans-Serif" font-size="10.00">magnumaf::NonequiDemagField</text>
</a>
</g>
</g>
<!-- Node21&#45;&gt;Node22 -->
<g id="edge22" class="edge">
<title>Node21&#45;&gt;Node22</title>
<path fill="none" stroke="midnightblue" d="M278.39,-125.42C295.93,-129.61 315.83,-134.32 334,-138.5 347.63,-141.64 362.51,-144.97 375.98,-147.96"/>
<polygon fill="midnightblue" stroke="midnightblue" points="278.9,-121.94 268.36,-123.02 277.27,-128.75 278.9,-121.94"/>
</g>
<!-- Node23 -->
<g id="node24" class="node">
<title>Node23</title>
<g id="a_node24"><a xlink:href="classmagnumaf_1_1NonequiExchangeField.html" target="_top" xlink:title="Nonequispaced Exchange Field.">
<polygon fill="none" stroke="black" points="339,-98.5 339,-128.5 502,-128.5 502,-98.5 339,-98.5"/>
<text text-anchor="start" x="347" y="-116.5" font-family="Helvetica,sans-Serif" font-size="10.00">magnumaf::NonequiExchange</text>
<text text-anchor="middle" x="420.5" y="-105.5" font-family="Helvetica,sans-Serif" font-size="10.00">Field</text>
</a>
</g>
</g>
<!-- Node21&#45;&gt;Node23 -->
<g id="edge23" class="edge">
<title>Node21&#45;&gt;Node23</title>
<path fill="none" stroke="midnightblue" d="M308.07,-113.5C318.19,-113.5 328.56,-113.5 338.71,-113.5"/>
<polygon fill="midnightblue" stroke="midnightblue" points="308.04,-110 298.04,-113.5 308.04,-117 308.04,-110"/>
</g>
<!-- Node24 -->
<g id="node25" class="node">
<title>Node24</title>
<g id="a_node25"><a xlink:href="classmagnumaf_1_1NonequiExternalField.html" target="_top" xlink:title=" ">
<polygon fill="none" stroke="black" points="342.5,-49.5 342.5,-79.5 498.5,-79.5 498.5,-49.5 342.5,-49.5"/>
<text text-anchor="start" x="350.5" y="-67.5" font-family="Helvetica,sans-Serif" font-size="10.00">magnumaf::NonequiExternal</text>
<text text-anchor="middle" x="420.5" y="-56.5" font-family="Helvetica,sans-Serif" font-size="10.00">Field</text>
</a>
</g>
</g>
<!-- Node21&#45;&gt;Node24 -->
<g id="edge24" class="edge">
<title>Node21&#45;&gt;Node24</title>
<path fill="none" stroke="midnightblue" d="M276.05,-101.4C301.73,-94.79 333.76,-86.55 361.04,-79.54"/>
<polygon fill="midnightblue" stroke="midnightblue" points="275,-98.06 266.18,-103.94 276.74,-104.83 275,-98.06"/>
</g>
<!-- Node25 -->
<g id="node26" class="node">
<title>Node25</title>
<g id="a_node26"><a xlink:href="classmagnumaf_1_1NonequiUniaxialAnisotropyField.html" target="_top" xlink:title=" ">
<polygon fill="none" stroke="black" points="342.5,-0.5 342.5,-30.5 498.5,-30.5 498.5,-0.5 342.5,-0.5"/>
<text text-anchor="start" x="350.5" y="-18.5" font-family="Helvetica,sans-Serif" font-size="10.00">magnumaf::NonequiUniaxial</text>
<text text-anchor="middle" x="420.5" y="-7.5" font-family="Helvetica,sans-Serif" font-size="10.00">AnisotropyField</text>
</a>
</g>
</g>
<!-- Node21&#45;&gt;Node25 -->
<g id="edge25" class="edge">
<title>Node21&#45;&gt;Node25</title>
<path fill="none" stroke="midnightblue" d="M248,-97.44C268.17,-81.09 301.58,-56 334,-40.5 341.81,-36.76 350.3,-33.47 358.79,-30.59"/>
<polygon fill="midnightblue" stroke="midnightblue" points="245.69,-94.8 240.2,-103.86 250.14,-100.2 245.69,-94.8"/>
</g>
</g>
</svg>
