<?xml version="1.0" encoding="UTF-8" standalone="no"?>
<!DOCTYPE svg PUBLIC "-//W3C//DTD SVG 1.1//EN"
 "http://www.w3.org/Graphics/SVG/1.1/DTD/svg11.dtd">
<!-- Generated by graphviz version 2.43.0 (0)
 -->
<!-- Title: Graphical Class Hierarchy Pages: 1 -->
<svg width="354pt" height="923pt"
 viewBox="0.00 0.00 354.00 923.00" xmlns="http://www.w3.org/2000/svg" xmlns:xlink="http://www.w3.org/1999/xlink">
<g id="graph0" class="graph" transform="scale(1 1) rotate(0) translate(4 919)">
<title>Graphical Class Hierarchy</title>
<!-- Node0 -->
<g id="node1" class="node">
<title>Node0</title>
<g id="a_node1"><a xlink:href="classmagnumafpy_1_1HeffTerm.html" target="_top" xlink:title=" ">
<polygon fill="none" stroke="black" points="0,-448 0,-467 128,-467 128,-448 0,-448"/>
<text text-anchor="middle" x="64" y="-455" font-family="Helvetica,sans-Serif" font-size="10.00">magnumafpy.HeffTerm</text>
</a>
</g>
</g>
<!-- Node1 -->
<g id="node2" class="node">
<title>Node1</title>
<g id="a_node2"><a xlink:href="classmagnumafpy_1_1AtomisticDipoleDipoleField.html" target="_top" xlink:title=" ">
<polygon fill="none" stroke="black" points="174.5,-884.5 174.5,-914.5 335.5,-914.5 335.5,-884.5 174.5,-884.5"/>
<text text-anchor="start" x="182.5" y="-902.5" font-family="Helvetica,sans-Serif" font-size="10.00">magnumafpy.AtomisticDipole</text>
<text text-anchor="middle" x="255" y="-891.5" font-family="Helvetica,sans-Serif" font-size="10.00">DipoleField</text>
</a>
</g>
</g>
<!-- Node0&#45;&gt;Node1 -->
<g id="edge1" class="edge">
<title>Node0&#45;&gt;Node1</title>
<path fill="none" stroke="midnightblue" d="M67.09,-477.65C75.27,-552.86 107.54,-815.86 164,-874.5 167.71,-878.36 171.96,-881.63 176.55,-884.41"/>
<polygon fill="midnightblue" stroke="midnightblue" points="70.52,-476.82 65.98,-467.25 63.56,-477.56 70.52,-476.82"/>
</g>
<!-- Node2 -->
<g id="node3" class="node">
<title>Node2</title>
<g id="a_node3"><a xlink:href="classmagnumafpy_1_1AtomisticDmiField.html" target="_top" xlink:title=" ">
<polygon fill="none" stroke="black" points="168.5,-846 168.5,-865 341.5,-865 341.5,-846 168.5,-846"/>
<text text-anchor="middle" x="255" y="-853" font-family="Helvetica,sans-Serif" font-size="10.00">magnumafpy.AtomisticDmiField</text>
</a>
</g>
</g>
<!-- Node0&#45;&gt;Node2 -->
<g id="edge2" class="edge">
<title>Node0&#45;&gt;Node2</title>
<path fill="none" stroke="midnightblue" d="M67.43,-477.27C76.47,-547.8 110.5,-785.48 164,-836.5 167.93,-840.25 172.4,-843.33 177.21,-845.87"/>
<polygon fill="midnightblue" stroke="midnightblue" points="70.87,-476.6 66.15,-467.11 63.92,-477.47 70.87,-476.6"/>
</g>
<!-- Node3 -->
<g id="node4" class="node">
<title>Node3</title>
<g id="a_node4"><a xlink:href="classmagnumafpy_1_1AtomisticExchangeField.html" target="_top" xlink:title=" ">
<polygon fill="none" stroke="black" points="166.5,-796.5 166.5,-826.5 343.5,-826.5 343.5,-796.5 166.5,-796.5"/>
<text text-anchor="start" x="174.5" y="-814.5" font-family="Helvetica,sans-Serif" font-size="10.00">magnumafpy.AtomisticExchange</text>
<text text-anchor="middle" x="255" y="-803.5" font-family="Helvetica,sans-Serif" font-size="10.00">Field</text>
</a>
</g>
</g>
<!-- Node0&#45;&gt;Node3 -->
<g id="edge3" class="edge">
<title>Node0&#45;&gt;Node3</title>
<path fill="none" stroke="midnightblue" d="M64.71,-477.14C64.97,-533.97 73.81,-700.05 164,-787.5 167.48,-790.88 171.39,-793.79 175.56,-796.31"/>
<polygon fill="midnightblue" stroke="midnightblue" points="68.21,-477.03 64.75,-467.01 61.21,-477 68.21,-477.03"/>
</g>
<!-- Node4 -->
<g id="node5" class="node">
<title>Node4</title>
<g id="a_node5"><a xlink:href="classmagnumafpy_1_1AtomisticExternalField.html" target="_top" xlink:title=" ">
<polygon fill="none" stroke="black" points="170,-747.5 170,-777.5 340,-777.5 340,-747.5 170,-747.5"/>
<text text-anchor="start" x="178" y="-765.5" font-family="Helvetica,sans-Serif" font-size="10.00">magnumafpy.AtomisticExternal</text>
<text text-anchor="middle" x="255" y="-754.5" font-family="Helvetica,sans-Serif" font-size="10.00">Field</text>
</a>
</g>
</g>
<!-- Node0&#45;&gt;Node4 -->
<g id="edge4" class="edge">
<title>Node0&#45;&gt;Node4</title>
<path fill="none" stroke="midnightblue" d="M65.91,-477.25C69.35,-528.39 85.8,-666.18 164,-738.5 167.68,-741.9 171.79,-744.83 176.17,-747.36"/>
<polygon fill="midnightblue" stroke="midnightblue" points="69.4,-476.98 65.33,-467.2 62.41,-477.38 69.4,-476.98"/>
</g>
<!-- Node5 -->
<g id="node6" class="node">
<title>Node5</title>
<g id="a_node6"><a xlink:href="classmagnumafpy_1_1AtomisticUniaxialAnisotropyField.html" target="_top" xlink:title=" ">
<polygon fill="none" stroke="black" points="170,-698.5 170,-728.5 340,-728.5 340,-698.5 170,-698.5"/>
<text text-anchor="start" x="178" y="-716.5" font-family="Helvetica,sans-Serif" font-size="10.00">magnumafpy.AtomisticUniaxial</text>
<text text-anchor="middle" x="255" y="-705.5" font-family="Helvetica,sans-Serif" font-size="10.00">AnisotropyField</text>
</a>
</g>
</g>
<!-- Node0&#45;&gt;Node5 -->
<g id="edge5" class="edge">
<title>Node0&#45;&gt;Node5</title>
<path fill="none" stroke="midnightblue" d="M67.58,-477.35C74.49,-522.21 97.63,-631.99 164,-689.5 167.91,-692.89 172.25,-695.81 176.85,-698.32"/>
<polygon fill="midnightblue" stroke="midnightblue" points="71.01,-476.59 66.13,-467.19 64.08,-477.58 71.01,-476.59"/>
</g>
<!-- Node6 -->
<g id="node7" class="node">
<title>Node6</title>
<g id="a_node7"><a xlink:href="classmagnumafpy_1_1BulkDMIExchangeField.html" target="_top" xlink:title=" ">
<polygon fill="none" stroke="black" points="169,-649.5 169,-679.5 341,-679.5 341,-649.5 169,-649.5"/>
<text text-anchor="start" x="177" y="-667.5" font-family="Helvetica,sans-Serif" font-size="10.00">magnumafpy.BulkDMIExchange</text>
<text text-anchor="middle" x="255" y="-656.5" font-family="Helvetica,sans-Serif" font-size="10.00">Field</text>
</a>
</g>
</g>
<!-- Node0&#45;&gt;Node6 -->
<g id="edge6" class="edge">
<title>Node0&#45;&gt;Node6</title>
<path fill="none" stroke="midnightblue" d="M69.95,-476.95C80.53,-514.5 109.01,-597.14 164,-640.5 168.32,-643.9 173.08,-646.83 178.08,-649.34"/>
<polygon fill="midnightblue" stroke="midnightblue" points="73.31,-475.97 67.33,-467.22 66.55,-477.79 73.31,-475.97"/>
</g>
<!-- Node7 -->
<g id="node8" class="node">
<title>Node7</title>
<g id="a_node8"><a xlink:href="classmagnumafpy_1_1CubicAnisotropyField.html" target="_top" xlink:title=" ">
<polygon fill="none" stroke="black" points="173.5,-600.5 173.5,-630.5 336.5,-630.5 336.5,-600.5 173.5,-600.5"/>
<text text-anchor="start" x="181.5" y="-618.5" font-family="Helvetica,sans-Serif" font-size="10.00">magnumafpy.CubicAnisotropy</text>
<text text-anchor="middle" x="255" y="-607.5" font-family="Helvetica,sans-Serif" font-size="10.00">Field</text>
</a>
</g>
</g>
<!-- Node0&#45;&gt;Node7 -->
<g id="edge7" class="edge">
<title>Node0&#45;&gt;Node7</title>
<path fill="none" stroke="midnightblue" d="M73.87,-476.33C88.5,-505.32 120.46,-560.65 164,-590.5 169.62,-594.35 175.81,-597.61 182.25,-600.37"/>
<polygon fill="midnightblue" stroke="midnightblue" points="76.97,-474.7 69.43,-467.26 70.68,-477.78 76.97,-474.7"/>
</g>
<!-- Node8 -->
<g id="node9" class="node">
<title>Node8</title>
<g id="a_node9"><a xlink:href="classmagnumafpy_1_1DemagField.html" target="_top" xlink:title=" ">
<polygon fill="none" stroke="black" points="184.5,-562 184.5,-581 325.5,-581 325.5,-562 184.5,-562"/>
<text text-anchor="middle" x="255" y="-569" font-family="Helvetica,sans-Serif" font-size="10.00">magnumafpy.DemagField</text>
</a>
</g>
</g>
<!-- Node0&#45;&gt;Node8 -->
<g id="edge8" class="edge">
<title>Node0&#45;&gt;Node8</title>
<path fill="none" stroke="midnightblue" d="M78.2,-475.19C95.44,-496.93 127.72,-533.32 164,-552.5 171.34,-556.38 179.41,-559.47 187.62,-561.93"/>
<polygon fill="midnightblue" stroke="midnightblue" points="80.85,-472.88 71.96,-467.11 75.31,-477.17 80.85,-472.88"/>
</g>
<!-- Node9 -->
<g id="node10" class="node">
<title>Node9</title>
<g id="a_node10"><a xlink:href="classmagnumafpy_1_1DemagFieldPBC.html" target="_top" xlink:title=" ">
<polygon fill="none" stroke="black" points="174.5,-524 174.5,-543 335.5,-543 335.5,-524 174.5,-524"/>
<text text-anchor="middle" x="255" y="-531" font-family="Helvetica,sans-Serif" font-size="10.00">magnumafpy.DemagFieldPBC</text>
</a>
</g>
</g>
<!-- Node0&#45;&gt;Node9 -->
<g id="edge9" class="edge">
<title>Node0&#45;&gt;Node9</title>
<path fill="none" stroke="midnightblue" d="M86.82,-472.76C106.25,-485.67 135.85,-503.74 164,-514.5 173.99,-518.32 184.92,-521.44 195.61,-523.97"/>
<polygon fill="midnightblue" stroke="midnightblue" points="88.65,-469.77 78.41,-467.07 84.73,-475.57 88.65,-469.77"/>
</g>
<!-- Node10 -->
<g id="node11" class="node">
<title>Node10</title>
<g id="a_node11"><a xlink:href="classmagnumafpy_1_1DmiField.html" target="_top" xlink:title=" ">
<polygon fill="none" stroke="black" points="192,-486 192,-505 318,-505 318,-486 192,-486"/>
<text text-anchor="middle" x="255" y="-493" font-family="Helvetica,sans-Serif" font-size="10.00">magnumafpy.DmiField</text>
</a>
</g>
</g>
<!-- Node0&#45;&gt;Node10 -->
<g id="edge10" class="edge">
<title>Node0&#45;&gt;Node10</title>
<path fill="none" stroke="midnightblue" d="M122.74,-469.11C149.62,-474.51 181.2,-480.86 206.65,-485.98"/>
<polygon fill="midnightblue" stroke="midnightblue" points="123.19,-465.63 112.69,-467.09 121.81,-472.49 123.19,-465.63"/>
</g>
<!-- Node11 -->
<g id="node12" class="node">
<title>Node11</title>
<g id="a_node12"><a xlink:href="classmagnumafpy_1_1ExchangeField.html" target="_top" xlink:title=" ">
<polygon fill="none" stroke="black" points="178.5,-448 178.5,-467 331.5,-467 331.5,-448 178.5,-448"/>
<text text-anchor="middle" x="255" y="-455" font-family="Helvetica,sans-Serif" font-size="10.00">magnumafpy.ExchangeField</text>
</a>
</g>
</g>
<!-- Node0&#45;&gt;Node11 -->
<g id="edge11" class="edge">
<title>Node0&#45;&gt;Node11</title>
<path fill="none" stroke="midnightblue" d="M138.55,-457.5C151.62,-457.5 165.27,-457.5 178.4,-457.5"/>
<polygon fill="midnightblue" stroke="midnightblue" points="138.2,-454 128.2,-457.5 138.2,-461 138.2,-454"/>
</g>
<!-- Node12 -->
<g id="node13" class="node">
<title>Node12</title>
<g id="a_node13"><a xlink:href="classmagnumafpy_1_1ExchangeFieldPBC.html" target="_top" xlink:title=" ">
<polygon fill="none" stroke="black" points="168.5,-410 168.5,-429 341.5,-429 341.5,-410 168.5,-410"/>
<text text-anchor="middle" x="255" y="-417" font-family="Helvetica,sans-Serif" font-size="10.00">magnumafpy.ExchangeFieldPBC</text>
</a>
</g>
</g>
<!-- Node0&#45;&gt;Node12 -->
<g id="edge12" class="edge">
<title>Node0&#45;&gt;Node12</title>
<path fill="none" stroke="midnightblue" d="M122.74,-445.89C149.62,-440.49 181.2,-434.14 206.65,-429.02"/>
<polygon fill="midnightblue" stroke="midnightblue" points="121.81,-442.51 112.69,-447.91 123.19,-449.37 121.81,-442.51"/>
</g>
<!-- Node13 -->
<g id="node14" class="node">
<title>Node13</title>
<g id="a_node14"><a xlink:href="classmagnumafpy_1_1ExternalField.html" target="_top" xlink:title=" ">
<polygon fill="none" stroke="black" points="182,-372 182,-391 328,-391 328,-372 182,-372"/>
<text text-anchor="middle" x="255" y="-379" font-family="Helvetica,sans-Serif" font-size="10.00">magnumafpy.ExternalField</text>
</a>
</g>
</g>
<!-- Node0&#45;&gt;Node13 -->
<g id="edge13" class="edge">
<title>Node0&#45;&gt;Node13</title>
<path fill="none" stroke="midnightblue" d="M86.82,-442.24C106.25,-429.33 135.85,-411.26 164,-400.5 173.99,-396.68 184.92,-393.56 195.61,-391.03"/>
<polygon fill="midnightblue" stroke="midnightblue" points="84.73,-439.43 78.41,-447.93 88.65,-445.23 84.73,-439.43"/>
</g>
<!-- Node14 -->
<g id="node15" class="node">
<title>Node14</title>
<g id="a_node15"><a xlink:href="classmagnumafpy_1_1NonequiDemagField.html" target="_top" xlink:title=" ">
<polygon fill="none" stroke="black" points="164,-334 164,-353 346,-353 346,-334 164,-334"/>
<text text-anchor="middle" x="255" y="-341" font-family="Helvetica,sans-Serif" font-size="10.00">magnumafpy.NonequiDemagField</text>
</a>
</g>
</g>
<!-- Node0&#45;&gt;Node14 -->
<g id="edge14" class="edge">
<title>Node0&#45;&gt;Node14</title>
<path fill="none" stroke="midnightblue" d="M78.2,-439.81C95.44,-418.07 127.72,-381.68 164,-362.5 171.34,-358.62 179.41,-355.53 187.62,-353.07"/>
<polygon fill="midnightblue" stroke="midnightblue" points="75.31,-437.83 71.96,-447.89 80.85,-442.12 75.31,-437.83"/>
</g>
<!-- Node15 -->
<g id="node16" class="node">
<title>Node15</title>
<g id="a_node16"><a xlink:href="classmagnumafpy_1_1NonequiExchangeField.html" target="_top" xlink:title=" ">
<polygon fill="none" stroke="black" points="169.5,-284.5 169.5,-314.5 340.5,-314.5 340.5,-284.5 169.5,-284.5"/>
<text text-anchor="start" x="177.5" y="-302.5" font-family="Helvetica,sans-Serif" font-size="10.00">magnumafpy.NonequiExchange</text>
<text text-anchor="middle" x="255" y="-291.5" font-family="Helvetica,sans-Serif" font-size="10.00">Field</text>
</a>
</g>
</g>
<!-- Node0&#45;&gt;Node15 -->
<g id="edge15" class="edge">
<title>Node0&#45;&gt;Node15</title>
<path fill="none" stroke="midnightblue" d="M73.87,-438.67C88.5,-409.68 120.46,-354.35 164,-324.5 169.62,-320.65 175.81,-317.39 182.25,-314.63"/>
<polygon fill="midnightblue" stroke="midnightblue" points="70.68,-437.22 69.43,-447.74 76.97,-440.3 70.68,-437.22"/>
</g>
<!-- Node16 -->
<g id="node17" class="node">
<title>Node16</title>
<g id="a_node17"><a xlink:href="classmagnumafpy_1_1NonequiExternalField.html" target="_top" xlink:title=" ">
<polygon fill="none" stroke="black" points="173,-235.5 173,-265.5 337,-265.5 337,-235.5 173,-235.5"/>
<text text-anchor="start" x="181" y="-253.5" font-family="Helvetica,sans-Serif" font-size="10.00">magnumafpy.NonequiExternal</text>
<text text-anchor="middle" x="255" y="-242.5" font-family="Helvetica,sans-Serif" font-size="10.00">Field</text>
</a>
</g>
</g>
<!-- Node0&#45;&gt;Node16 -->
<g id="edge16" class="edge">
<title>Node0&#45;&gt;Node16</title>
<path fill="none" stroke="midnightblue" d="M70.02,-438.21C80.73,-400.94 109.42,-318.9 164,-275.5 168.82,-271.66 174.2,-268.42 179.85,-265.67"/>
<polygon fill="midnightblue" stroke="midnightblue" points="66.64,-437.29 67.37,-447.86 73.39,-439.14 66.64,-437.29"/>
</g>
<!-- Node17 -->
<g id="node18" class="node">
<title>Node17</title>
<g id="a_node18"><a xlink:href="classmagnumafpy_1_1NonequiUniaxialAnisotropyField.html" target="_top" xlink:title=" ">
<polygon fill="none" stroke="black" points="173,-186.5 173,-216.5 337,-216.5 337,-186.5 173,-186.5"/>
<text text-anchor="start" x="181" y="-204.5" font-family="Helvetica,sans-Serif" font-size="10.00">magnumafpy.NonequiUniaxial</text>
<text text-anchor="middle" x="255" y="-193.5" font-family="Helvetica,sans-Serif" font-size="10.00">AnisotropyField</text>
</a>
</g>
</g>
<!-- Node0&#45;&gt;Node17 -->
<g id="edge17" class="edge">
<title>Node0&#45;&gt;Node17</title>
<path fill="none" stroke="midnightblue" d="M67.65,-437.78C74.71,-393.21 98.13,-284.09 164,-226.5 168.4,-222.66 173.33,-219.4 178.58,-216.64"/>
<polygon fill="midnightblue" stroke="midnightblue" points="64.16,-437.48 66.16,-447.88 71.08,-438.5 64.16,-437.48"/>
</g>
<!-- Node18 -->
<g id="node19" class="node">
<title>Node18</title>
<g id="a_node19"><a xlink:href="classmagnumafpy_1_1RKKYExchangeField.html" target="_top" xlink:title=" ">
<polygon fill="none" stroke="black" points="165.5,-148 165.5,-167 344.5,-167 344.5,-148 165.5,-148"/>
<text text-anchor="middle" x="255" y="-155" font-family="Helvetica,sans-Serif" font-size="10.00">magnumafpy.RKKYExchangeField</text>
</a>
</g>
</g>
<!-- Node0&#45;&gt;Node18 -->
<g id="edge18" class="edge">
<title>Node0&#45;&gt;Node18</title>
<path fill="none" stroke="midnightblue" d="M65.76,-437.63C68.85,-386.21 84.51,-247.89 164,-177.5 168.79,-173.26 174.29,-169.85 180.14,-167.12"/>
<polygon fill="midnightblue" stroke="midnightblue" points="62.26,-437.58 65.25,-447.74 69.25,-437.93 62.26,-437.58"/>
</g>
<!-- Node19 -->
<g id="node20" class="node">
<title>Node19</title>
<g id="a_node20"><a xlink:href="classmagnumafpy_1_1SparseExchangeField.html" target="_top" xlink:title=" ">
<polygon fill="none" stroke="black" points="173,-98.5 173,-128.5 337,-128.5 337,-98.5 173,-98.5"/>
<text text-anchor="start" x="181" y="-116.5" font-family="Helvetica,sans-Serif" font-size="10.00">magnumafpy.SparseExchange</text>
<text text-anchor="middle" x="255" y="-105.5" font-family="Helvetica,sans-Serif" font-size="10.00">Field</text>
</a>
</g>
</g>
<!-- Node0&#45;&gt;Node19 -->
<g id="edge19" class="edge">
<title>Node0&#45;&gt;Node19</title>
<path fill="none" stroke="midnightblue" d="M65,-437.45C66.12,-381.59 77.17,-222.77 164,-138.5 167.96,-134.66 172.45,-131.4 177.27,-128.63"/>
<polygon fill="midnightblue" stroke="midnightblue" points="61.49,-437.71 64.88,-447.75 68.49,-437.78 61.49,-437.71"/>
</g>
<!-- Node20 -->
<g id="node21" class="node">
<title>Node20</title>
<g id="a_node21"><a xlink:href="classmagnumafpy_1_1SpinTransferTorqueField.html" target="_top" xlink:title=" ">
<polygon fill="none" stroke="black" points="167,-49.5 167,-79.5 343,-79.5 343,-49.5 167,-49.5"/>
<text text-anchor="start" x="175" y="-67.5" font-family="Helvetica,sans-Serif" font-size="10.00">magnumafpy.SpinTransferTorque</text>
<text text-anchor="middle" x="255" y="-56.5" font-family="Helvetica,sans-Serif" font-size="10.00">Field</text>
</a>
</g>
</g>
<!-- Node0&#45;&gt;Node20 -->
<g id="edge20" class="edge">
<title>Node0&#45;&gt;Node20</title>
<path fill="none" stroke="midnightblue" d="M67.68,-437.96C77.49,-369.28 113.47,-140.45 164,-89.5 167.77,-85.7 172.06,-82.47 176.68,-79.71"/>
<polygon fill="midnightblue" stroke="midnightblue" points="64.21,-437.49 66.29,-447.88 71.15,-438.46 64.21,-437.49"/>
</g>
<!-- Node21 -->
<g id="node22" class="node">
<title>Node21</title>
<g id="a_node22"><a xlink:href="classmagnumafpy_1_1UniaxialAnisotropyField.html" target="_top" xlink:title=" ">
<polygon fill="none" stroke="black" points="167,-0.5 167,-30.5 343,-30.5 343,-0.5 167,-0.5"/>
<text text-anchor="start" x="175" y="-18.5" font-family="Helvetica,sans-Serif" font-size="10.00">magnumafpy.UniaxialAnisotropy</text>
<text text-anchor="middle" x="255" y="-7.5" font-family="Helvetica,sans-Serif" font-size="10.00">Field</text>
</a>
</g>
</g>
<!-- Node0&#45;&gt;Node21 -->
<g id="edge21" class="edge">
<title>Node0&#45;&gt;Node21</title>
<path fill="none" stroke="midnightblue" d="M67.09,-437.35C75.27,-362.14 107.54,-99.14 164,-40.5 167.71,-36.64 171.96,-33.37 176.55,-30.59"/>
<polygon fill="midnightblue" stroke="midnightblue" points="63.56,-437.44 65.98,-447.75 70.52,-438.18 63.56,-437.44"/>
</g>
</g>
</svg>
