<?xml version="1.0" encoding="UTF-8" standalone="no"?>
<!DOCTYPE svg PUBLIC "-//W3C//DTD SVG 1.1//EN"
 "http://www.w3.org/Graphics/SVG/1.1/DTD/svg11.dtd">
<!-- Generated by graphviz version 2.43.0 (0)
 -->
<!-- Title: Graphical Class Hierarchy Pages: 1 -->
<svg width="342pt" height="88pt"
 viewBox="0.00 0.00 342.00 88.00" xmlns="http://www.w3.org/2000/svg" xmlns:xlink="http://www.w3.org/1999/xlink">
<g id="graph0" class="graph" transform="scale(1 1) rotate(0) translate(4 84)">
<title>Graphical Class Hierarchy</title>
<!-- Node10 -->
<g id="node1" class="node">
<title>Node10</title>
<g id="a_node1"><a xlink:title=" ">
<polygon fill="none" stroke="#bfbfbf" points="55.5,-52 55.5,-71 84.5,-71 84.5,-52 55.5,-52"/>
<text text-anchor="middle" x="70" y="-59" font-family="Helvetica,sans-Serif" font-size="10.00">F0</text>
</a>
</g>
</g>
<!-- Node0 -->
<g id="node2" class="node">
<title>Node0</title>
<g id="a_node2"><a xlink:href="structmagnumaf_1_1util_1_1mk__vis__overload_3_01F0_01_4.html" target="_top" xlink:title=" ">
<polygon fill="none" stroke="black" points="195.5,-49.5 195.5,-79.5 314.5,-79.5 314.5,-49.5 195.5,-49.5"/>
<text text-anchor="start" x="203.5" y="-67.5" font-family="Helvetica,sans-Serif" font-size="10.00">magnumaf::util::mk</text>
<text text-anchor="middle" x="255" y="-56.5" font-family="Helvetica,sans-Serif" font-size="10.00">_vis_overload&lt; F0 &gt;</text>
</a>
</g>
</g>
<!-- Node10&#45;&gt;Node0 -->
<g id="edge1" class="edge">
<title>Node10&#45;&gt;Node0</title>
<path fill="none" stroke="midnightblue" d="M94.9,-61.89C120.21,-62.31 161.15,-62.98 195.16,-63.54"/>
<polygon fill="midnightblue" stroke="midnightblue" points="94.81,-58.39 84.75,-61.73 94.7,-65.39 94.81,-58.39"/>
</g>
<!-- Node12 -->
<g id="node3" class="node">
<title>Node12</title>
<g id="a_node3"><a xlink:href="structmagnumaf_1_1util_1_1mk__vis__overload_3_01F0_00_01Frest_8_8_8_01_4.html" target="_top" xlink:title=" ">
<polygon fill="none" stroke="black" points="176,-0.5 176,-30.5 334,-30.5 334,-0.5 176,-0.5"/>
<text text-anchor="start" x="184" y="-18.5" font-family="Helvetica,sans-Serif" font-size="10.00">magnumaf::util::mk</text>
<text text-anchor="middle" x="255" y="-7.5" font-family="Helvetica,sans-Serif" font-size="10.00">_vis_overload&lt; F0, Frest... &gt;</text>
</a>
</g>
</g>
<!-- Node10&#45;&gt;Node12 -->
<g id="edge2" class="edge">
<title>Node10&#45;&gt;Node12</title>
<path fill="none" stroke="midnightblue" d="M94.48,-55.6C119.56,-49.29 160.29,-39.06 194.32,-30.5"/>
<polygon fill="midnightblue" stroke="midnightblue" points="93.6,-52.21 84.75,-58.04 95.31,-59 93.6,-52.21"/>
</g>
<!-- Node77 -->
<g id="node4" class="node">
<title>Node77</title>
<g id="a_node4"><a xlink:href="structmagnumaf_1_1util_1_1mk__vis__overload.html" target="_top" xlink:title=" ">
<polygon fill="none" stroke="black" points="0,-0.5 0,-30.5 140,-30.5 140,-0.5 0,-0.5"/>
<text text-anchor="start" x="8" y="-18.5" font-family="Helvetica,sans-Serif" font-size="10.00">magnumaf::util::mk</text>
<text text-anchor="middle" x="70" y="-7.5" font-family="Helvetica,sans-Serif" font-size="10.00">_vis_overload&lt; Frest... &gt;</text>
</a>
</g>
</g>
<!-- Node77&#45;&gt;Node12 -->
<g id="edge3" class="edge">
<title>Node77&#45;&gt;Node12</title>
<path fill="none" stroke="midnightblue" d="M150.39,-15.5C158.82,-15.5 167.4,-15.5 175.83,-15.5"/>
<polygon fill="midnightblue" stroke="midnightblue" points="150.18,-12 140.18,-15.5 150.18,-19 150.18,-12"/>
</g>
</g>
</svg>
