<?xml version="1.0" encoding="UTF-8" standalone="no"?>
<!DOCTYPE svg PUBLIC "-//W3C//DTD SVG 1.1//EN"
 "http://www.w3.org/Graphics/SVG/1.1/DTD/svg11.dtd">
<!-- Generated by graphviz version 2.43.0 (0)
 -->
<!-- Title: magnumaf::util::mk_vis_overload&lt; F0, Frest... &gt; Pages: 1 -->
<svg width="209pt" height="106pt"
 viewBox="0.00 0.00 209.00 106.00" xmlns="http://www.w3.org/2000/svg" xmlns:xlink="http://www.w3.org/1999/xlink">
<g id="graph0" class="graph" transform="scale(1 1) rotate(0) translate(4 102)">
<title>magnumaf::util::mk_vis_overload&lt; F0, Frest... &gt;</title>
<!-- Node1 -->
<g id="node1" class="node">
<title>Node1</title>
<g id="a_node1"><a xlink:title=" ">
<polygon fill="#bfbfbf" stroke="black" points="0,-0.5 0,-30.5 158,-30.5 158,-0.5 0,-0.5"/>
<text text-anchor="start" x="8" y="-18.5" font-family="Helvetica,sans-Serif" font-size="10.00">magnumaf::util::mk</text>
<text text-anchor="middle" x="79" y="-7.5" font-family="Helvetica,sans-Serif" font-size="10.00">_vis_overload&lt; F0, Frest... &gt;</text>
</a>
</g>
</g>
<!-- Node2 -->
<g id="node2" class="node">
<title>Node2</title>
<g id="a_node2"><a xlink:title=" ">
<polygon fill="none" stroke="#bfbfbf" points="13.5,-73 13.5,-92 42.5,-92 42.5,-73 13.5,-73"/>
<text text-anchor="middle" x="28" y="-80" font-family="Helvetica,sans-Serif" font-size="10.00">F0</text>
</a>
</g>
</g>
<!-- Node2&#45;&gt;Node1 -->
<g id="edge1" class="edge">
<title>Node2&#45;&gt;Node1</title>
<path fill="none" stroke="midnightblue" d="M41.2,-64.67C49.5,-54.09 60.09,-40.6 67.95,-30.59"/>
<polygon fill="midnightblue" stroke="midnightblue" points="38.3,-62.71 34.88,-72.73 43.8,-67.03 38.3,-62.71"/>
</g>
<!-- Node3 -->
<g id="node3" class="node">
<title>Node3</title>
<g id="a_node3"><a xlink:href="structmagnumaf_1_1util_1_1mk__vis__overload.html" target="_top" xlink:title=" ">
<polygon fill="none" stroke="black" points="61,-67.5 61,-97.5 201,-97.5 201,-67.5 61,-67.5"/>
<text text-anchor="start" x="69" y="-85.5" font-family="Helvetica,sans-Serif" font-size="10.00">magnumaf::util::mk</text>
<text text-anchor="middle" x="131" y="-74.5" font-family="Helvetica,sans-Serif" font-size="10.00">_vis_overload&lt; Frest... &gt;</text>
</a>
</g>
</g>
<!-- Node3&#45;&gt;Node1 -->
<g id="edge2" class="edge">
<title>Node3&#45;&gt;Node1</title>
<path fill="none" stroke="midnightblue" d="M113.36,-59.45C105.72,-49.9 97,-39 90.26,-30.58"/>
<polygon fill="midnightblue" stroke="midnightblue" points="110.74,-61.77 119.72,-67.4 116.2,-57.4 110.74,-61.77"/>
</g>
</g>
</svg>
