<?xml version="1.0" encoding="UTF-8" standalone="no"?>
<!DOCTYPE svg PUBLIC "-//W3C//DTD SVG 1.1//EN"
 "http://www.w3.org/Graphics/SVG/1.1/DTD/svg11.dtd">
<!-- Generated by graphviz version 2.43.0 (0)
 -->
<!-- Title: magnumaf::NonequiMesh Pages: 1 -->
<svg width="196pt" height="117pt"
 viewBox="0.00 0.00 195.50 117.00" xmlns="http://www.w3.org/2000/svg" xmlns:xlink="http://www.w3.org/1999/xlink">
<g id="graph0" class="graph" transform="scale(1 1) rotate(0) translate(4 113)">
<title>magnumaf::NonequiMesh</title>
<!-- Node1 -->
<g id="node1" class="node">
<title>Node1</title>
<g id="a_node1"><a xlink:title=" ">
<polygon fill="#bfbfbf" stroke="black" points="2.5,-0.5 2.5,-19.5 144.5,-19.5 144.5,-0.5 2.5,-0.5"/>
<text text-anchor="middle" x="73.5" y="-7.5" font-family="Helvetica,sans-Serif" font-size="10.00">magnumaf::NonequiMesh</text>
</a>
</g>
</g>
<!-- Node2 -->
<g id="node2" class="node">
<title>Node2</title>
<g id="a_node2"><a xlink:title=" ">
<polygon fill="none" stroke="#bfbfbf" points="0,-89.5 0,-108.5 45,-108.5 45,-89.5 0,-89.5"/>
<text text-anchor="middle" x="22.5" y="-96.5" font-family="Helvetica,sans-Serif" font-size="10.00">size_t</text>
</a>
</g>
</g>
<!-- Node2&#45;&gt;Node1 -->
<g id="edge1" class="edge">
<title>Node2&#45;&gt;Node1</title>
<path fill="none" stroke="#9a32cd" stroke-dasharray="5,2" d="M32.77,-80.49C43.58,-62.03 60.17,-33.74 68.44,-19.62"/>
<polygon fill="#9a32cd" stroke="#9a32cd" points="29.61,-78.94 27.58,-89.34 35.65,-82.48 29.61,-78.94"/>
<text text-anchor="middle" x="65.5" y="-63" font-family="Helvetica,sans-Serif" font-size="10.00"> nx</text>
<text text-anchor="middle" x="65.5" y="-52" font-family="Helvetica,sans-Serif" font-size="10.00">ny</text>
<text text-anchor="middle" x="65.5" y="-41" font-family="Helvetica,sans-Serif" font-size="10.00">nz</text>
</g>
<!-- Node3 -->
<g id="node3" class="node">
<title>Node3</title>
<g id="a_node3"><a xlink:title=" ">
<polygon fill="none" stroke="#bfbfbf" points="63.5,-89.5 63.5,-108.5 187.5,-108.5 187.5,-89.5 63.5,-89.5"/>
<text text-anchor="middle" x="125.5" y="-96.5" font-family="Helvetica,sans-Serif" font-size="10.00">std::vector&lt; double &gt;</text>
</a>
</g>
</g>
<!-- Node3&#45;&gt;Node1 -->
<g id="edge2" class="edge">
<title>Node3&#45;&gt;Node1</title>
<path fill="none" stroke="#9a32cd" stroke-dasharray="5,2" d="M115.18,-80.74C104.16,-62.3 87.13,-33.8 78.66,-19.62"/>
<polygon fill="#9a32cd" stroke="#9a32cd" points="112.19,-82.55 120.32,-89.34 118.2,-78.96 112.19,-82.55"/>
<text text-anchor="middle" x="134.5" y="-52" font-family="Helvetica,sans-Serif" font-size="10.00"> z_spacing</text>
</g>
</g>
</svg>
